<svg width="20" height="26" viewBox="0 0 20 26" fill="none" xmlns="http://www.w3.org/2000/svg">
    <path d="M1.00166 24H18.9983C19.2482 23.9995 19.4891 24.0927 19.6738 24.261C19.8584 24.4294 19.9733 24.6608 19.9959 24.9096C20.0185 25.1585 19.9471 25.4068 19.7958 25.6057C19.6444 25.8045 19.4242 25.9395 19.1783 25.984L18.9983 26H1.00166C0.751813 26.0005 0.510849 25.9073 0.326217 25.739C0.141585 25.5706 0.0266665 25.3392 0.0040917 25.0904C-0.0184831 24.8415 0.0529217 24.5932 0.204245 24.3943C0.355568 24.1955 0.575843 24.0605 0.821692 24.016L1.00166 24H18.9983H1.00166ZM9.82003 0.0160001L10 5.56206e-08C10.234 -7.79722e-05 10.4606 0.0819428 10.6404 0.231779C10.8202 0.381614 10.9417 0.589772 10.9838 0.82L10.9998 1V18.584L16.3628 13.222C16.5283 13.0563 16.7466 12.954 16.9797 12.9328C17.2128 12.9116 17.446 12.9729 17.6386 13.106L17.7786 13.222C17.9439 13.3877 18.0458 13.6062 18.0667 13.8393C18.0875 14.0725 18.0259 14.3056 17.8925 14.498L17.7766 14.636L10.7079 21.708C10.5422 21.8733 10.3238 21.9753 10.0906 21.9962C9.85751 22.017 9.62447 21.9554 9.4321 21.822L9.29213 21.708L2.22343 14.636C2.0463 14.4596 1.94164 14.2233 1.93008 13.9736C1.91852 13.7238 2.00091 13.4788 2.161 13.2868C2.32108 13.0948 2.54726 12.9698 2.79496 12.9363C3.04266 12.9028 3.29391 12.9634 3.4992 13.106L3.63717 13.222L9.00018 18.584V1C9.00011 0.765949 9.08211 0.539285 9.23192 0.359482C9.38173 0.179679 9.58985 0.0581293 9.82003 0.0160001L10 5.56206e-08L9.82003 0.0160001Z"
          fill="#37363C"/>
</svg>
