<svg width="170" height="48" viewBox="0 0 170 48" fill="none" xmlns="http://www.w3.org/2000/svg">
<g clip-path="url(#clip0_1241_461)">
<path d="M5.67188 43.3267C5.67188 44.2147 5.46777 44.9291 5.05957 45.4698C4.65137 46.0069 4.10352 46.2754 3.41602 46.2754C2.68197 46.2754 2.11442 46.0158 1.71338 45.4966L1.66504 46.168H0.751953V37.918H1.74561V40.9956C2.14665 40.4979 2.69987 40.249 3.40527 40.249C4.11068 40.249 4.6639 40.5158 5.06494 41.0493C5.46956 41.5829 5.67188 42.3133 5.67188 43.2407V43.3267ZM4.67822 43.2139C4.67822 42.5371 4.54753 42.0143 4.28613 41.6455C4.02474 41.2767 3.64876 41.0923 3.1582 41.0923C2.50293 41.0923 2.03206 41.3967 1.74561 42.0054V44.5191C2.04997 45.1278 2.52441 45.4322 3.16895 45.4322C3.64518 45.4322 4.01579 45.2477 4.28076 44.8789C4.54574 44.5101 4.67822 43.9551 4.67822 43.2139ZM8.76562 44.7124L10.1191 40.3565H11.1826L8.84619 47.065C8.48454 48.0318 7.90983 48.5152 7.12207 48.5152L6.93408 48.499L6.56348 48.4292V47.6236L6.83203 47.645C7.16862 47.645 7.43001 47.577 7.61621 47.4409C7.80599 47.3049 7.96175 47.056 8.0835 46.6944L8.30371 46.1035L6.23047 40.3565H7.31543L8.76562 44.7124ZM20.9688 46.168H19.9321L15.9951 40.1416V46.168H14.9585V38.3477H15.9951L19.9429 44.4009V38.3477H20.9688V46.168ZM27.2153 44.127H23.939L23.2031 46.168H22.1396L25.126 38.3477H26.0283L29.02 46.168H27.9619L27.2153 44.127ZM24.2505 43.2783H26.9092L25.5771 39.6206L24.2505 43.2783ZM31.104 43.1065V46.168H30.0728V38.3477H32.957C33.8128 38.3477 34.4824 38.5661 34.9658 39.003C35.4528 39.4398 35.6963 40.0181 35.6963 40.7378C35.6963 41.4969 35.4582 42.0824 34.9819 42.4942C34.5093 42.9024 33.8307 43.1065 32.9463 43.1065H31.104ZM31.104 42.2632H32.957C33.5085 42.2632 33.931 42.1343 34.2246 41.8765C34.5182 41.6151 34.665 41.2391 34.665 40.7486C34.665 40.2831 34.5182 39.9107 34.2246 39.6314C33.931 39.3521 33.5282 39.2071 33.0161 39.1963H31.104V42.2632ZM40.5894 44.127H37.313L36.5771 46.168H35.5137L38.5 38.3477H39.4023L42.394 46.168H41.3359L40.5894 44.127ZM37.6245 43.2783H40.2832L38.9512 39.6206L37.6245 43.2783Z" fill="white"/>
<path d="M58.7891 33.7812L64.9993 47.1483H63.5624L61.4692 42.7494H55.7218L53.6468 47.1483H52.1646L58.4533 33.7812H58.7891ZM58.6227 36.6217L56.3389 41.4644H60.8914L58.6227 36.6217Z" fill="white"/>
<path d="M67.1074 33.7812H68.4384V41.8531C68.4245 42.4511 68.4427 43.0496 68.4928 43.6455C68.5436 44.116 68.7065 44.5673 68.9677 44.9611C69.2533 45.3528 69.6375 45.6609 70.0809 45.8541C70.5521 46.0855 71.0689 46.2081 71.5934 46.2127C72.0314 46.213 72.464 46.1164 72.8608 45.9301C73.2527 45.7497 73.5991 45.4828 73.8742 45.1493C74.16 44.7923 74.3663 44.3781 74.4791 43.9342C74.5975 43.2432 74.6431 42.5416 74.6153 41.841V33.7812H75.925V41.8531C75.9532 42.8312 75.8359 43.808 75.5772 44.7514C75.3197 45.5201 74.8328 46.1904 74.1827 46.6715C73.4582 47.2277 72.5655 47.5173 71.6539 47.4916C70.6765 47.5195 69.7137 47.2494 68.8921 46.7169C68.1535 46.2406 67.6077 45.516 67.3524 44.6725C67.1891 44.153 67.1074 43.2111 67.1074 41.8531V33.7812Z" fill="white"/>
<path d="M77.8794 35.0906V33.7812H85.1755V35.0906H82.208V47.1544H80.8499V35.0906H77.8794Z" fill="white"/>
<path d="M102.602 47.1562L104.508 33.7891H104.726L110.137 44.7622L115.5 33.7891H115.712L117.63 47.1562H116.323L115.007 37.5926L110.3 47.1562H109.959L105.194 37.5197L103.888 47.1562H102.602Z" fill="white"/>
<path d="M135.035 35.0906V33.7812H142.331V35.0906H139.364V47.1544H138.006V35.0906H135.035Z" fill="white"/>
<path d="M144.062 33.7812H145.392V47.1483H144.062V33.7812Z" fill="white"/>
<path d="M147.428 33.7812H148.877L153.29 44.1104L157.773 33.7812H159.222L153.43 47.1483H153.127L147.428 33.7812Z" fill="white"/>
<path d="M161.467 33.7812H169.093V35.0906H162.798V39.2831H169.044V40.5894H162.798V45.8451H169.044V47.1544H161.467V33.7812Z" fill="white"/>
<path d="M93.5515 33.7218C92.2222 33.6977 90.9159 34.0716 89.7991 34.7959C88.6822 35.5202 87.8054 36.5621 87.2804 37.7888C86.7554 39.0155 86.606 40.3714 86.8512 41.6837C87.0964 42.996 87.7251 44.2053 88.6572 45.1574C89.5893 46.1094 90.7826 46.7612 92.0849 47.0296C93.3873 47.298 94.7397 47.1708 95.9698 46.6643C97.1999 46.1578 98.2519 45.2949 98.9919 44.1857C99.7319 43.0764 100.126 41.7709 100.125 40.4357C100.138 38.6703 99.4537 36.9717 98.2213 35.7128C96.9888 34.4539 95.3092 33.7378 93.5515 33.7218ZM96.9303 39.655L93.376 46.1198C93.366 46.1372 93.3506 46.1508 93.3321 46.1585C93.3137 46.1662 93.2932 46.1675 93.2739 46.1623C93.2546 46.1572 93.2375 46.1457 93.2253 46.1298C93.2132 46.1138 93.2066 46.0943 93.2066 46.0742L93.1854 41.6205H90.2483C90.2321 41.6194 90.2166 41.6143 90.2029 41.6055C90.1893 41.5968 90.1781 41.5848 90.1703 41.5706C90.1625 41.5564 90.1583 41.5405 90.1582 41.5243C90.1581 41.5081 90.162 41.4921 90.1696 41.4778L93.7995 34.7699C93.8086 34.7503 93.8243 34.7346 93.8439 34.7256C93.8634 34.7166 93.8855 34.7149 93.9063 34.7207C93.927 34.7266 93.9449 34.7396 93.957 34.7575C93.969 34.7754 93.9743 34.797 93.9719 34.8185L93.9961 39.5152H96.8456C96.8609 39.5155 96.8759 39.5196 96.8893 39.527C96.9027 39.5345 96.9141 39.5451 96.9224 39.558C96.9308 39.5709 96.9359 39.5856 96.9372 39.6009C96.9386 39.6163 96.9362 39.6317 96.9303 39.6459V39.655Z" fill="white"/>
<path d="M0 23.696V0.580078H4.78541C8.22776 0.580078 10.7263 0.858559 12.2811 1.41552C14.4377 2.14114 16.2843 3.58214 17.5173 5.5016C18.7756 7.43983 19.4038 9.7497 19.4018 12.4312C19.4473 14.5662 18.9319 16.6755 17.9075 18.5467C17.02 20.1982 15.671 21.5531 14.0265 22.4444C12.4354 23.2788 10.206 23.696 7.33843 23.696H0ZM2.20819 21.5117H4.86708C8.04929 21.5117 10.2565 21.3092 11.4886 20.9041C13.1551 20.3891 14.596 19.3171 15.5722 17.8662C16.5644 16.3958 17.0605 14.5973 17.0605 12.4707C17.0605 10.2429 16.5231 8.33805 15.4482 6.75628C14.3762 5.1778 12.7864 4.02737 10.9562 3.50565C9.52444 3.06615 7.15492 2.84539 3.84769 2.84337H2.22028L2.20819 21.5117Z" fill="white"/>
<path d="M37.8388 18.0278L39.684 19.003C39.1612 20.0848 38.4503 21.0643 37.5847 21.8951C36.8064 22.6189 35.8978 23.187 34.9077 23.5691C33.8301 23.9668 32.6888 24.1615 31.5409 24.1432C28.762 24.1432 26.5892 23.2318 25.0222 21.4091C23.5047 19.6976 22.6726 17.482 22.687 15.1903C22.6652 13.0851 23.3671 11.0367 24.6744 9.39083C26.3562 7.22982 28.6068 6.15032 31.426 6.15235C34.3299 6.15235 36.649 7.25817 38.3833 9.46982C39.6174 11.0313 40.2446 12.9797 40.2648 15.3149H24.9285C24.9688 17.3017 25.6 18.9301 26.8221 20.1999C27.4034 20.8188 28.1077 21.3081 28.8893 21.6363C29.671 21.9644 30.5125 22.124 31.3594 22.1048C32.2188 22.1065 33.0717 21.9564 33.8792 21.6612C34.6439 21.3876 35.3523 20.9757 35.9694 20.446C36.7097 19.7386 37.3398 18.9234 37.8388 18.0278ZM37.8388 13.4222C37.6167 12.4042 37.1816 11.4453 36.5623 10.6091C35.9645 9.87779 35.2054 9.29636 34.345 8.91083C33.4416 8.48678 32.4565 8.26693 31.4593 8.26678C29.8706 8.23667 28.3303 8.8157 27.1518 9.88602C26.2746 10.6739 25.6111 11.8526 25.1614 13.4222H37.8388Z" fill="white"/>
<path d="M42.7207 6.60156H45.0529L50.767 19.0573L56.4145 6.60156H58.7618L50.9696 23.6963H50.5613L42.7207 6.60156Z" fill="white"/>
<path d="M76.4305 18.0278L78.2757 19.003C77.7529 20.0848 77.042 21.0643 76.1764 21.8951C75.3999 22.6182 74.4934 23.1863 73.5054 23.5691C72.4279 23.9668 71.2865 24.1615 70.1387 24.1432C67.3598 24.1432 65.1869 23.2318 63.62 21.4091C62.0958 19.7004 61.2572 17.4844 61.2666 15.1903C61.2448 13.0851 61.9467 11.0367 63.254 9.39083C64.9358 7.22982 67.1864 6.15032 70.0056 6.15235C72.9095 6.15235 75.2286 7.25817 76.9629 9.46982C78.197 11.0313 78.8242 12.9797 78.8444 15.3149H63.5232C63.5615 17.3017 64.1927 18.9301 65.4168 20.1999C65.9981 20.8188 66.7024 21.3081 67.4841 21.6363C68.2657 21.9644 69.1072 22.124 69.9542 22.1048C70.8181 22.105 71.6752 21.9518 72.486 21.6521C73.2507 21.3785 73.9591 20.9666 74.5762 20.4369C75.3104 19.7312 75.9354 18.9191 76.4305 18.0278ZM76.4305 13.4222C76.2084 12.4042 75.7733 11.4453 75.154 10.6091C74.5562 9.87779 73.797 9.29636 72.9367 8.91083C72.0286 8.4846 71.0382 8.2647 70.0358 8.26678C68.4472 8.23667 66.9069 8.8157 65.7284 9.88602C64.8511 10.6739 64.1877 11.8526 63.738 13.4222H76.4305Z" fill="white"/>
<path d="M82.5952 0H84.7883V23.6962H82.5952V0Z" fill="white"/>
<path d="M97.402 6.16088C98.6311 6.13124 99.8517 6.37205 100.978 6.86642C102.105 7.36079 103.11 8.09675 103.924 9.02266C105.467 10.6988 106.308 12.9072 106.274 15.1897C106.295 17.5246 105.402 19.7743 103.788 21.454C102.132 23.2404 100.002 24.1335 97.3989 24.1335C94.7955 24.1335 92.6609 23.2404 90.9952 21.454C89.3823 19.7733 88.4906 17.5239 88.5117 15.1897C88.4777 12.909 89.3193 10.7027 90.8621 9.02873C91.6772 8.09965 92.6852 7.36136 93.8151 6.86587C94.945 6.37038 96.1694 6.12973 97.402 6.16088ZM97.402 8.31481C96.5214 8.30266 95.6481 8.47558 94.8381 8.82245C94.028 9.16932 93.2991 9.68248 92.6982 10.329C92.0611 10.9748 91.56 11.7429 91.2248 12.5874C90.8896 13.4319 90.7272 14.3355 90.7472 15.2444C90.7434 16.4577 91.0562 17.6507 91.6546 18.7047C92.2175 19.7383 93.0553 20.5945 94.0746 21.1776C95.0977 21.7493 96.2492 22.0493 97.4201 22.0493C98.591 22.0493 99.7425 21.7493 100.766 21.1776C101.784 20.5935 102.622 19.7375 103.186 18.7047C103.784 17.6507 104.097 16.4577 104.093 15.2444C104.105 14.3312 103.934 13.4248 103.588 12.58C103.242 11.7353 102.73 10.9695 102.081 10.329C101.483 9.68626 100.758 9.17538 99.9522 8.82867C99.1467 8.48196 98.2783 8.30698 97.402 8.31481Z" fill="white"/>
<path d="M110.358 6.60147H112.551V9.74577C113.33 8.6283 114.358 7.70792 115.552 7.05716C116.714 6.4502 118.008 6.14227 119.318 6.16096C120.477 6.1449 121.626 6.3698 122.695 6.82151C123.763 7.27323 124.726 7.94199 125.525 8.78577C126.359 9.60852 127.017 10.5929 127.461 11.6792C127.905 12.7654 128.124 13.9309 128.105 15.1048C128.127 16.2909 127.91 17.4693 127.468 18.5695C127.026 19.6698 126.369 20.6694 125.534 21.5088C124.279 22.8132 122.647 23.6874 120.869 24.0075C119.091 24.3276 117.258 24.0773 115.63 23.2921C114.435 22.6795 113.385 21.8165 112.551 20.7615V29.9574H110.358V6.60147ZM119.13 8.28147C118.238 8.26239 117.351 8.42999 116.527 8.77361C115.703 9.11723 114.958 9.62935 114.342 10.2774C113.703 10.9307 113.201 11.7068 112.867 12.5592C112.534 13.4116 112.375 14.3229 112.4 15.2384C112.38 16.4607 112.679 17.6669 113.265 18.7382C113.845 19.7776 114.706 20.6316 115.748 21.202C116.787 21.7994 117.963 22.1136 119.16 22.1134C120.331 22.1198 121.482 21.8047 122.488 21.202C123.527 20.5849 124.382 19.6982 124.962 18.6349C125.563 17.5836 125.879 16.3927 125.879 15.1807C125.879 13.9687 125.563 12.7778 124.962 11.7265C124.389 10.6765 123.543 9.80185 122.514 9.19534C121.486 8.58884 120.314 8.27305 119.121 8.28147H119.13Z" fill="white"/>
<path d="M146.524 18.0278L148.372 19.003C147.848 20.0842 147.137 21.0635 146.273 21.8951C145.493 22.619 144.584 23.1871 143.593 23.5691C142.515 23.9668 141.374 24.1615 140.226 24.1432C137.449 24.1432 135.277 23.2318 133.71 21.4091C132.186 19.7005 131.349 17.4842 131.36 15.1903C131.338 13.0845 132.041 11.0358 133.35 9.39083C135.032 7.22982 137.283 6.15032 140.102 6.15235C143.002 6.15235 145.321 7.25817 147.059 9.46982C148.291 11.0313 148.917 12.9797 148.938 15.3149H133.613C133.656 17.3017 134.288 18.9301 135.51 20.1999C136.091 20.8188 136.796 21.3081 137.577 21.6363C138.359 21.9644 139.2 22.124 140.047 22.1048C140.91 22.1047 141.766 21.9515 142.576 21.6521C143.342 21.3782 144.051 20.9664 144.669 20.4369C145.404 19.7311 146.029 18.9191 146.524 18.0278ZM146.524 13.4222C146.304 12.4033 145.869 11.4439 145.247 10.6091C144.649 9.87779 143.89 9.29636 143.03 8.91083C142.123 8.48466 141.133 8.26475 140.132 8.26678C138.541 8.23511 136.999 8.81425 135.819 9.88602C134.941 10.6739 134.279 11.8526 133.831 13.4222H146.524Z" fill="white"/>
<path d="M170.015 0V23.6962H167.855V20.7615C167.017 21.8179 165.963 22.681 164.764 23.2921C163.133 24.077 161.297 24.3271 159.517 24.0071C157.736 23.6871 156.101 22.8131 154.842 21.5089C154.009 20.6693 153.352 19.6693 152.912 18.5689C152.473 17.4685 152.259 16.2903 152.283 15.1048C152.266 13.9301 152.487 12.7641 152.933 11.6779C153.379 10.5916 154.04 9.60765 154.875 8.78582C155.675 7.94217 156.64 7.27355 157.709 6.82188C158.778 6.3702 159.929 6.14521 161.089 6.16101C162.407 6.14172 163.71 6.44955 164.882 7.05721C166.073 7.70547 167.095 8.6266 167.864 9.74582V0H170.015ZM161.258 8.28152C160.067 8.27404 158.896 8.58958 157.868 9.19485C156.841 9.80012 155.995 10.6727 155.42 11.7205C154.819 12.7715 154.502 13.9625 154.502 15.1747C154.502 16.3869 154.819 17.5779 155.42 18.6289C156.001 19.6934 156.858 20.5803 157.9 21.1959C158.907 21.7975 160.057 22.1126 161.228 22.1073C162.424 22.1079 163.599 21.7937 164.637 21.1959C165.675 20.6228 166.533 19.7694 167.114 18.7321C167.7 17.6608 167.999 16.4547 167.979 15.2324C168.005 14.3165 167.845 13.405 167.511 12.5525C167.177 11.7 166.675 10.9241 166.034 10.2714C165.418 9.62639 164.676 9.11659 163.854 8.77411C163.032 8.43163 162.148 8.26391 161.258 8.28152Z" fill="white"/>
<path d="M126.901 47.1922C130.598 47.1922 133.595 44.1822 133.595 40.4691C133.595 36.7561 130.598 33.7461 126.901 33.7461C123.204 33.7461 120.207 36.7561 120.207 40.4691C120.207 44.1822 123.204 47.1922 126.901 47.1922Z" fill="white"/>
</g>
<defs>
<clipPath id="clip0_1241_461">
<rect width="170" height="48" fill="white"/>
</clipPath>
</defs>
</svg>
