<svg width="32" height="27" viewBox="0 0 32 27" fill="none" xmlns="http://www.w3.org/2000/svg">
    <path d="M32 3.20269C30.8232 3.74391 29.5591 4.10959 28.2301 4.27488C29.6013 3.42326 30.6272 2.08292 31.1164 0.50394C29.828 1.29819 28.418 1.85726 26.9476 2.15684C25.9588 1.06105 24.6491 0.33474 23.2218 0.0906787C21.7945 -0.153382 20.3296 0.0984568 19.0543 0.807097C17.7791 1.51574 16.7649 2.64153 16.1693 4.00969C15.5737 5.37785 15.43 6.91183 15.7604 8.37347C13.1499 8.23743 10.5961 7.5332 8.26485 6.30649C5.93354 5.07977 3.87681 3.35798 2.22813 1.25286C1.66441 2.26215 1.34026 3.43234 1.34026 4.6786C1.33963 5.80051 1.60582 6.90524 2.11522 7.89477C2.62461 8.8843 3.36145 9.72803 4.26037 10.3511C3.21786 10.3167 2.19836 10.0243 1.28671 9.49832V9.58608C1.2866 11.1596 1.81102 12.6847 2.77098 13.9026C3.73094 15.1205 5.06731 15.9562 6.55333 16.2679C5.58624 16.5395 4.57231 16.5795 3.58813 16.3849C4.0074 17.7388 4.82409 18.9228 5.92389 19.771C7.02368 20.6193 8.35151 21.0893 9.72148 21.1154C7.39587 23.0102 4.52376 24.0381 1.56716 24.0336C1.04343 24.0337 0.520146 24.002 0 23.9385C3.00111 25.9412 6.49462 27.0041 10.0625 27C22.1404 27 28.7431 16.6175 28.7431 7.61285C28.7431 7.3203 28.736 7.02483 28.7233 6.73228C30.0076 5.7683 31.1162 4.57459 31.9972 3.20708L32 3.20269Z"
          fill="white"/>
</svg>
