<svg width="23" height="25" viewBox="0 0 23 25" fill="none" xmlns="http://www.w3.org/2000/svg">
    <path d="M4.72852 11.4844H7.29548V13.9619H4.72852V11.4844ZM4.72852 16.4393H7.29548V18.9168H4.72852V16.4393ZM9.86245 11.4844H12.4294V13.9619H9.86245V11.4844ZM9.86245 16.4393H12.4294V18.9168H9.86245V16.4393ZM14.9964 11.4844H17.5633V13.9619H14.9964V11.4844ZM14.9964 16.4393H17.5633V18.9168H14.9964V16.4393Z"
          fill="#37363C"/>
    <path d="M2.4769 25.0001H19.8152C21.1812 25.0001 22.2921 23.8788 22.2921 22.5001V5.00002C22.2921 3.62126 21.1812 2.50001 19.8152 2.50001H17.3383V0H14.8614V2.50001H7.43069V0H4.95379V2.50001H2.4769C1.11089 2.50001 0 3.62126 0 5.00002V22.5001C0 23.8788 1.11089 25.0001 2.4769 25.0001ZM19.8152 7.50003L19.8164 22.5001H2.4769V7.50003H19.8152Z"
          fill="#37363C"/>
</svg>
