<svg width="2105" height="2106" viewBox="0 0 2105 2106" fill="none" xmlns="http://www.w3.org/2000/svg">
<path fill-rule="evenodd" clip-rule="evenodd" d="M1014.92 0.206486C997.638 0.954486 970.148 2.76649 954.915 4.16049C665.9 30.6195 400.947 175.814 221.283 406.192C145.303 503.62 86.1474 615.755 49.0834 732.607C22.3454 816.904 7.94138 894.13 1.24038 989.107C-0.413625 1012.56 -0.413625 1091.3 1.24137 1115.61C7.97437 1214.51 24.4064 1299.28 53.8684 1387.11C116.396 1573.5 228.869 1737.37 380.915 1863.61C543.761 1998.81 744.066 2081.67 954.915 2101.04C990.328 2104.3 1008.29 2105.04 1051.92 2105.04C1106.2 2105.05 1138.05 2103.15 1186.42 2097.02C1377.93 2072.78 1558.36 1996.16 1710.41 1874.53C1878.87 1739.76 2003.25 1554.36 2062.91 1349.11C2085.36 1271.87 2097.79 1200.53 2103.59 1115.61C2105.24 1091.45 2105.24 1012.68 2103.58 989.107C2096.06 881.784 2077.12 789.725 2043.22 695.607C1951.12 439.914 1761.86 228.246 1517.92 108.115C1391.05 45.6405 1262.28 11.3915 1117.42 1.59249C1101.8 0.536486 1029.78 -0.437514 1014.92 0.206486ZM1095.88 38.0965C1116.81 41.8245 1133.02 57.1225 1137.88 77.7105C1139.82 85.9325 1139.83 104.951 1137.91 114.107C1135.78 124.251 1130.26 134.765 1123.54 141.465C1113.3 151.683 1100.62 156.58 1084.42 156.575C1047.22 156.564 1025.72 132.691 1027.74 93.6305C1028.41 80.5865 1029.94 74.0725 1034.54 64.6525C1038.65 56.2325 1048.9 45.9415 1056.98 42.1215C1067.76 37.0225 1081.73 35.5755 1095.88 38.0965ZM992.452 39.3575C992.473 40.3195 995.788 66.0825 999.821 96.6075C1003.85 127.132 1007.07 152.209 1006.97 152.334C1006.67 152.713 985.97 155.496 985.672 155.197C985.519 155.045 982.812 134.972 979.655 110.59C976.498 86.2095 973.747 67.1265 973.542 68.1845C973.337 69.2425 970.839 89.7805 967.991 113.824C965.144 137.869 962.603 157.752 962.345 158.01C961.497 158.859 940.929 161.425 940.318 160.759C939.989 160.4 932.34 141.357 923.319 118.44C914.297 95.5225 906.773 76.9155 906.598 77.0915C906.423 77.2665 908.811 96.8535 911.905 120.617C914.999 144.382 917.391 163.964 917.221 164.134C916.662 164.694 896.478 167.005 896.123 166.551C895.725 166.042 881.377 55.9175 881.4 53.5485C881.412 52.2855 884.668 51.5675 898.547 49.7645C907.97 48.5395 915.781 47.6665 915.905 47.8225C916.028 47.9795 918.046 52.8325 920.389 58.6075C934.78 94.0855 945.715 120.235 946.504 121.057C947.067 121.644 947.415 121.335 947.415 120.248C947.415 118.355 956.025 50.1445 956.91 45.0225L957.444 41.9365L972.679 39.9135C992.685 37.2555 992.408 37.2635 992.452 39.3575ZM1180.59 44.1805C1188.88 45.6585 1190.34 46.2095 1190.74 48.0075C1191 49.1625 1194.05 69.1255 1197.52 92.3685C1202.28 124.282 1204.1 134.321 1204.95 133.368C1205.58 132.675 1215.24 115.232 1226.42 94.6075C1237.6 73.9825 1246.88 56.9375 1247.04 56.7305C1247.38 56.2925 1270.5 60.3625 1271.11 60.9665C1271.33 61.1875 1266.85 69.4105 1261.14 79.2385C1255.44 89.0665 1241.6 112.995 1230.39 132.413C1212.68 163.077 1209.73 167.654 1207.96 167.224C1206.83 166.953 1201.42 165.953 1195.92 165.004C1190.42 164.054 1185.81 163.211 1185.69 163.131C1185.56 163.051 1181.17 136.688 1175.92 104.546C1170.67 72.4055 1166.14 45.0335 1165.84 43.7215C1165.36 41.5605 1165.57 41.3885 1168.11 41.8945C1169.65 42.2025 1175.27 43.2305 1180.59 44.1805ZM1076.56 57.6325C1062.86 60.4855 1054.43 71.5135 1052.15 89.5915C1048.66 117.197 1061.5 136.607 1083.25 136.607C1091.03 136.607 1097.35 134.297 1102.88 129.433C1112.35 121.091 1115.92 110.235 1115.14 92.1075C1114.82 84.7555 1114.04 79.4815 1112.79 76.2045C1110.27 69.6015 1103.59 62.3595 1097.69 59.8205C1091.96 57.3575 1082.56 56.3835 1076.56 57.6325ZM847.415 58.0695C847.415 58.3245 853.057 83.1865 859.953 113.319C866.849 143.453 872.586 168.765 872.703 169.568C872.86 170.653 870.123 171.649 862.079 173.432C856.107 174.756 850.9 175.447 850.479 174.971C850.058 174.496 846.906 161.732 843.475 146.607C840.043 131.482 834.347 106.548 830.818 91.1975C827.289 75.8475 824.517 63.1865 824.658 63.0625C824.914 62.8385 845.241 57.8895 846.665 57.7045C847.078 57.6515 847.415 57.8155 847.415 58.0695ZM784.136 81.1175C790.883 83.1205 798.485 90.0095 802.111 97.4055C804.574 102.429 804.907 104.237 804.911 112.607C804.914 119.886 804.493 122.881 803.108 125.417C800.353 130.466 794.577 136.428 789.637 139.323L785.192 141.927L791.259 143.79C794.596 144.814 800.177 147.564 803.662 149.901C809.831 154.038 836.879 175.931 837.939 177.645C838.23 178.117 832.605 180.397 825.438 182.713L812.408 186.923L806.162 182.071C773.791 156.927 768.851 153.673 762.981 153.629C758.959 153.599 748.327 156.673 747.813 158.015C747.584 158.615 750.733 169.096 754.813 181.305L762.23 203.503L751.26 207.159C745.226 209.169 740.149 210.655 739.978 210.461C739.808 210.266 731.678 186.032 721.912 156.607C712.146 127.182 703.957 102.585 703.714 101.948C703.43 101.206 713.228 97.4885 730.95 91.6135C768.467 79.1765 773.955 78.0935 784.136 81.1175ZM1355.41 83.7315C1360.64 85.4505 1365.28 87.1855 1365.72 87.5865C1366.16 87.9885 1367.2 91.1945 1368.03 94.7125C1368.86 98.2295 1373.34 117.506 1378 137.549C1382.66 157.592 1386.63 174.158 1386.84 174.361C1387.04 174.565 1392.49 158.841 1398.94 139.42C1405.39 119.998 1410.96 103.777 1411.32 103.374C1412.2 102.402 1431.42 108.763 1431.42 110.024C1431.42 110.973 1398.36 211.404 1396.28 216.758L1395.26 219.408L1384.16 215.694L1373.07 211.98L1362.99 169.342C1357.45 145.891 1352.64 127.02 1352.29 127.406C1351.95 127.791 1346.6 143.407 1340.4 162.107C1334.21 180.807 1328.96 196.31 1328.74 196.558C1328.18 197.199 1308.42 190.621 1308.42 189.792C1308.42 188.056 1344.66 80.6075 1345.25 80.6075C1345.61 80.6075 1350.19 82.0135 1355.41 83.7315ZM762.761 102.167C753.625 104.56 732.415 111.692 732.415 112.371C732.415 113.187 740.597 138.965 741.019 139.478C741.553 140.128 772.114 129.468 775.339 127.507C779.129 125.202 782.406 120.045 782.411 116.377C782.417 112.142 779.464 105.774 776.551 103.743C772.757 101.096 768.643 100.626 762.761 102.167ZM653.018 142.857C661.793 151.244 681.962 170.475 697.837 185.59L726.701 213.074L715.455 218.347L704.209 223.621L699.562 219.693C697.006 217.533 692.455 213.254 689.449 210.186C686.443 207.118 683.566 204.607 683.057 204.607C682.547 204.607 672.951 208.769 661.731 213.857L641.333 223.107L641.855 229.107C642.142 232.407 642.661 238.731 643.008 243.161L643.639 251.215L633.508 255.917C627.936 258.504 622.851 260.729 622.208 260.863C621.359 261.04 620.158 246.217 617.814 206.607C616.039 176.632 614.444 148.761 614.269 144.671L613.95 137.234L624.432 132.438C630.198 129.799 635.398 127.633 635.989 127.624C636.579 127.615 644.242 134.47 653.018 142.857ZM1505.06 143.706C1534.54 152.731 1552.04 176.742 1548.36 203.107C1546.22 218.427 1538.69 233.92 1527.72 245.607C1510.55 263.89 1488.8 267.565 1464.92 256.219C1447.35 247.874 1436.07 234.494 1432.54 217.808C1430.17 206.618 1432.32 193.819 1438.86 180.107C1444.13 169.077 1447.52 164.042 1454.52 156.908C1467.95 143.206 1487.09 138.206 1505.06 143.706ZM636.436 160.119C636.447 161.762 637.116 170.757 637.922 180.107C638.729 189.457 639.395 198.168 639.402 199.465C639.419 202.579 640.838 202.194 656.292 194.877L668.479 189.107L652.447 173.119C637.588 158.3 636.416 157.349 636.436 160.119ZM1486.21 163.954C1476.64 166.642 1468.43 174.678 1461.8 187.843C1454.57 202.193 1453.61 214.689 1458.99 224.562C1466.74 238.81 1484.38 245.009 1498.42 238.42C1507.82 234.004 1516.12 223.968 1522.02 209.882C1524.45 204.083 1524.86 201.739 1524.89 193.607C1524.91 185.047 1524.65 183.651 1522.2 179.494C1514.99 167.224 1499.06 160.345 1486.21 163.954ZM549.867 196.58C546.381 213.341 543.615 227.12 543.722 227.202C543.828 227.283 560.902 235.13 581.665 244.639C602.428 254.148 619.395 262.193 619.37 262.518C619.345 262.842 613.792 266.584 607.029 270.834L594.733 278.562L566.825 264.141C543.356 252.014 538.823 249.989 538.324 251.414C537.997 252.345 536.673 258.329 535.38 264.711L533.03 276.315L542.328 291.022C547.441 299.112 551.465 305.836 551.27 305.965C551.075 306.094 546.714 308.824 541.58 312.032C533.745 316.928 532.04 317.644 530.967 316.486C529.565 314.974 471.44 222.835 470.745 221.024C470.378 220.067 489.299 206.997 489.867 207.815C489.978 207.976 496.093 217.649 503.455 229.31C510.818 240.972 516.95 250.406 517.082 250.274C517.214 250.142 520.071 234.975 523.43 216.57C526.79 198.165 529.93 182.71 530.409 182.226C531.47 181.149 555.817 165.667 556.043 165.924C556.132 166.025 553.353 179.82 549.867 196.58ZM1127.42 189.482C1210.01 197.193 1281.72 213.395 1355.92 241.108C1437.27 271.494 1511.35 312.747 1581.92 366.964C1653.06 421.624 1719.38 492.311 1770.63 568.107C1846.65 680.519 1894.21 807.008 1911.84 943.607C1916.89 982.701 1917.85 999.549 1917.88 1049.61C1917.92 1100.3 1917.4 1110.92 1912.84 1152.78C1902.35 1249.08 1872.73 1349.18 1828.77 1436.95C1787.81 1518.71 1741.75 1584.43 1679.24 1650.34C1624.13 1708.44 1563.14 1756.83 1490.92 1799.77C1420.29 1841.75 1338.51 1874.91 1257.13 1894.57C1160.32 1917.95 1056.41 1924.56 957.415 1913.63C869.138 1903.88 792.292 1883.56 707.915 1847.64C618.558 1809.61 525.811 1748.15 456.245 1680.87C391.047 1617.81 346.493 1561.51 302.909 1487.11C293.036 1470.25 274.165 1434.19 265.823 1416.23C227.868 1334.53 201.647 1240.99 191.975 1152.78C187.461 1111.62 186.945 1101.16 186.94 1050.61C186.936 1001.02 187.381 992.34 191.995 952.107C203.938 847.982 235.204 745.748 283.071 654.308C333.635 557.717 394.013 480.008 475.915 406.107C494.705 389.153 510.13 376.569 533.769 358.906C602.975 307.199 672.422 269.399 753.142 239.502C826.065 212.493 902.904 195.619 982.415 189.153C1010.25 186.889 1012.19 186.841 1061.42 187.174C1096.29 187.41 1110.57 187.909 1127.42 189.482ZM1611.25 205.951C1618.04 210.874 1623.8 215.454 1624.06 216.13C1624.32 216.805 1618.18 233.885 1610.41 254.085C1602.64 274.285 1596.43 290.943 1596.6 291.1C1596.77 291.258 1610.82 279.976 1627.81 266.029C1646.68 250.539 1659.17 240.95 1659.9 241.389C1660.55 241.784 1667.01 246.345 1674.26 251.526C1686.17 260.038 1687.31 261.12 1686.18 262.772C1674.28 280.023 1619.68 354.474 1619.06 354.29C1617.02 353.688 1602.49 343.01 1602.48 342.107C1602.48 341.557 1613.08 326.482 1626.04 308.607C1639 290.732 1650.55 274.788 1651.71 273.176C1652.92 271.491 1653.19 270.624 1652.36 271.134C1650.83 272.078 1600.2 314.253 1589.69 323.348C1585.5 326.968 1583.03 328.467 1582.13 327.92C1581.4 327.473 1577.31 324.639 1573.04 321.623C1566.95 317.325 1565.36 315.703 1565.7 314.123C1565.93 313.014 1573.41 293.94 1582.32 271.736C1591.22 249.533 1598.37 231.234 1598.21 231.072C1598.05 230.91 1586.44 246.693 1572.42 266.145C1558.39 285.597 1546.58 301.533 1546.18 301.559C1545.45 301.607 1530.12 290.649 1529.33 289.512C1529.1 289.185 1534.74 280.86 1541.85 271.012C1586.34 209.409 1596.65 195.632 1597.74 196.292C1598.39 196.681 1604.47 201.027 1611.25 205.951ZM428.048 307.674C473.412 356.018 477.415 360.333 477.415 360.881C477.415 361.789 463.297 375.107 462.335 375.107C461.838 375.107 448.115 360.932 431.838 343.607C415.561 326.282 401.772 311.657 401.196 311.107C400.62 310.557 401.289 312.132 402.683 314.607C404.076 317.082 414.304 335.458 425.411 355.442L445.606 391.776L437.862 398.942C433.603 402.883 429.731 406.258 429.258 406.443C428.785 406.628 412.089 396.324 392.156 383.545C372.224 370.766 354.79 359.621 353.415 358.777C350.557 357.025 348.412 354.659 385.804 394.49L412.449 422.873L404.682 430.132C398.464 435.943 396.633 437.162 395.499 436.249C394.72 435.621 376.747 416.696 355.559 394.193L317.035 353.279L329.475 341.48C336.317 334.991 342.227 329.665 342.608 329.644C343.303 329.607 406.802 368.909 409.189 370.854C409.89 371.426 410.657 371.698 410.894 371.462C411.13 371.225 402.789 355.315 392.357 336.106C381.926 316.897 373.508 300.873 373.653 300.498C373.797 300.122 379.486 294.552 386.296 288.119C398.23 276.846 398.739 276.49 400.428 278.265C401.392 279.278 413.821 292.512 428.048 307.674ZM1720.83 288.781C1724.73 292.177 1728.57 295.549 1729.37 296.275C1730.63 297.415 1730.35 298.109 1727.27 301.351C1725.31 303.417 1715.23 315.007 1704.86 327.107C1672.88 364.435 1655.31 384.607 1654.78 384.607C1654.08 384.607 1637.42 370.367 1637.42 369.766C1637.42 369.499 1640.03 366.316 1643.22 362.693C1646.42 359.071 1661.79 341.257 1677.38 323.107C1705.34 290.542 1712.38 282.607 1713.28 282.607C1713.54 282.607 1716.93 285.385 1720.83 288.781ZM1774.82 340.026C1799.77 366.762 1803.44 372.934 1803.39 388.039C1803.34 401.684 1797.12 414.453 1783.88 428.089C1768.76 443.673 1753.7 451.173 1737.81 451.034C1730.62 450.972 1728.8 450.541 1721.81 447.261C1714.47 443.817 1712.6 442.21 1695.09 424.332C1684.74 413.758 1675.41 403.918 1674.35 402.466L1672.43 399.824L1694.65 378.966C1706.87 367.493 1725.82 349.646 1736.75 339.304C1747.69 328.962 1756.76 320.637 1756.9 320.804C1757.04 320.971 1765.1 329.621 1774.82 340.026ZM861.198 354.357C855.972 367.59 852.337 379.856 849.716 393.107C847.385 404.892 847.313 443.106 849.599 454.607L851.09 462.107L851.789 455.107C853.698 435.995 858.187 415.678 863.388 402.607C865.991 396.066 871.74 385.04 874.246 381.784L876.034 379.46L887.163 387.427C914.425 406.943 943.016 433.849 962.797 458.607C974.047 472.687 990.698 497.103 998.873 511.505C1011.8 534.276 1027.12 568.413 1037.07 596.607C1041.38 608.81 1040.7 603.744 1034.8 579.673C1027.58 550.191 1016.17 517.84 1003.58 491.107C983.297 448.071 961.887 417.002 933.258 389.062C919.195 375.337 911.054 368.629 897.183 359.333C888.148 353.279 868.708 342.607 866.713 342.607C866.232 342.607 863.751 347.895 861.198 354.357ZM1226.92 347.935C1215.09 354.184 1210.32 357.126 1200.92 363.962C1176.95 381.384 1153.98 404.961 1135.97 430.607C1107.09 471.735 1083.79 524.333 1070.06 579.336C1064.09 603.273 1063.32 609.12 1067.78 596.607C1083.45 552.639 1098.94 520.915 1120.99 487.607C1146.74 448.698 1179.1 415.151 1217.36 387.678L1228.8 379.462L1230.59 381.785C1234.26 386.538 1240.5 399.686 1243.89 409.839C1248.11 422.434 1250.82 435.288 1252.39 450.091C1253.03 456.132 1253.68 461.203 1253.84 461.36C1253.99 461.517 1254.75 457.474 1255.52 452.376C1256.38 446.643 1256.9 435.287 1256.87 422.607C1256.83 400.759 1255.84 393.034 1250.8 375.107C1247.51 363.39 1239.28 342.601 1237.95 342.628C1237.38 342.64 1232.42 345.028 1226.92 347.935ZM1730.12 377.77L1702.33 403.889L1711.12 412.998C1728.26 430.755 1733.71 432.727 1747.21 426.065C1753.41 423.004 1756.98 420.197 1765.51 411.684C1777.93 399.287 1780.87 394.196 1780.89 385.107C1780.91 380.391 1780.34 378.134 1778.24 374.562C1775.72 370.277 1760.27 352.371 1758.66 351.879C1758.25 351.754 1745.41 363.405 1730.12 377.77ZM311.699 401.181C323.851 404.33 335.764 411.979 347.096 423.908C366.077 443.89 368.347 468.59 353.274 491.125C336.107 516.793 309.965 525.162 284.035 513.292C270.588 507.134 255.644 493.663 248.636 481.38C242.231 470.154 240.596 453.595 244.702 441.549C251.086 422.823 268.181 405.781 285.327 401.052C291.804 399.266 304.546 399.327 311.699 401.181ZM289.149 422.666C280.243 424.833 271.96 431.703 267.336 440.758C264 447.29 263.649 456.584 266.453 464.107C269.675 472.75 282.732 485.587 293.915 491.108C301.197 494.703 302.633 495.059 309.915 495.074C319.525 495.094 324.851 492.99 331.104 486.705C337.491 480.284 340.415 473.609 340.415 465.448C340.415 454.483 337.646 448.65 327.839 438.949C314.98 426.23 300.151 419.989 289.149 422.666ZM1872.65 454.357C1876.16 459.17 1879.38 463.677 1879.8 464.374C1880.28 465.173 1868.47 484.749 1847.84 517.375C1829.85 545.828 1814.81 569.472 1814.41 569.918C1813.76 570.651 1800.95 554.156 1799.76 551.051C1799.48 550.338 1802.64 544.573 1806.77 538.237L1814.28 526.721L1801.1 508.217C1793.85 498.039 1787.33 489.689 1786.62 489.66C1785.91 489.632 1779.69 491.224 1772.8 493.2C1765.91 495.176 1760.15 496.638 1760 496.45C1754.52 489.534 1746.36 477.324 1746.88 476.807C1747.54 476.143 1862.62 445.844 1865.09 445.683C1865.73 445.641 1869.13 449.545 1872.65 454.357ZM708.929 460.235C729.864 484.238 739.042 502.395 744.924 531.438C746.322 538.343 747.613 544.138 747.792 544.318C747.971 544.497 748.949 540.923 749.965 536.375C752.861 523.409 752.329 503.921 748.761 492.198C748.202 490.363 748.715 490.314 762.047 490.923C792.9 492.332 824.542 499.852 861.915 514.657C877.634 520.884 913.252 538.926 931.601 549.956C963.106 568.893 1002.68 597.456 1029.17 620.37C1032.6 623.344 1035.42 625.525 1035.42 625.217C1035.42 624.003 1022.29 609.374 1008.96 595.728C932.378 517.328 829.081 468.443 707.494 453.058L702.072 452.372L708.929 460.235ZM1381.5 455.219C1284.41 469.671 1197.65 507.607 1127.07 566.461C1110.26 580.474 1069.42 622.005 1069.42 625.077C1069.42 625.443 1073.35 622.417 1078.17 618.352C1156.98 551.774 1239.42 507.783 1309.92 494.688C1330.67 490.833 1357.16 489.225 1356.14 491.883C1352.63 501.033 1351.97 523.607 1354.85 536.375C1355.87 540.923 1356.86 544.495 1357.04 544.313C1357.22 544.132 1358.49 538.386 1359.85 531.545C1365.56 502.845 1374.94 484.268 1395.8 460.352C1403.72 451.27 1404.98 451.724 1381.5 455.219ZM1827.92 477.558C1816.92 480.706 1808.06 483.693 1808.23 484.195C1808.72 485.59 1824.4 507.478 1825.32 508.05C1825.77 508.326 1830.85 501.477 1836.6 492.83C1851.79 470.006 1850.84 471.591 1849.28 471.721C1848.53 471.784 1838.92 474.41 1827.92 477.558ZM296.966 544.224L305.189 548.839L299.994 557.974C288.653 577.914 265.069 619.128 264.804 619.47C264.324 620.089 165.418 563.159 165.417 562.264C165.415 561.144 175.773 542.656 176.415 542.633C176.69 542.623 195.365 553.175 217.915 566.081C250.406 584.677 259.123 589.266 259.915 588.193C260.465 587.448 266.983 576.21 274.399 563.222C281.816 550.234 288.077 539.607 288.314 539.607C288.55 539.607 292.444 541.685 296.966 544.224ZM1911.88 543.685C1928.76 546.806 1941.92 557.479 1950.78 575.242C1956.81 587.331 1957.8 591.159 1957.84 602.607C1957.87 612.107 1957.61 613.653 1955.09 618.823C1951.81 625.541 1944.29 634.267 1942.65 633.253C1942.03 632.87 1938.58 628.74 1934.98 624.077L1928.43 615.6L1931.86 611.108C1939.85 600.65 1936.83 584.67 1924.8 573.673C1912.73 562.643 1897.09 563.121 1877.86 575.107C1859.02 586.854 1853.42 602.755 1861.97 620.285C1864.7 625.882 1874.54 635.747 1880 638.349C1883.13 639.841 1883.53 639.787 1888.83 637.195C1891.88 635.701 1894.66 634.021 1895.01 633.461C1895.35 632.901 1893.11 627.584 1890.03 621.646C1886.94 615.708 1884.42 610.445 1884.42 609.951C1884.42 609.457 1888.23 607.159 1892.9 604.844L1901.39 600.635L1903.52 604.871C1904.69 607.201 1909.89 617.28 1915.07 627.269L1924.48 645.43L1903.85 656.128L1883.22 666.824L1879.09 664.965C1876.82 663.943 1872.45 661.258 1869.38 658.998C1847 642.539 1834.31 616.712 1837.48 594.107C1841.77 563.449 1879.71 537.738 1911.88 543.685ZM773.794 568.605C733.596 570.998 690.433 578.438 654.915 589.096C640.343 593.469 619.484 601.192 614.415 604.09C612.112 605.407 612.427 605.474 618.415 604.943C627.479 604.139 649.681 606.164 663.659 609.069C692.428 615.049 721.78 628.039 733.894 640.154C735.794 642.054 737.639 643.607 737.993 643.607C738.348 643.607 742.809 642.045 747.906 640.136C819.289 613.4 919.641 611.708 1010.3 635.714C1018.89 637.987 1027.04 640.079 1028.42 640.363L1030.92 640.878L1028.42 638.93C996.095 613.739 947.172 590.951 901.253 579.703C864.057 570.591 813.857 566.22 773.794 568.605ZM1279.42 568.699C1211.41 572.725 1149.89 591.384 1099.21 623.355C1087.5 630.741 1075.01 639.56 1075.57 640.051C1075.76 640.222 1086.27 637.763 1098.92 634.587C1137.88 624.805 1172.26 620.022 1211.42 618.935C1263.4 617.492 1317.44 625.346 1356.72 640.06C1361.93 642.012 1366.48 643.607 1366.84 643.607C1367.19 643.607 1369.04 642.054 1370.94 640.154C1382.56 628.526 1408.07 616.846 1436.42 610.164C1451.46 606.617 1462.96 605.265 1478.79 605.181L1492.66 605.107L1485.79 601.972C1470.68 595.08 1444.46 586.818 1419.71 581.152C1373.28 570.519 1323.42 566.095 1279.42 568.699ZM171.116 604.639C179.115 606.36 179.049 606.083 174.242 617.841L169.936 628.375L164.425 627.928C157.254 627.347 152.963 629.54 148.656 635.983C139.653 649.454 140.975 664.062 151.197 664.062C156.621 664.062 159.702 661.444 172.79 645.715C179.142 638.081 186.12 630.424 188.298 628.701C200.501 619.034 215.369 618.331 228.662 626.792C234.314 630.388 237.588 634.099 241.196 641C243.583 645.565 243.863 647.169 243.828 656.107C243.795 664.524 243.348 667.294 241.004 673.607C235.094 689.521 226.189 701.691 216.663 706.875C209.55 710.747 199.713 712.207 190.889 710.701C187.025 710.042 183.346 709.182 182.714 708.792C181.897 708.287 182.555 705.239 184.991 698.246C186.876 692.837 188.626 688.074 188.881 687.662C189.135 687.25 191.497 687.253 194.129 687.667C205.597 689.475 214.636 684.122 219.983 672.354C226.111 658.87 222.248 646.731 211.271 644.982C206.248 644.18 201.292 648.146 189.287 662.568C172.724 682.466 163.601 688.323 150.729 687.327C134.301 686.054 122.415 673.021 122.415 656.28C122.415 642.4 129.771 625.305 140.397 614.487C145.936 608.847 147.935 607.51 153.427 605.772C160.874 603.416 164.383 603.191 171.116 604.639ZM790.415 646.272C744.61 648.24 713.406 651.496 686.415 657.121C674.614 659.581 664.845 662.332 667.29 662.508C668.046 662.563 671.421 663.844 674.79 665.357L680.915 668.107L660.086 668.607L639.258 669.107L635.836 672.842C633.115 675.813 632.415 677.409 632.415 680.642C632.415 682.877 633.098 686.026 633.932 687.641C637.25 694.057 622.143 693.607 834.798 693.607H1028.28L1024.71 688.357C1022.75 685.469 1019.59 679.861 1017.68 675.894C1014.39 669.009 1013.98 668.591 1008.87 666.674C973.771 653.544 900.96 645.336 823.915 645.823C809.065 645.917 793.99 646.118 790.415 646.272ZM1229.42 646.612C1171.21 649.43 1122.47 656.756 1095.97 666.674C1090.85 668.591 1090.45 669.009 1087.15 675.894C1085.25 679.861 1082.08 685.469 1080.12 688.357L1076.55 693.607H1270.03C1482.69 693.607 1467.58 694.057 1470.9 687.641C1473.12 683.352 1472.83 677.403 1470.25 674.121C1466.41 669.247 1463.22 668.607 1442.73 668.607C1422.32 668.607 1421.58 668.236 1433.3 663.907L1438.68 661.919L1428.3 659.324C1408.38 654.344 1375.89 649.911 1342.42 647.607C1321.64 646.177 1251.21 645.557 1229.42 646.612ZM1016.02 655.76C1018.91 665.677 1024.18 677.48 1028.85 684.516C1036.12 695.445 1043.76 700.614 1052.62 700.599C1066.28 700.573 1078.51 686.263 1087.35 659.979C1088.98 655.133 1090.2 651.057 1090.07 650.923C1089.93 650.79 1087.82 651.284 1085.36 652.022C1068.69 657.041 1030.31 656.517 1016.19 651.077C1014.57 650.453 1014.56 650.742 1016.02 655.76ZM1988.82 662.126C1990.96 667.906 1992.46 672.898 1992.14 673.22C1991.28 674.076 1885.24 714.767 1884.86 714.386C1884.22 713.747 1876.44 693.252 1876.72 692.965C1877.24 692.451 1982.87 651.786 1983.92 651.699C1984.47 651.654 1986.67 656.345 1988.82 662.126ZM155.165 720.69C185.002 730.636 209.415 739.19 209.415 739.699C209.415 742.25 202.876 760.607 201.967 760.607C201.388 760.607 176.55 752.485 146.769 742.558L92.6234 724.51L96.2414 713.558C98.2314 707.535 100.097 702.607 100.387 702.607C100.677 702.607 125.327 710.745 155.165 720.69ZM898.415 789.622C898.415 790.73 894.281 797.93 889.229 805.622L880.043 819.607H869.229H858.415L858.295 832.857C858.229 840.146 858.136 855.896 858.089 867.857L858.004 889.607H848.709H839.415V870.607C839.415 858.607 839.047 851.607 838.415 851.607C837.783 851.607 837.415 858.607 837.415 870.607C837.415 882.607 837.047 889.607 836.415 889.607C835.784 889.607 835.415 882.69 835.415 870.857V852.107H777.915H720.415V870.857C720.415 882.69 720.046 889.607 719.415 889.607C718.784 889.607 718.415 882.69 718.415 870.857V852.107H660.415H602.415V870.857C602.415 882.69 602.046 889.607 601.415 889.607C600.784 889.607 600.415 882.69 600.415 870.857V852.107H542.915H485.415V870.857C485.415 882.69 485.046 889.607 484.415 889.607C483.784 889.607 483.415 882.69 483.415 870.857V852.107H425.436H367.456L367.163 871.107L366.869 890.107L366.642 871.107L366.415 852.107H308.415H250.415V1084.86V1317.61H1052.42H1854.42V1084.86V852.107H1796.42H1738.42V871.024C1738.42 881.428 1738.21 889.732 1737.95 889.478C1737.7 889.223 1737.44 880.711 1737.37 870.561L1737.26 852.107H1679.34H1621.42V870.857C1621.42 882.69 1621.05 889.607 1620.42 889.607C1619.78 889.607 1619.42 882.69 1619.42 870.857V852.107H1561.44H1503.46L1503.16 871.107L1502.87 890.107L1502.64 871.107L1502.42 852.107H1444.42H1386.42V870.857C1386.42 882.69 1386.05 889.607 1385.42 889.607C1384.78 889.607 1384.42 882.69 1384.42 870.857V852.107L1326.83 852.349L1269.25 852.589L1269.37 871.099C1269.45 883.312 1269.14 889.607 1268.45 889.607C1267.77 889.607 1267.42 883.082 1267.42 870.607C1267.42 858.607 1267.05 851.607 1266.42 851.607C1265.78 851.607 1265.42 858.607 1265.42 870.607V889.607H1255.92H1246.42V854.607V819.607H1235.56H1224.7L1215.56 805.823C1210.53 798.242 1206.42 791.042 1206.42 789.823C1206.42 787.646 1206.19 787.607 1192.92 787.607H1179.42V799.107C1179.42 805.469 1179.83 810.607 1180.34 810.607C1181.54 810.607 1187.42 816.484 1187.42 817.685C1187.42 818.193 1182.47 818.607 1176.42 818.607C1163.94 818.607 1162.83 817.758 1168.92 812.901L1172.42 810.107V798.857V787.607H1158.92H1145.42V790.066C1145.42 791.463 1141.64 798.351 1136.67 806.014L1127.92 819.504L1114.37 819.555L1100.83 819.607L1091.62 805.655C1086.56 797.982 1082.42 790.782 1082.42 789.655C1082.42 787.692 1081.85 787.607 1068.92 787.607H1055.42V799.04C1055.42 809.544 1055.58 810.523 1057.39 811.099C1059.4 811.737 1063.42 816.167 1063.42 817.742C1063.42 818.219 1058.47 818.607 1052.42 818.607C1044.89 818.607 1041.42 818.249 1041.42 817.475C1041.42 816.853 1042.99 814.858 1044.92 813.042L1048.42 809.741V798.646V787.549L1035.17 787.828L1021.92 788.107L1021.6 790.607C1021.42 791.982 1017.37 799.06 1012.6 806.337L1003.92 819.566H990.415H976.915L968.235 806.337C963.461 799.06 959.411 791.982 959.235 790.607L958.915 788.107L945.665 787.828L932.415 787.549V798.828V810.107L935.915 812.901C942.003 817.758 940.887 818.607 928.415 818.607C922.365 818.607 917.415 818.219 917.415 817.742C917.415 816.167 921.434 811.737 923.441 811.099C925.255 810.523 925.415 809.544 925.415 799.04V787.607H911.915C899.049 787.607 898.415 787.703 898.415 789.622ZM970.883 813.188L980.454 827.768L980.184 849.438L979.915 871.107L970.165 856.612L960.415 842.118V820.362C960.415 808.397 960.617 798.607 960.864 798.607C961.111 798.607 965.62 805.168 970.883 813.188ZM1094.22 812.469L1103.23 826.331L1103.43 847.719C1103.54 859.482 1103.58 869.482 1103.52 869.94C1103.46 870.398 1099.15 864.323 1093.93 856.44L1084.44 842.107L1084.43 820.357C1084.42 808.396 1084.59 798.607 1084.81 798.607C1085.03 798.607 1089.27 804.845 1094.22 812.469ZM1227.42 848.836V871.096L1217.92 856.867L1208.42 842.638V820.378V798.118L1217.92 812.347L1227.42 826.576V848.836ZM875.03 824.073C873.638 826.198 873.422 830.37 873.467 854.323C873.513 878.469 873.704 881.845 874.924 880.107C879.668 873.349 879.349 863.876 879.383 1012.36L879.415 1150.61H869.415H859.415V986.107V821.607H868.03H876.645L875.03 824.073ZM998.972 823.831C997.649 825.718 997.423 830.273 997.467 854.081C997.513 878.435 997.704 881.845 998.924 880.107C1003.67 873.349 1003.35 863.876 1003.38 1012.36L1003.42 1150.61H993.415H983.415V986.107V821.607H991.972H1000.53L998.972 823.831ZM1122.97 823.831C1121.65 825.714 1121.42 830.326 1121.42 854.081L1121.42 882.107L1124.42 877.607L1127.41 873.107L1127.41 1011.86L1127.42 1150.61H1117.42H1107.42V986.107V821.607H1115.97H1124.53L1122.97 823.831ZM938.415 866.107V900.607H928.915H919.415V866.107V831.607H928.915H938.415V866.107ZM1061.42 866.107V900.607H1051.92H1042.42V866.107V831.607H1051.92H1061.42V866.107ZM1185.42 866.107V900.607H1175.92H1166.42V866.107V831.607H1175.92H1185.42V866.107ZM907.415 871.607C907.415 899.94 907.369 900.607 905.415 900.607C903.555 900.607 903.415 899.94 903.415 891.107C903.415 879.956 904.221 880.378 890.915 884.544L881.915 887.362L881.631 877.531L881.346 867.699L889.631 855.178L897.915 842.657L902.665 842.633L907.415 842.607V871.607ZM967.337 855.048L975.486 867.49L975.201 877.47L974.915 887.451L965.915 884.542C960.965 882.94 956.353 881.627 955.665 881.62C954.752 881.611 954.415 884.167 954.415 891.107C954.415 900.574 954.406 900.607 951.915 900.607H949.415V872.274C949.415 856.69 949.715 843.641 950.082 843.274C950.448 842.907 952.647 842.607 954.968 842.607H959.188L967.337 855.048ZM1030.92 871.607V900.107L1028.67 900.427C1026.46 900.74 1026.42 900.534 1026.42 891.052V881.357L1023.67 881.959C1022.15 882.29 1017.43 883.661 1013.17 885.006L1005.42 887.452V877.49V867.526L1013.59 855.019L1021.77 842.513L1026.34 842.81L1030.92 843.107V871.607ZM1091.2 855.178L1099.48 867.699L1099.2 877.531L1098.92 887.362L1089.92 884.544C1076.61 880.378 1077.42 879.956 1077.42 891.107C1077.42 899.94 1077.28 900.607 1075.42 900.607C1073.46 900.607 1073.42 899.94 1073.42 871.607V842.607L1078.17 842.633L1082.92 842.657L1091.2 855.178ZM1154.42 871.607C1154.42 899.94 1154.37 900.607 1152.42 900.607C1150.55 900.607 1150.42 899.94 1150.42 890.72V880.833L1139.92 884.13L1129.42 887.426L1129.29 880.766C1129.22 877.104 1129.08 872.779 1128.99 871.154C1128.86 868.961 1130.99 864.898 1137.24 855.404L1145.66 842.607H1150.04H1154.42V871.607ZM1214.9 855.352L1223.42 868.095V877.852C1223.42 883.218 1223.3 887.6 1223.17 887.59C1223.03 887.581 1218.08 886.047 1212.17 884.181L1201.42 880.789V890.698C1201.42 899.94 1201.28 900.607 1199.42 900.607C1197.46 900.607 1197.42 899.94 1197.42 871.607V842.607H1201.9H1206.39L1214.9 855.352ZM966.162 886.355L975.409 889.107L975.412 913.571C975.415 934.077 975.198 937.799 974.075 936.571C973.339 935.766 968.839 930.083 964.075 923.94L955.415 912.773V898.19C955.415 890.169 955.752 883.606 956.165 883.605C956.578 883.603 961.076 884.841 966.162 886.355ZM1092.28 887.055L1098.92 889.292L1099.18 914.047L1099.45 938.802L1097.11 935.956C1095.82 934.388 1091.31 928.516 1087.09 922.905L1079.42 912.704V898.076V883.448L1082.53 884.133C1084.25 884.509 1088.63 885.825 1092.28 887.055ZM1214.42 886.465L1222.92 889.167L1223.18 913.388C1223.33 926.708 1223.11 937.592 1222.68 937.573C1222.26 937.555 1217.75 932.016 1212.67 925.266L1203.42 912.993V898.3C1203.42 887.171 1203.72 883.626 1204.67 883.685C1205.35 883.727 1209.74 884.978 1214.42 886.465ZM267.415 886.862C264.94 888.008 260.552 889.151 257.665 889.401C252.55 889.844 252.415 889.788 252.415 887.232V884.607L262.165 884.691L271.915 884.776L267.415 886.862ZM319.915 886.607C319.915 887.839 317.818 888.157 308.165 888.389C296.87 888.66 296.415 888.591 296.415 886.607C296.415 884.623 296.87 884.555 308.165 884.826C317.818 885.057 319.915 885.375 319.915 886.607ZM347.415 887.026L354.915 889.418L355.183 914.23C355.333 928.109 355.073 938.617 354.592 938.076C354.12 937.544 349.612 931.675 344.574 925.035L335.415 912.964V898.785C335.415 882.236 334.674 882.962 347.415 887.026ZM364.415 887.107C364.415 890.185 363.777 890.19 354.415 887.201L346.915 884.805L355.665 884.706C364.358 884.608 364.415 884.623 364.415 887.107ZM481.415 887.107V889.607H425.415H369.415V887.107V884.607H425.415H481.415V887.107ZM599.415 887.107V889.607H543.165H486.915V887.107V884.607H543.165H599.415V887.107ZM716.415 887.107V889.607H660.415H604.415V887.107V884.607H660.415H716.415V887.107ZM834.235 887.357L834.554 889.607H777.985H721.415V887.099V884.59L777.665 884.849L833.915 885.107L834.235 887.357ZM1382.42 887.107V889.607H1326.42H1270.42V887.107V884.607H1326.42H1382.42V887.107ZM1500.42 887.107V889.607H1444.42H1388.42V887.107V884.607H1444.42H1500.42V887.107ZM1617.42 887.107V889.607H1561.42H1505.42V887.107V884.607H1561.42H1617.42V887.107ZM1735.42 887.107V889.607H1679.42H1623.42V887.107V884.607H1679.42H1735.42V887.107ZM1760.33 885.019C1758.85 886.486 1748.19 889.607 1744.67 889.607C1740.8 889.607 1740.42 889.383 1740.42 887.107V884.607H1750.58C1756.17 884.607 1760.56 884.792 1760.33 885.019ZM1808.23 886.357C1807.93 887.902 1806.55 888.107 1796.42 888.107C1786.28 888.107 1784.9 887.902 1784.61 886.357C1784.3 884.768 1785.39 884.607 1796.42 884.607C1807.45 884.607 1808.53 884.768 1808.23 886.357ZM1834.81 886.701C1838.72 887.852 1842.26 889.12 1842.68 889.519C1843.11 889.918 1843.33 901.013 1843.18 914.176L1842.92 938.107L1833.17 925.445L1823.42 912.784V898.695C1823.42 882.336 1822.67 883.125 1834.81 886.701ZM1852.42 887.107C1852.42 890.185 1851.78 890.19 1842.42 887.201L1834.92 884.805L1843.67 884.706C1852.36 884.608 1852.42 884.623 1852.42 887.107ZM419.415 937.607V974.607H396.915H374.415V937.607V900.607H396.915H419.415V937.607ZM477.177 937.857L477.44 974.607H454.427H431.415V937.589V900.569L454.165 900.839L476.915 901.107L477.177 937.857ZM537.177 937.857L537.44 974.607H514.427H491.415V937.589V900.569L514.165 900.839L536.915 901.107L537.177 937.857ZM594.415 937.607V974.607H571.915H549.415V937.607V900.607H571.915H594.415V937.607ZM654.415 937.607V974.607H631.439H608.462L608.454 938.258C608.45 918.266 608.74 901.616 609.097 901.258C609.455 900.901 619.798 900.607 632.082 900.607H654.415V937.607ZM712.177 937.857L712.44 974.607H689.427H666.415V937.589V900.569L689.165 900.839L711.915 901.107L712.177 937.857ZM771.68 915.857C771.975 924.245 772.248 940.896 772.287 952.857L772.356 974.607H749.386H726.415V937.607V900.607H748.779H771.143L771.68 915.857ZM829.415 937.607V974.607H806.415H783.415V938.274C783.415 918.29 783.715 901.641 784.082 901.274C784.448 900.907 794.798 900.607 807.082 900.607H829.415V937.607ZM1320.42 937.607V974.607H1297.92H1275.42V937.607V900.607H1297.92H1320.42V937.607ZM1378.42 937.607V974.607H1355.42H1332.42V938.274C1332.42 918.29 1332.72 901.641 1333.08 901.274C1333.45 900.907 1343.8 900.607 1356.08 900.607H1378.42V937.607ZM1438.42 937.607V974.607H1415.42H1392.42V938.274C1392.42 918.29 1392.72 901.641 1393.08 901.274C1393.45 900.907 1403.8 900.607 1416.08 900.607H1438.42V937.607ZM1495.42 937.607V974.607H1472.92H1450.42V937.607V900.607H1472.92H1495.42V937.607ZM1555.42 937.607V974.607H1532.92H1510.42V937.607V900.607H1532.92H1555.42V937.607ZM1613.42 937.607V974.607H1590.42H1567.42V938.274C1567.42 918.29 1567.72 901.641 1568.08 901.274C1568.45 900.907 1578.8 900.607 1591.08 900.607H1613.42V937.607ZM1673.18 937.857L1673.44 974.607H1650.43H1627.42V937.589V900.569L1650.17 900.839L1672.92 901.107L1673.18 937.857ZM1730.42 937.607V974.607H1707.92H1685.42V937.607V900.607H1707.92H1730.42V937.607ZM311.415 910.607V913.607L322.665 913.651L333.915 913.693L337.73 918.641C339.829 921.362 341.285 924.01 340.966 924.526C340.337 925.544 274.415 925.903 274.415 924.889C274.415 924.56 276.27 921.888 278.537 918.949L282.658 913.607H293.537H304.415V910.607C304.415 907.845 304.693 907.607 307.915 907.607C311.137 907.607 311.415 907.845 311.415 910.607ZM907.415 910.607V913.607H916.415H925.415V910.607C925.415 907.94 925.748 907.607 928.415 907.607C931.082 907.607 931.415 907.94 931.415 910.607V913.607H940.415H949.415V910.607C949.415 908.074 949.804 907.607 951.915 907.607C954.034 907.607 954.415 908.072 954.415 910.651C954.415 912.651 955.785 915.508 958.415 918.991C960.615 921.905 962.415 924.586 962.415 924.948C962.415 925.31 947.115 925.607 928.415 925.607C909.715 925.607 894.415 925.349 894.415 925.031C894.415 924.714 896.44 921.823 898.915 918.607C901.57 915.156 903.415 911.703 903.415 910.183C903.415 908.274 903.933 907.607 905.415 907.607C906.971 907.607 907.415 908.274 907.415 910.607ZM1031.24 910.896L1031.56 913.683L1040.24 913.396C1048.88 913.109 1048.92 913.096 1049.23 910.357C1049.5 908.055 1050.03 907.607 1052.48 907.607C1055.07 907.607 1055.42 907.956 1055.42 910.607V913.607H1064.42H1073.42V910.607C1073.42 908.274 1073.86 907.607 1075.42 907.607C1076.92 907.607 1077.42 908.274 1077.42 910.295C1077.42 911.965 1079.12 915.151 1081.92 918.711C1084.39 921.862 1086.42 924.701 1086.42 925.023C1086.42 925.344 1071.12 925.607 1052.42 925.607C1033.72 925.607 1018.42 925.31 1018.42 924.948C1018.42 924.586 1020.22 921.905 1022.42 918.991C1025.09 915.448 1026.42 912.662 1026.42 910.581C1026.42 907.925 1026.75 907.516 1028.67 907.787C1030.29 908.018 1031.01 908.888 1031.24 910.896ZM1154.42 910.607V913.607H1163.42H1172.42V910.607C1172.42 907.845 1172.69 907.607 1175.92 907.607C1179.14 907.607 1179.42 907.845 1179.42 910.607V913.607H1188.42H1197.42V910.607C1197.42 908.274 1197.86 907.607 1199.42 907.607C1200.94 907.607 1201.42 908.274 1201.42 910.432C1201.42 912.266 1203.03 915.339 1206.02 919.182L1210.62 925.107L1193.58 925.38C1184.21 925.531 1168.64 925.531 1158.98 925.38L1141.42 925.107L1145.92 919.376C1148.99 915.461 1150.42 912.687 1150.42 910.626C1150.42 908.274 1150.86 907.607 1152.42 907.607C1153.97 907.607 1154.42 908.274 1154.42 910.607ZM1799.6 910.357L1799.92 913.107L1811.07 913.389L1822.22 913.672L1826.32 919.096C1828.57 922.081 1830.42 924.75 1830.42 925.029C1830.42 925.308 1815.12 925.539 1796.42 925.539C1777.72 925.539 1762.42 925.296 1762.42 924.998C1762.42 924.701 1764.32 922.015 1766.65 919.032L1770.89 913.607H1782.15H1793.42V910.607C1793.42 907.956 1793.76 907.607 1796.35 907.607C1798.81 907.607 1799.33 908.055 1799.6 910.357ZM2060.97 914.107C2061.34 916.581 2061.7 921.867 2061.78 925.854L2061.92 933.102L2055.42 933.759C2051.84 934.12 2026.27 936.749 1998.59 939.599C1970.9 942.45 1948 944.529 1947.69 944.219C1947.27 943.797 1944.52 921.872 1944.85 921.543C1945.02 921.375 2055.27 909.81 2057.6 909.716C2060.05 909.617 2060.35 910.018 2060.97 914.107ZM158.723 915.246C162.204 915.755 162.489 916.031 162.037 918.456C161.766 919.914 159.641 940.232 157.316 963.607C154.99 986.982 152.824 1006.38 152.501 1006.72C151.949 1007.3 134.295 1005.79 133.583 1005.1C133.401 1004.92 134.002 997.487 134.918 988.577C135.835 979.667 136.209 972.055 135.75 971.662C135.291 971.27 113.765 968.799 87.9154 966.172C62.0654 963.544 40.8274 961.315 40.7194 961.221C40.6114 961.127 41.0654 955.888 41.7274 949.578L42.9324 938.107L46.4234 938.339C48.3444 938.466 69.5724 940.602 93.5974 943.089C117.623 945.573 137.691 947.607 138.193 947.607C138.918 947.607 142.428 920.315 142.418 914.759C142.415 913.421 147.21 913.564 158.723 915.246ZM383.415 942.107V970.607H399.915H416.415V942.107V913.607H399.915H383.415V942.107ZM441.444 915.357C441.46 916.319 441.32 929.146 441.132 943.857L440.792 970.607H457.103H473.415V942.107V913.607H457.415C442.833 913.607 441.418 913.763 441.444 915.357ZM500.415 942.107V970.607H516.915H533.415V942.107V913.607H516.915H500.415V942.107ZM558.415 942.107V970.607H574.915H591.415V942.107V913.607H574.915H558.415V942.107ZM618.415 942.107V970.607H634.915H651.415V942.107V913.607H634.915H618.415V942.107ZM675.415 942.107V970.607H691.915H708.415V942.107V913.607H691.915H675.415V942.107ZM735.415 942.107V970.607H751.915H768.415V942.107V913.607H751.915H735.415V942.107ZM793.415 942.107V970.607H809.915H826.415V942.107V913.607H809.915H793.415V942.107ZM1284.42 942.107V970.607H1300.92H1317.42V942.107V913.607H1300.92H1284.42V942.107ZM1342.42 942.107V970.607H1358.92H1375.42V942.107V913.607H1358.92H1342.42V942.107ZM1402.42 942.107V970.607H1418.92H1435.42V942.107V913.607H1418.92H1402.42V942.107ZM1459.42 942.107V970.607H1475.92H1492.42V942.107V913.607H1475.92H1459.42V942.107ZM1519.42 942.107V970.607H1535.92H1552.42V942.107V913.607H1535.92H1519.42V942.107ZM1577.42 942.107V970.607H1593.92H1610.42V942.107V913.607H1593.92H1577.42V942.107ZM1637.42 942.107V970.607L1653.67 970.608H1669.92V942.109V913.609L1653.67 913.608L1637.42 913.607V942.107ZM1694.42 942.107V970.607H1710.92H1727.42V942.107V913.607H1710.92H1694.42V942.107ZM344.989 927.926C345.046 928.025 347.415 931.212 350.254 935.006L355.415 941.905V951.756C355.415 957.577 355.011 961.607 354.427 961.607C353.884 961.607 349.224 960.258 344.074 958.607C337.15 956.389 332.78 955.607 327.312 955.607L319.915 955.605V965.357V975.107L308.165 975.389L296.415 975.67V965.639V955.607H289.116C283.794 955.607 279.256 956.415 272.366 958.589C267.168 960.23 262.578 961.581 262.165 961.589C261.752 961.599 261.415 957.035 261.415 951.446V941.285L266.766 934.175L272.118 927.065L308.502 927.405C328.513 927.592 344.932 927.826 344.989 927.926ZM1837.95 934.157L1843.37 941.107L1843.39 951.357C1843.41 956.995 1843.08 961.602 1842.67 961.596C1842.25 961.591 1837.64 960.245 1832.42 958.607C1825.57 956.461 1820.89 955.626 1815.67 955.618L1808.42 955.607V965.639V975.67L1796.67 975.389L1784.92 975.107L1784.63 965.357L1784.34 955.607L1777.13 955.618C1771.94 955.626 1767.24 956.467 1760.42 958.607C1755.19 960.245 1750.58 961.591 1750.17 961.596C1749.75 961.602 1749.42 957.059 1749.42 951.5V941.391L1754.64 934.75C1757.52 931.096 1760.18 927.883 1760.55 927.607C1760.93 927.332 1777.28 927.129 1796.88 927.157L1832.53 927.206L1837.95 934.157ZM970.219 934.443L975.415 941.276V951.443C975.415 957.034 975.078 961.602 974.665 961.596C974.252 961.591 969.64 960.245 964.415 958.607C957.568 956.461 952.891 955.626 947.665 955.618L940.415 955.607V965.639V975.67L928.665 975.389L916.915 975.107L916.629 965.357L916.343 955.607L909.129 955.618C903.943 955.626 899.244 956.467 892.415 958.607C887.19 960.245 882.578 961.591 882.165 961.596C881.752 961.602 881.415 957.099 881.415 951.589V941.569L886.639 934.589L891.863 927.607H928.443H965.023L970.219 934.443ZM1094.17 934.561L1099.42 941.449V951.529C1099.42 957.072 1099.06 961.607 1098.62 961.607C1098.18 961.607 1093.56 960.266 1088.37 958.625C1081.57 956.48 1076.89 955.638 1071.7 955.625L1064.49 955.607L1064.2 965.357L1063.92 975.107L1052.17 975.389L1040.42 975.67V965.639V955.607L1033.17 955.618C1027.94 955.626 1023.26 956.461 1016.42 958.607C1011.19 960.245 1006.58 961.591 1006.17 961.596C1005.75 961.602 1005.42 956.971 1005.42 951.305V941.003L1010.56 934.305L1015.7 927.607L1052.31 927.641L1088.92 927.674L1094.17 934.561ZM1218.17 934.832L1223.42 941.988V951.798C1223.42 957.193 1223.06 961.607 1222.62 961.607C1222.18 961.607 1217.56 960.266 1212.37 958.625C1205.31 956.399 1200.95 955.638 1195.17 955.625L1187.42 955.607V965.607V975.607H1175.92H1164.42V965.607V955.607H1156.93C1151.36 955.607 1147.04 956.375 1140.07 958.607C1134.92 960.258 1130.42 961.607 1130.06 961.607C1129.71 961.607 1129.42 956.949 1129.42 951.256V940.905L1134.45 934.256L1139.48 927.607L1176.2 927.641L1212.92 927.675L1218.17 934.832ZM1966.83 956.857C1967.09 958.094 1967.76 965.586 1968.33 973.505C1968.91 981.424 1969.59 988.119 1969.86 988.384C1970.3 988.827 2048.31 983.285 2060.07 981.975C2066.21 981.291 2065.98 980.84 2066.9 995.125L2067.54 1005.14L2019.91 1008.78C1993.71 1010.78 1972.03 1012.66 1971.74 1012.95C1971.45 1013.24 1971.78 1020.71 1972.47 1029.55C1973.17 1038.39 1973.44 1045.91 1973.08 1046.28C1972.35 1047.01 1955.16 1048.58 1954.49 1047.98C1953.71 1047.27 1947.22 957.474 1947.9 956.787C1948.27 956.413 1951.8 955.842 1955.75 955.519C1959.69 955.195 1963.69 954.858 1964.65 954.769C1965.71 954.669 1966.55 955.474 1966.83 956.857ZM346.902 961.189L355.415 963.844V988.439C355.415 1009.32 355.208 1012.81 354.044 1011.57C353.29 1010.77 348.79 1005 344.044 998.756L335.415 987.406V972.399C335.415 959.529 335.627 957.474 336.902 957.964C337.72 958.279 342.22 959.729 346.902 961.189ZM966.905 961.133L975.415 963.728V988.245V1012.76L973.1 1009.93C971.827 1008.38 967.327 1002.58 963.1 997.052L955.415 986.996V972.195C955.415 959.492 955.626 957.474 956.905 957.965C957.725 958.279 962.225 959.706 966.905 961.133ZM1090.9 961.189L1099.42 963.844V988.425C1099.42 1002.67 1099.04 1012.61 1098.53 1012.06C1098.05 1011.54 1093.55 1005.78 1088.53 999.276L1079.42 987.443V972.418C1079.42 959.531 1079.63 957.474 1080.9 957.964C1081.72 958.279 1086.22 959.729 1090.9 961.189ZM1221.17 963.222L1223.42 963.824V988.215C1223.42 1001.63 1223.25 1012.61 1223.05 1012.61C1222.84 1012.61 1218.34 1007 1213.05 1000.15L1203.42 987.69V972.727V957.763L1211.17 960.191C1215.43 961.527 1219.93 962.891 1221.17 963.222ZM1834.91 961.133L1843.42 963.728V988.368C1843.42 1001.99 1843.04 1012.58 1842.56 1012.06C1842.1 1011.54 1837.6 1005.69 1832.56 999.066L1823.42 987.024V972.209C1823.42 959.493 1823.63 957.474 1824.91 957.965C1825.73 958.279 1830.23 959.706 1834.91 961.133ZM311.415 984.607V987.607L322.665 987.641L333.915 987.672L338.083 993.391L342.252 999.107L308.68 999.37C290.216 999.516 274.905 999.43 274.656 999.181C274.407 998.932 276.157 996.226 278.546 993.168L282.889 987.607H293.652C304.261 987.607 304.415 987.574 304.415 985.274C304.415 982.245 305.14 981.607 308.582 981.607C311.063 981.607 311.415 981.98 311.415 984.607ZM931.415 984.607V987.607H942.723H954.031L958.253 993.357L962.475 999.107L945.445 999.381C936.079 999.531 920.801 999.531 911.496 999.381L894.576 999.107L898.746 993.391L902.915 987.672L914.165 987.641L925.415 987.607V984.607C925.415 981.94 925.748 981.607 928.415 981.607C931.082 981.607 931.415 981.94 931.415 984.607ZM1055.42 984.607V987.607L1066.67 987.655L1077.92 987.703L1082.21 993.405L1086.51 999.107L1052.81 999.37C1034.27 999.516 1018.92 999.447 1018.69 999.217C1018.46 998.988 1020.22 996.284 1022.6 993.208L1026.92 987.615L1038.17 987.612L1049.42 987.607V984.607C1049.42 981.94 1049.75 981.607 1052.42 981.607C1055.08 981.607 1055.42 981.94 1055.42 984.607ZM1179.42 984.607V987.607H1190.36H1201.3L1205.92 993.607L1210.53 999.607H1176.47C1157.74 999.607 1142.42 999.363 1142.42 999.064C1142.42 998.765 1144.27 996.065 1146.54 993.064L1150.66 987.607H1161.54C1172.27 987.607 1172.42 987.576 1172.42 985.274C1172.42 982.245 1173.14 981.607 1176.58 981.607C1179.06 981.607 1179.42 981.98 1179.42 984.607ZM1799.42 984.607V987.607L1810.67 987.638L1821.92 987.667L1826.25 993.388L1830.59 999.107L1813.5 999.381C1804.1 999.531 1788.74 999.531 1779.37 999.381L1762.32 999.107L1766.62 993.405L1770.92 987.703L1782.17 987.655L1793.42 987.607V984.607C1793.42 981.94 1793.75 981.607 1796.42 981.607C1799.08 981.607 1799.42 981.94 1799.42 984.607ZM419.415 1025.61V1062.61H396.915H374.415V1025.61V988.607H396.915H419.415V1025.61ZM477.415 1025.61V1062.61H454.415H431.415V1025.61V988.607H454.415H477.415V1025.61ZM537.177 1025.36L536.915 1062.11L514.165 1062.38L491.415 1062.65V1025.63V988.607H514.427H537.44L537.177 1025.36ZM594.415 1025.61V1062.61H571.915H549.415V1025.61V988.607H571.915H594.415V1025.61ZM654.415 1025.63V1062.65L631.665 1062.38L608.915 1062.11L608.668 1027.61C608.533 1008.63 608.654 992.094 608.937 990.857L609.453 988.607H631.934H654.415V1025.63ZM711.915 1025.61V1062.11L689.165 1062.38L666.415 1062.65V1025.61V988.569L689.165 988.839L711.915 989.107V1025.61ZM771.879 990.357C772.253 991.319 772.235 1007.97 771.841 1027.36L771.124 1062.61H748.77H726.415V1025.61V988.607H748.808C769.21 988.607 771.261 988.763 771.879 990.357ZM829.415 1025.61V1062.61H806.915H784.415L784.435 1060.36C784.446 1059.12 784.4 1042.81 784.334 1024.11C784.267 1005.41 784.258 989.771 784.314 989.357C784.369 988.944 794.54 988.607 806.915 988.607H829.415V1025.61ZM1320.42 1025.61V1062.61H1297.92H1275.42V1025.61V988.607H1297.92H1320.42V1025.61ZM1378.42 1025.61V1062.61H1355.42H1332.42V1025.61V988.607H1355.42H1378.42V1025.61ZM1438.42 1025.61V1062.61H1415.42H1392.42V1025.61V988.607H1415.42H1438.42V1025.61ZM1495.42 1025.61V1062.61H1472.92H1450.42V1025.61V988.607H1472.92H1495.42V1025.61ZM1555.42 1025.61V1062.61H1532.92H1510.42V1025.61V988.607H1532.92H1555.42V1025.61ZM1613.42 1025.61V1062.61H1590.42H1567.42V1025.61V988.607H1590.42H1613.42V1025.61ZM1673.42 1025.61V1062.61H1650.42H1627.42V1025.61V988.607H1650.42H1673.42V1025.61ZM1730.42 1025.61V1062.61H1707.92H1685.42V1025.61V988.607H1707.92H1730.42V1025.61ZM117.415 1004.14C134.259 1009.32 146.656 1020.48 152.199 1035.46C155.241 1043.68 156.441 1063.37 154.453 1072.45C151.228 1087.18 140.052 1101.62 127.261 1107.58C116.139 1112.77 109.406 1114.06 93.9154 1114.01C81.6494 1113.96 78.9564 1113.64 72.1714 1111.39C55.0694 1105.72 43.1924 1093.75 37.7644 1076.71C36.9584 1074.18 36.0564 1067.38 35.7594 1061.61C35.1354 1049.49 36.7394 1040.03 40.9134 1031.2C43.9414 1024.8 51.7134 1015.87 58.0574 1011.51C63.1994 1007.97 73.5114 1003.94 80.7374 1002.64C88.5924 1001.23 110.917 1002.14 117.415 1004.14ZM349.927 1008.99L355.487 1016.38L355.201 1026.32L354.915 1036.26L344.415 1033C337.145 1030.73 331.839 1029.71 327.165 1029.67L320.415 1029.61V1039.61V1049.61H308.415H296.415V1039.61V1029.61L289.665 1029.61C284.795 1029.62 279.922 1030.56 272.165 1033L261.415 1036.38V1025.92V1015.45L266.665 1008.56L271.915 1001.67L308.141 1001.64L344.367 1001.61L349.927 1008.99ZM383.415 1030.11V1058.61H399.915H416.415V1030.11V1001.61H399.915H383.415V1030.11ZM440.62 1030.1L440.915 1058.6L457.165 1058.6L473.415 1058.61V1030.11V1001.61H456.87H440.325L440.62 1030.1ZM500.415 1030.11V1058.61H516.915H533.415V1030.11V1001.61H516.915H500.415V1030.11ZM558.415 1030.11V1058.61H574.915H591.415V1030.11V1001.61H574.915H558.415V1030.11ZM618.415 1030.11V1058.61H634.915H651.415V1030.11V1001.61H634.915H618.415V1030.11ZM675.415 1030.11V1058.61H691.915H708.415V1030.11V1001.61H691.915H675.415V1030.11ZM735.415 1030.11V1058.61H751.915H768.415V1030.11V1001.61H751.915H735.415V1030.11ZM793.415 1030.11V1058.61H809.915H826.415V1030.11V1001.61H809.915H793.415V1030.11ZM970.165 1008.69L975.415 1015.65V1026.02V1036.38L964.665 1033C956.908 1030.56 952.035 1029.62 947.165 1029.61L940.415 1029.61V1039.61V1049.61H928.415H916.415V1039.61V1029.61L909.665 1029.62C904.806 1029.64 899.904 1030.59 892.165 1033.03L881.415 1036.43V1026.12V1015.81L886.972 1008.71L892.529 1001.61L928.722 1001.66L964.915 1001.72L970.165 1008.69ZM1093.84 1008.78L1099.42 1015.95V1026.25C1099.42 1034.06 1099.11 1036.44 1098.17 1036.09C1088.05 1032.42 1076.19 1029.61 1070.79 1029.61H1064.42V1039.61V1049.61H1052.42H1040.42V1039.61V1029.61L1033.67 1029.62C1028.81 1029.64 1023.9 1030.59 1016.17 1033.03L1005.42 1036.43V1025.95V1015.48L1010.67 1008.6L1015.92 1001.72L1052.09 1001.66L1088.27 1001.61L1093.84 1008.78ZM1217.78 1008.97L1223.42 1016.33V1025.97C1223.42 1034.25 1223.18 1035.61 1221.77 1035.61C1220.86 1035.61 1215.91 1034.26 1210.76 1032.61C1204.03 1030.45 1199.42 1029.61 1194.4 1029.61H1187.42V1039.61V1049.61H1175.92H1164.42V1039.61V1029.61H1157.62C1152.85 1029.61 1147.99 1030.5 1141.37 1032.59C1136.17 1034.23 1131.35 1035.58 1130.67 1035.59C1129.75 1035.6 1129.42 1032.95 1129.42 1025.59V1015.57L1134.64 1008.59L1139.86 1001.61H1176H1212.14L1217.78 1008.97ZM1284.42 1030.11V1058.61H1300.92H1317.42V1030.11V1001.61H1300.92H1284.42V1030.11ZM1342.42 1030.11V1058.61H1358.92H1375.42V1030.11V1001.61H1358.92H1342.42V1030.11ZM1402.42 1030.11V1058.61H1418.92H1435.42V1030.11V1001.61H1418.92H1402.42V1030.11ZM1459.42 1030.11V1058.61H1475.92H1492.42V1030.11V1001.61H1475.92H1459.42V1030.11ZM1519.42 1030.11V1058.61H1535.92H1552.42V1030.11V1001.61H1535.92H1519.42V1030.11ZM1577.42 1030.11V1058.61H1593.92H1610.42V1030.11V1001.61H1593.92H1577.42V1030.11ZM1637.42 1030.11V1058.61L1653.67 1058.6L1669.92 1058.6L1670.21 1030.1L1670.5 1001.61H1653.96H1637.42V1030.11ZM1694.42 1030.11V1058.61H1710.92H1727.42V1030.11V1001.61H1710.92H1694.42V1030.11ZM1838.17 1008.69L1843.42 1015.65V1026.04V1036.43L1832.67 1033.03C1824.93 1030.59 1820.02 1029.64 1815.17 1029.62L1808.42 1029.61V1039.61V1049.61H1796.42H1784.42V1039.61V1029.61L1777.67 1029.62C1772.81 1029.64 1767.9 1030.59 1760.17 1033.03L1749.42 1036.43V1026.12V1015.81L1754.97 1008.71L1760.53 1001.61L1796.72 1001.66L1832.92 1001.72L1838.17 1008.69ZM85.1314 1026.7C73.0844 1028.46 63.3434 1034.98 58.7334 1044.37C56.2954 1049.33 55.9214 1051.25 55.9634 1058.61C56.0034 1065.8 56.4214 1067.9 58.6664 1072.23C64.9714 1084.4 76.0874 1089.82 94.9154 1089.9C114.619 1089.98 125.637 1084.79 132.691 1072.11C134.575 1068.72 134.915 1066.58 134.914 1058.11C134.914 1049.19 134.623 1047.56 132.228 1043.02C124.879 1029.08 108.234 1023.32 85.1314 1026.7ZM345.912 1035.23C350.313 1036.67 354.261 1038.17 354.684 1038.55C355.106 1038.93 355.331 1050.01 355.184 1063.18L354.915 1087.11L345.165 1074.45L335.415 1061.78V1047.2C335.415 1036.21 335.723 1032.61 336.662 1032.61C337.347 1032.61 341.51 1033.79 345.912 1035.23ZM966.452 1035.34L975.415 1038.06V1062.54C975.415 1077.58 975.058 1086.64 974.488 1086.06C973.979 1085.54 969.479 1079.76 964.488 1073.23L955.415 1061.35V1046.98C955.415 1037.72 955.784 1032.61 956.452 1032.61C957.022 1032.61 961.522 1033.84 966.452 1035.34ZM1090.45 1035.34L1099.42 1038.06V1062.34C1099.42 1075.69 1099.22 1086.61 1098.98 1086.61C1098.75 1086.61 1094.25 1081.01 1088.98 1074.17L1079.42 1061.73V1047.17C1079.42 1037.78 1079.78 1032.61 1080.45 1032.61C1081.02 1032.61 1085.52 1033.84 1090.45 1035.34ZM1216.28 1036.05L1222.92 1038.29L1223.18 1062.59C1223.41 1083.14 1223.24 1086.71 1222.07 1085.74C1221.32 1085.11 1216.81 1079.5 1212.06 1073.26L1203.42 1061.93V1047.19V1032.45L1206.53 1033.13C1208.25 1033.51 1212.63 1034.82 1216.28 1036.05ZM1834.45 1035.34L1843.42 1038.06V1062.54C1843.42 1077.18 1843.05 1086.63 1842.51 1086.06C1842.01 1085.54 1837.51 1079.81 1832.51 1073.33L1823.42 1061.55V1047.08C1823.42 1037.76 1823.78 1032.61 1824.45 1032.61C1825.02 1032.61 1829.52 1033.84 1834.45 1035.34ZM1972.58 1079.61C1972.4 1095.83 1972.06 1109.83 1971.81 1110.71C1971.43 1112.1 1973.07 1112.39 1984.14 1112.87C1991.17 1113.18 1997.08 1113.27 1997.27 1113.07C1997.47 1112.88 1997.92 1099.76 1998.27 1083.92C1998.63 1068.07 1999.25 1055.22 1999.67 1055.36C2000.08 1055.5 2004.53 1055.61 2009.55 1055.61H2018.68L2017.95 1084.45L2017.22 1113.29L2032.52 1113.92C2040.93 1114.26 2048.05 1114.31 2048.34 1114.02C2048.62 1113.73 2049.17 1100.13 2049.55 1083.8C2049.94 1067.47 2050.29 1053.08 2050.33 1051.82C2050.41 1049.58 2050.61 1049.54 2060.17 1049.82C2065.93 1049.99 2069.86 1050.52 2069.78 1051.11C2069.71 1051.66 2069.32 1071.35 2068.91 1094.87C2068.51 1118.39 2067.89 1137.82 2067.54 1138.03C2066.73 1138.53 1952.43 1135.95 1951.9 1135.42C1951.68 1135.2 1951.92 1119.29 1952.43 1100.07C1952.94 1080.84 1953.37 1061.6 1953.39 1057.32L1953.42 1049.54L1963.17 1049.82L1972.92 1050.11L1972.58 1079.61ZM311.415 1059.47C311.415 1061.77 311.859 1062.34 313.665 1062.35C314.903 1062.36 319.971 1062.42 324.928 1062.49L333.941 1062.61L338.237 1068.11L342.532 1073.61H308.439C270.177 1073.61 272.58 1074.21 279.578 1066.37L282.915 1062.62L293.665 1062.5L304.415 1062.37V1059.49C304.415 1056.86 304.725 1056.61 307.915 1056.61C311.1 1056.61 311.415 1056.87 311.415 1059.47ZM931.599 1059.36L931.915 1062.11L942.856 1062.39C948.873 1062.55 954.295 1063.09 954.904 1063.6C955.513 1064.1 957.48 1066.56 959.275 1069.06L962.539 1073.61H928.409H894.279L896.296 1070.86C902.811 1061.98 901.85 1062.44 913.943 1062.27L924.915 1062.11L925.231 1059.36C925.495 1057.07 926.031 1056.61 928.415 1056.61C930.799 1056.61 931.335 1057.07 931.599 1059.36ZM1055.42 1059.66V1062.72L1065.67 1062.6C1071.3 1062.54 1076.42 1062.51 1077.05 1062.55C1077.67 1062.58 1080.04 1065.08 1082.33 1068.11L1086.48 1073.61H1052.41C1014.16 1073.61 1016.76 1074.27 1023.64 1066.27L1026.94 1062.43L1037.93 1062.27L1048.92 1062.11L1049.23 1059.36C1049.5 1057.05 1050.03 1056.61 1052.48 1056.61C1055.09 1056.61 1055.42 1056.95 1055.42 1059.66ZM1179.42 1059.54V1062.47L1189.67 1062.5C1195.3 1062.51 1200.38 1062.54 1200.95 1062.57C1202.14 1062.61 1209.8 1072.55 1209.15 1073.21C1208.91 1073.44 1193.79 1073.52 1175.53 1073.37L1142.34 1073.11L1146.13 1067.89L1149.92 1062.67L1159.92 1062.52C1165.42 1062.44 1170.48 1062.44 1171.17 1062.53C1171.93 1062.63 1172.42 1061.51 1172.42 1059.65C1172.42 1056.84 1172.68 1056.61 1175.92 1056.61C1179.12 1056.61 1179.42 1056.86 1179.42 1059.54ZM1799.6 1059.36L1799.92 1062.11L1811.07 1062.39L1822.23 1062.67L1825.64 1066.89C1827.52 1069.21 1829.39 1071.67 1829.8 1072.36C1830.38 1073.35 1823.44 1073.61 1796.44 1073.61H1762.35L1766.48 1068.14L1770.61 1062.67L1781.76 1062.39L1792.92 1062.11L1793.23 1059.36C1793.5 1057.07 1794.03 1056.61 1796.42 1056.61C1798.8 1056.61 1799.34 1057.07 1799.6 1059.36ZM349.696 1083.04L355.415 1090.47V1100.54C355.415 1106.08 355.261 1110.61 355.072 1110.61C354.883 1110.61 349.821 1109.04 343.822 1107.13C331.109 1103.07 320.457 1102.26 320.36 1105.36C320.33 1106.32 320.298 1110.82 320.29 1115.36L320.275 1123.61H308.345H296.415V1113.61V1103.61H290.545C285.593 1103.61 271.332 1107.02 263.165 1110.15C261.567 1110.76 261.415 1109.91 261.415 1100.35C261.415 1088.96 260.976 1090.12 269.16 1079.86L272.549 1075.61H308.263H343.978L349.696 1083.04ZM969.843 1082.78L975.415 1089.95V1100.28C975.415 1105.96 975.303 1110.6 975.165 1110.6C975.027 1110.6 969.965 1109.03 963.915 1107.12C956.306 1104.71 950.988 1103.64 946.665 1103.62L940.415 1103.61V1113.61V1123.61H928.451H916.487L916.201 1113.86L915.915 1104.11L908.915 1104.23C904.436 1104.31 898.853 1105.32 893.415 1107.02C888.74 1108.48 884.127 1109.92 883.165 1110.21C881.578 1110.69 881.415 1109.79 881.415 1100.54V1090.33L887.054 1082.97L892.692 1075.61H928.482H964.271L969.843 1082.78ZM1093.79 1083.08L1099.42 1090.54V1100.64C1099.42 1109.8 1099.25 1110.69 1097.67 1110.2C1079.43 1104.55 1075.5 1103.61 1070.29 1103.61H1064.42V1113.61V1123.61H1052.42H1040.42V1113.56V1103.5L1034.17 1103.7C1028.92 1103.87 1023.1 1105.27 1007.17 1110.2C1005.58 1110.69 1005.42 1109.79 1005.42 1100.35V1089.95L1010.99 1082.78L1016.56 1075.61H1052.37H1088.17L1093.79 1083.08ZM1217.7 1083.22L1223.42 1090.82V1100.72C1223.42 1106.16 1223.25 1110.61 1223.04 1110.61C1222.83 1110.61 1218.22 1109.2 1212.79 1107.48C1205.72 1105.24 1200.78 1104.32 1195.42 1104.23L1187.92 1104.11L1187.63 1113.86L1187.34 1123.61H1175.92H1164.49L1164.2 1113.86L1163.92 1104.11L1158.19 1103.81C1153.17 1103.55 1140.63 1106.52 1130.76 1110.3C1129.69 1110.72 1129.42 1108.72 1129.42 1100.35C1129.42 1088.96 1128.98 1090.12 1137.16 1079.86L1140.55 1075.61H1176.27H1211.99L1217.7 1083.22ZM1837.84 1082.78L1843.42 1089.95V1100.28C1843.42 1105.96 1843.3 1110.6 1843.17 1110.6C1843.03 1110.6 1837.97 1109.03 1831.92 1107.12C1824.31 1104.71 1818.99 1103.64 1814.67 1103.62L1808.42 1103.61V1113.61V1123.61H1796.42H1784.42V1113.61V1103.61H1778.54C1773.33 1103.61 1769.4 1104.55 1751.17 1110.2C1749.58 1110.69 1749.42 1109.8 1749.42 1100.54V1090.33L1755.05 1082.97L1760.69 1075.61H1796.48H1832.27L1837.84 1082.78ZM419.415 1113.61V1150.61H396.915H374.415V1113.61V1076.61H396.915H419.415V1113.61ZM477.177 1113.36L476.915 1150.11L454.165 1150.38L431.415 1150.65V1113.63V1076.61H454.427H477.44L477.177 1113.36ZM537.177 1113.36L536.915 1150.11L514.165 1150.38L491.415 1150.65V1113.63V1076.61H514.427H537.44L537.177 1113.36ZM594.415 1113.61V1150.61H571.915H549.415V1113.61V1076.61H571.915H594.415V1113.61ZM654.415 1113.63V1150.65L631.665 1150.38L608.915 1150.11L608.617 1113.36L608.319 1076.61H631.367H654.415V1113.63ZM712.177 1113.36L711.915 1150.11L689.165 1150.38L666.415 1150.65V1113.63V1076.61H689.427H712.44L712.177 1113.36ZM771.395 1083.36C771.384 1087.07 771.496 1103.61 771.645 1120.11L771.915 1150.11L749.165 1150.38L726.415 1150.65V1113.63V1076.61H748.915H771.415L771.395 1083.36ZM829.415 1113.63V1150.65L806.665 1150.38L783.915 1150.11V1113.36V1076.61H806.665H829.415V1113.63ZM1320.42 1113.61V1150.61H1297.92H1275.42V1113.61V1076.61H1297.92H1320.42V1113.61ZM1378.42 1113.63V1150.65L1355.67 1150.38L1332.92 1150.11L1332.65 1113.36L1332.39 1076.61H1355.4H1378.42V1113.63ZM1438.18 1113.36L1437.92 1150.11H1415.42H1392.92L1392.65 1113.36L1392.39 1076.61H1415.42H1438.44L1438.18 1113.36ZM1495.42 1113.61V1150.61H1472.92H1450.42V1113.61V1076.61H1472.92H1495.42V1113.61ZM1555.42 1113.61V1150.61H1532.92H1510.42V1113.61V1076.61H1532.92H1555.42V1113.61ZM1613.18 1113.36L1612.92 1150.11L1590.17 1150.38L1567.42 1150.65V1113.63V1076.61H1590.43H1613.44L1613.18 1113.36ZM1673.18 1113.36L1672.92 1150.11L1650.17 1150.38L1627.42 1150.65V1113.63V1076.61H1650.43H1673.44L1673.18 1113.36ZM1730.42 1113.61V1150.61H1707.92H1685.42V1113.61V1076.61H1707.92H1730.42V1113.61ZM383.415 1117.61V1146.61H399.915H416.415V1117.61V1088.61H399.915H383.415V1117.61ZM441.089 1116.72C440.732 1132.19 440.686 1145.24 440.987 1145.72C441.287 1146.21 448.706 1146.61 457.474 1146.61H473.415V1117.61V1088.61H457.576H441.737L441.089 1116.72ZM500.867 1089.87C500.6 1090.57 500.502 1103.5 500.648 1118.62L500.915 1146.11L517.165 1146.38L533.415 1146.66V1117.63V1088.61H517.384C505.385 1088.61 501.23 1088.93 500.867 1089.87ZM558.415 1117.61V1146.61H574.915H591.415V1117.61V1088.61H574.915H558.415V1117.61ZM618.415 1117.61V1146.61H634.915H651.415V1117.61V1088.61H634.915H618.415V1117.61ZM675.867 1089.87C675.6 1090.57 675.502 1103.5 675.648 1118.62L675.915 1146.11L692.165 1146.38L708.415 1146.66V1117.63V1088.61H692.384C680.385 1088.61 676.23 1088.93 675.867 1089.87ZM736.082 1089.27C735.715 1089.64 735.415 1102.69 735.415 1118.27V1146.61H751.915H768.415V1117.61V1088.61H752.582C743.873 1088.61 736.448 1088.91 736.082 1089.27ZM793.415 1117.58V1146.61H809.93H826.446L826.18 1117.86L825.915 1089.11L809.665 1088.83L793.415 1088.56V1117.58ZM1284.42 1117.61V1146.61H1300.92H1317.42V1117.61V1088.61H1300.92H1284.42V1117.61ZM1342.42 1117.61V1146.66L1358.67 1146.38L1374.92 1146.11V1117.61V1089.11L1358.67 1088.83L1342.42 1088.56V1117.61ZM1402.42 1117.61V1146.66L1418.67 1146.38L1434.92 1146.11V1117.61V1089.11L1418.67 1088.83L1402.42 1088.56V1117.61ZM1459.42 1117.61V1146.61H1475.92H1492.42V1117.61V1088.61H1475.92H1459.42V1117.61ZM1519.42 1117.61V1146.61H1535.92H1552.42V1117.61V1088.61H1535.92H1519.42V1117.61ZM1577.42 1117.61V1146.66L1593.67 1146.38L1609.92 1146.11V1117.61V1089.11L1593.67 1088.83L1577.42 1088.56V1117.61ZM1637.42 1117.61V1146.61H1653.36C1662.12 1146.61 1669.48 1146.27 1669.71 1145.86C1669.94 1145.45 1669.91 1132.39 1669.64 1116.86L1669.16 1088.61H1653.29H1637.42V1117.61ZM1694.42 1117.61V1146.61H1710.92H1727.42V1117.61V1088.61H1710.92H1694.42V1117.61ZM347.165 1110.11L355.415 1112.69V1131.65V1150.61H350.939C346.546 1150.61 346.36 1150.47 340.939 1143.27L335.415 1135.93V1121.2C335.415 1107.64 335.554 1106.51 337.165 1107C338.127 1107.29 342.627 1108.69 347.165 1110.11ZM965.915 1109.54L974.915 1112.45L975.187 1131.53L975.458 1150.61H971.155C966.984 1150.61 966.677 1150.38 961.134 1143.18L955.415 1135.75V1121.18C955.415 1113.16 955.752 1106.61 956.165 1106.62C956.578 1106.63 960.965 1107.94 965.915 1109.54ZM1090.16 1109.69L1099.42 1112.77V1131.69V1150.61H1095.02C1090.74 1150.61 1090.48 1150.42 1085.02 1143.29L1079.42 1135.97V1121.29C1079.42 1113.21 1079.75 1106.61 1080.16 1106.61C1080.57 1106.61 1085.07 1107.99 1090.16 1109.69ZM1215.17 1110.11L1223.42 1112.69V1131.65V1150.61H1218.97C1214.65 1150.61 1214.37 1150.41 1208.97 1143.51L1203.42 1136.4V1121.44C1203.42 1107.65 1203.55 1106.51 1205.17 1107C1206.13 1107.29 1210.63 1108.69 1215.17 1110.11ZM1833.92 1109.54L1842.92 1112.45L1843.19 1131.53L1843.46 1150.61H1839.06C1834.75 1150.61 1834.54 1150.45 1829.04 1143.14L1823.42 1135.67V1121.14C1823.42 1113.15 1823.75 1106.61 1824.17 1106.62C1824.58 1106.63 1828.97 1107.94 1833.92 1109.54ZM142.189 1125.76C154.913 1131.84 162.364 1147.65 162.4 1168.65C162.434 1188.16 155.478 1200.1 140.489 1206.27C131.077 1210.14 131.397 1210.41 129.452 1196.92C127.861 1185.88 127.861 1185.88 132.931 1183.5C140.316 1180.02 141.917 1176.83 141.906 1165.61C141.896 1155.66 140.736 1151.9 136.124 1146.86C133.161 1143.62 127.502 1143.79 124.064 1147.23C120.774 1150.52 120.004 1153.21 116.504 1173.61C112.809 1195.15 110.749 1200.55 103.496 1207.69C91.9194 1219.1 74.6054 1220.61 60.2424 1211.47C48.8694 1204.23 42.2944 1188.11 42.1514 1167.11C42.0354 1150.08 46.4404 1139.76 57.3044 1131.6C60.1254 1129.48 64.8124 1126.85 67.7184 1125.77C77.2494 1122.2 76.5924 1121.72 79.1804 1134.1C80.8344 1142.01 81.1544 1145.19 80.3214 1145.47C79.6854 1145.68 76.8664 1147.06 74.0574 1148.53C64.6934 1153.42 60.6024 1162.87 62.5664 1175.07C64.4234 1186.6 70.6114 1193.61 78.9284 1193.61C87.4954 1193.61 90.1944 1188.87 93.4424 1168.11C97.6734 1141.08 102.111 1131.84 113.68 1125.97C123.629 1120.93 131.957 1120.87 142.189 1125.76ZM311.415 1133.61V1136.61L322.665 1136.64L333.915 1136.67L338.251 1142.39L342.587 1148.11L308.848 1148.37C290.291 1148.52 274.889 1148.41 274.621 1148.15C274.352 1147.88 276.04 1145.19 278.371 1142.16L282.609 1136.67L293.762 1136.39C301.783 1136.19 304.95 1135.76 305.04 1134.86C305.109 1134.17 305.221 1132.93 305.29 1132.11C305.371 1131.14 306.471 1130.61 308.415 1130.61C311.082 1130.61 311.415 1130.94 311.415 1133.61ZM931.415 1133.61V1136.61H942.795H954.175L958.325 1142.1C965.356 1151.42 968.206 1150.61 928.415 1150.61C898.57 1150.61 893.283 1150.39 893.741 1149.2C894.037 1148.43 896.223 1145.28 898.598 1142.21L902.915 1136.62L914.165 1136.61L925.415 1136.61V1133.61C925.415 1130.94 925.748 1130.61 928.415 1130.61C931.082 1130.61 931.415 1130.94 931.415 1133.61ZM1055.42 1133.61V1136.61L1066.67 1136.61L1077.92 1136.62L1082.23 1142.21C1084.61 1145.28 1086.79 1148.43 1087.09 1149.2C1087.55 1150.39 1082.2 1150.61 1051.97 1150.61C1023 1150.61 1016.47 1150.36 1017.12 1149.31C1017.56 1148.6 1019.88 1145.45 1022.29 1142.31L1026.66 1136.61H1038.04H1049.42V1133.61C1049.42 1130.94 1049.75 1130.61 1052.42 1130.61C1055.08 1130.61 1055.42 1130.94 1055.42 1133.61ZM1179.42 1133.61V1136.61L1190.67 1136.65L1201.92 1136.7L1206.8 1143.18C1209.49 1146.75 1211.47 1149.89 1211.2 1150.15C1210.94 1150.42 1194.87 1150.52 1175.49 1150.37L1140.26 1150.11L1145.37 1143.36L1150.48 1136.61H1161.45H1172.42V1133.61C1172.42 1130.85 1172.69 1130.61 1175.92 1130.61C1179.14 1130.61 1179.42 1130.85 1179.42 1133.61ZM1799.42 1133.61V1136.61H1810.8H1822.18L1826.3 1142.06C1828.56 1145.07 1830.42 1147.77 1830.42 1148.06C1830.42 1148.36 1815.12 1148.61 1796.42 1148.61C1777.72 1148.61 1762.42 1148.39 1762.42 1148.11C1762.42 1147.84 1764.33 1145.14 1766.67 1142.12L1770.92 1136.62L1782.17 1136.61L1793.42 1136.61V1133.61C1793.42 1130.94 1793.75 1130.61 1796.42 1130.61C1799.08 1130.61 1799.42 1130.94 1799.42 1133.61ZM1963.17 1140.21C1967.07 1140.7 1968.42 1141.28 1968.42 1142.49C1968.42 1143.38 1967.47 1150.78 1966.3 1158.93C1965.1 1167.3 1964.55 1174.1 1965.04 1174.54C1965.52 1174.97 1986.62 1178.17 2011.92 1181.64C2037.22 1185.12 2058.28 1188.27 2058.73 1188.65C2059.58 1189.37 2057.5 1208.85 2056.39 1210.65C2055.98 1211.3 2039.4 1209.37 2009.22 1205.13C1983.62 1201.54 1962.23 1198.61 1961.68 1198.61C1961.13 1198.61 1959.66 1206.29 1958.41 1215.68C1956.23 1232.01 1956.04 1232.73 1954.02 1232.26C1952.86 1231.98 1948.94 1231.45 1945.31 1231.08C1941.68 1230.71 1938.24 1230.11 1937.68 1229.76C1937 1229.33 1938.81 1213.77 1942.97 1184.11C1946.44 1159.36 1949.32 1138.94 1949.35 1138.74C1949.39 1138.54 1951.33 1138.65 1953.67 1138.97C1956 1139.3 1960.28 1139.86 1963.17 1140.21ZM886.589 1186.28C890.833 1189.52 893.164 1190.61 895.839 1190.61H899.415V1245.61V1300.61H888.915H878.415V1240.55C878.415 1192.78 878.671 1180.64 879.665 1181.23C880.353 1181.63 883.468 1183.91 886.589 1186.28ZM1229.42 1240.61V1300.61H1218.92H1208.42V1245.61V1190.61L1212.17 1190.58C1215.1 1190.56 1217.34 1189.48 1222.42 1185.61C1225.99 1182.89 1229.03 1180.65 1229.17 1180.63C1229.3 1180.62 1229.42 1207.61 1229.42 1240.61ZM352.415 1236.11V1285.61H309.415H266.415V1236.11V1186.61H309.415H352.415V1236.11ZM451.415 1236.11V1285.61H408.415H365.415V1236.11V1186.61H408.415H451.415V1236.11ZM551.174 1236.36L551.434 1285.61H507.924H464.415V1236.1V1186.59L507.665 1186.85L550.915 1187.11L551.174 1236.36ZM650.415 1236.11V1285.61H606.915H563.415V1236.77C563.415 1209.92 563.715 1187.64 564.082 1187.27C564.448 1186.91 584.023 1186.61 607.582 1186.61H650.415V1236.11ZM749.415 1236.11V1285.61H705.915H662.415V1236.77C662.415 1209.92 662.715 1187.64 663.082 1187.27C663.448 1186.91 683.023 1186.61 706.582 1186.61H749.415V1236.11ZM848.415 1236.11V1285.61H805.415H762.415V1236.11V1186.61H805.415H848.415V1236.11ZM1345.59 1188.28C1345.77 1189.2 1345.79 1211.47 1345.65 1237.78L1345.38 1285.61H1302.4H1259.42V1236.11V1186.61H1302.34C1341.66 1186.61 1345.3 1186.75 1345.59 1188.28ZM1445.17 1236.36L1445.43 1285.61H1401.92H1358.42V1236.1V1186.59L1401.67 1186.85L1444.92 1187.11L1445.17 1236.36ZM1544.42 1236.11V1285.61H1500.92H1457.42V1236.77C1457.42 1209.92 1457.72 1187.64 1458.08 1187.27C1458.45 1186.91 1478.02 1186.61 1501.58 1186.61H1544.42V1236.11ZM1643.42 1236.11V1285.61H1599.92H1556.42V1236.77C1556.42 1209.92 1556.72 1187.64 1557.08 1187.27C1557.45 1186.91 1577.02 1186.61 1600.58 1186.61H1643.42V1236.11ZM1742.42 1236.11V1285.61H1699.42H1656.42V1236.11V1186.61H1699.42H1742.42V1236.11ZM1841.42 1236.11V1285.61H1798.42H1755.42V1236.11V1186.61H1798.42H1841.42V1236.11ZM950.415 1195.58L955.915 1200.52L948.915 1200.55C941.917 1200.59 941.913 1200.58 936.415 1195.64L930.915 1190.69L937.915 1190.66C944.913 1190.63 944.917 1190.63 950.415 1195.58ZM973.318 1195.61L977.534 1200.61L971.225 1200.56C965.084 1200.52 964.77 1200.38 959.475 1195.56L954.034 1190.61H961.568H969.102L973.318 1195.61ZM994.165 1191.6L997.415 1191.61V1249.11V1306.61H991.915H986.415V1253.21C986.415 1209.44 986.173 1199.73 985.071 1199.31C984.332 1199.02 982.211 1196.88 980.357 1194.53L976.986 1190.28L983.951 1190.94C987.781 1191.3 992.377 1191.6 994.165 1191.6ZM1017.45 1195.19C1018.53 1197.71 1019.42 1199.96 1019.42 1200.19C1019.42 1200.42 1017.39 1200.61 1014.92 1200.61H1010.42V1195.61C1010.42 1190.92 1010.58 1190.61 1012.95 1190.61C1015.01 1190.61 1015.86 1191.47 1017.45 1195.19ZM1038.83 1192.86C1039.08 1194.09 1039.55 1196.34 1039.87 1197.86L1040.45 1200.61H1034.59H1028.73L1027.51 1196.86C1026.84 1194.8 1026.05 1192.55 1025.77 1191.86C1025.38 1190.93 1026.95 1190.61 1031.81 1190.61C1037.82 1190.61 1038.42 1190.8 1038.83 1192.86ZM1059.93 1193.11C1059.65 1194.48 1059.18 1196.73 1058.9 1198.11C1058.44 1200.32 1057.87 1200.61 1053.9 1200.61C1050.18 1200.61 1049.42 1200.29 1049.42 1198.73C1049.42 1197.7 1049.13 1195.45 1048.79 1193.73L1048.17 1190.61H1054.31C1060.33 1190.61 1060.44 1190.66 1059.93 1193.11ZM1082.16 1191.86C1081.91 1192.55 1081.09 1194.8 1080.36 1196.86C1079.03 1200.56 1078.95 1200.61 1073.59 1200.61H1068.17L1068.79 1197.48C1069.13 1195.76 1069.42 1193.51 1069.42 1192.48C1069.42 1190.84 1070.23 1190.61 1076.02 1190.61C1080.89 1190.61 1082.51 1190.94 1082.16 1191.86ZM1097.42 1195.61V1200.61H1092.94C1088.57 1200.61 1088.49 1200.55 1089.44 1198.11C1089.98 1196.73 1090.85 1194.48 1091.39 1193.11C1092.07 1191.36 1093.12 1190.61 1094.89 1190.61C1097.25 1190.61 1097.42 1190.93 1097.42 1195.61ZM1127.21 1194.8C1125.31 1197.11 1123.33 1199.14 1122.82 1199.3C1122.32 1199.47 1122.06 1197.59 1122.26 1195.11L1122.62 1190.61H1126.65H1130.67L1127.21 1194.8ZM1148.48 1195.65C1143.15 1200.5 1142.9 1200.61 1136.67 1200.61H1130.3L1134.61 1195.61L1138.92 1190.61L1146.42 1190.65L1153.92 1190.7L1148.48 1195.65ZM1171.61 1195.61C1165.74 1200.51 1165.49 1200.61 1158.95 1200.61H1152.28L1157.6 1195.65L1162.92 1190.68L1170.25 1190.65L1177.59 1190.61L1171.61 1195.61ZM1108.42 1249.11V1306.61H1103.42H1098.42V1249.11V1191.61H1103.42H1108.42V1249.11ZM932.415 1219.04C932.415 1226.39 933.716 1229.31 937.892 1231.3C940.424 1232.51 941.415 1233.63 941.415 1235.29C941.415 1237.58 941.26 1237.61 930.133 1237.61H918.851L918.622 1225.61L918.394 1213.61H925.405H932.415V1219.04ZM966.415 1225.61V1237.61H955.415C944.498 1237.61 944.415 1237.59 944.415 1235.23C944.415 1233.51 945.278 1232.49 947.538 1231.56C951.384 1229.96 953.415 1225.5 953.415 1218.64V1213.61H959.915H966.415V1225.61ZM1043.42 1218.64C1043.42 1225.5 1045.45 1229.96 1049.29 1231.56C1051.55 1232.49 1052.42 1233.51 1052.42 1235.23C1052.42 1237.59 1052.33 1237.61 1041.42 1237.61H1030.42V1225.61V1213.61H1036.92H1043.42V1218.64ZM1078.17 1225.61L1078.16 1237.61H1066.79C1055.57 1237.61 1055.42 1237.58 1055.42 1235.29C1055.42 1233.63 1056.41 1232.51 1058.94 1231.3C1063.11 1229.31 1064.42 1226.39 1064.42 1219.04V1213.61H1071.3H1078.18L1078.17 1225.61ZM1155.42 1220.17C1155.42 1227.94 1156.34 1230.04 1160.39 1231.45C1162.69 1232.25 1163.42 1233.12 1163.42 1235.06V1237.61H1152.42H1141.42V1225.61V1213.61H1148.42H1155.42V1220.17ZM1189.42 1225.61V1237.61H1177.92C1166.47 1237.61 1166.42 1237.6 1166.42 1235.23C1166.42 1233.52 1167.27 1232.49 1169.46 1231.59C1174.04 1229.69 1175.42 1226.99 1175.42 1219.88V1213.61H1182.42H1189.42V1225.61ZM170.126 1231.86C171.259 1238.05 172.076 1243.23 171.94 1243.39C171.804 1243.54 161.843 1245.51 149.804 1247.76C137.765 1250.02 127.766 1251.99 127.585 1252.15C127.135 1252.54 135.127 1295.65 135.767 1296.29C136.047 1296.57 146.092 1294.99 158.088 1292.78C170.084 1290.57 180.074 1288.93 180.287 1289.15C181.263 1290.12 184.46 1310.95 183.734 1311.61C183.284 1312.02 175.265 1313.72 165.915 1315.41C156.565 1317.09 131.415 1321.68 110.026 1325.62C82.5074 1330.68 70.9344 1332.45 70.4434 1331.65C69.5614 1330.23 66.1004 1310.59 66.6374 1310.05C66.9564 1309.73 114.359 1300.61 115.698 1300.61C116.029 1300.61 108.312 1256.47 107.866 1255.82C107.757 1255.66 96.5184 1257.58 82.8904 1260.08C69.2614 1262.59 58.0144 1264.52 57.8954 1264.37C57.3814 1263.74 53.6624 1242.07 54.0054 1241.71C54.2154 1241.48 68.6804 1238.68 86.1514 1235.48C103.621 1232.27 128.49 1227.66 141.415 1225.23C154.34 1222.79 165.624 1220.76 166.49 1220.7C167.724 1220.63 168.512 1223.05 170.126 1231.86ZM1975.02 1243.14C1995.86 1247.83 2020.34 1253.28 2029.42 1255.25C2038.49 1257.21 2046.29 1259.18 2046.75 1259.61C2048.14 1260.9 2042.97 1282.14 2041.32 1281.93C2038.73 1281.59 1929.92 1257.33 1929.53 1257C1929.2 1256.72 1932.85 1239.23 1933.95 1235.86C1934.17 1235.17 1934.98 1234.61 1935.74 1234.61C1936.5 1234.61 1954.18 1238.45 1975.02 1243.14ZM985.415 1268.61V1296.61H973.915H962.415V1268.61V1240.61H973.915H985.415V1268.61ZM1095.42 1268.61V1296.61H1053.92H1012.42V1268.61V1240.61H1053.92H1095.42V1268.61ZM1145.42 1268.61V1296.61H1134.17H1122.92V1268.61V1240.61L1134.17 1240.61H1145.42V1268.61ZM1955.23 1286.09C1955.72 1286.58 1952.75 1304.46 1951.71 1307.24C1951.48 1307.86 1949.13 1308.65 1946.48 1309.01C1936.59 1310.32 1930.54 1318.09 1929.64 1330.67C1929.01 1339.51 1930.61 1344.25 1934.91 1346.31C1942.08 1349.72 1947.1 1345.43 1955.97 1328.29C1966.93 1307.11 1972.09 1300.48 1981.62 1295.4C1985.23 1293.48 1987.43 1293.11 1995.42 1293.11C2003.59 1293.11 2005.7 1293.47 2010.54 1295.74C2029.19 1304.49 2035.26 1322.73 2028.33 1349.18C2022.83 1370.18 2011.52 1381.59 1993.14 1384.68C1986.15 1385.86 1979.42 1385.28 1979.42 1383.5C1979.42 1382.53 1980.95 1371.4 1981.96 1364.99C1982.45 1361.94 1982.58 1361.87 1989.05 1361.35C1994.13 1360.94 1996.61 1360.16 1999.78 1357.96C2005.49 1354.02 2009.53 1345.76 2010.17 1336.73C2010.78 1328.22 2009.35 1323.63 2004.82 1319.66C2002.02 1317.2 2000.45 1316.61 1996.73 1316.61C1992.67 1316.61 1991.66 1317.08 1988.51 1320.4C1986.53 1322.49 1982.48 1328.9 1979.49 1334.65C1965.06 1362.49 1956.66 1370.09 1940.39 1370.07C1920.72 1370.04 1908.18 1354.76 1909.75 1332.72C1910.79 1318.01 1915.63 1304.38 1922.74 1296.08C1926.72 1291.43 1934.45 1286.91 1940.64 1285.62C1944.86 1284.73 1954.17 1285.03 1955.23 1286.09ZM195.479 1328.36C197.255 1333.72 198.887 1338.59 199.105 1339.19C199.336 1339.82 189.826 1343.52 176.208 1348.08C163.397 1352.38 152.597 1356.17 152.209 1356.51C151.82 1356.84 165.747 1363.44 183.157 1371.17L214.812 1385.21L220.416 1402.16C223.499 1411.48 226.742 1420.23 227.624 1421.61C233.07 1430.1 262.399 1486.01 261.73 1486.62C261.282 1487.03 257.478 1489.24 253.277 1491.52L245.639 1495.67L243.163 1491.39C241.801 1489.03 235.172 1476.87 228.432 1464.36C221.691 1451.84 215.765 1441.61 215.261 1441.61C214.757 1441.61 209.608 1444.14 203.819 1447.23C196.25 1451.27 193.451 1453.26 193.854 1454.31C194.161 1455.11 200.302 1466.58 207.5 1479.8C214.698 1493.02 220.21 1504.16 219.751 1504.56C219.291 1504.96 215.447 1507.16 211.208 1509.45L203.502 1513.61L201.09 1509.36C199.764 1507.02 193.604 1495.66 187.402 1484.11C181.2 1472.56 176.014 1462.97 175.878 1462.8C175.742 1462.63 169.517 1465.78 162.045 1469.8C152.107 1475.15 148.6 1477.51 148.985 1478.61C149.275 1479.43 156.056 1492.19 164.054 1506.97C172.053 1521.74 178.219 1534.2 177.756 1534.66C175.683 1536.72 161.984 1543.57 161.331 1542.88C160.342 1541.83 119.401 1466.28 119.687 1466.03C119.813 1465.93 141.74 1454.03 168.415 1439.6C195.09 1425.17 217.235 1413.08 217.627 1412.73C218.337 1412.09 169.68 1388.56 167.87 1388.66C167.345 1388.7 155.45 1403.32 141.437 1421.16C127.424 1439.01 115.711 1453.61 115.408 1453.61C115.105 1453.61 112.923 1447.87 110.56 1440.86C108.196 1433.84 106.049 1427.59 105.79 1426.96C105.53 1426.33 114.574 1415.17 125.888 1402.15C137.201 1389.14 146.256 1378.16 146.01 1377.76C145.764 1377.36 140.367 1374.63 134.017 1371.7L122.471 1366.36L105.895 1371.92C89.4144 1377.45 89.3144 1377.47 88.4994 1375.3C85.8064 1368.11 82.1004 1355.59 82.5374 1355.15C83.3724 1354.32 188.758 1318.73 190.583 1318.67C191.82 1318.62 193.084 1321.12 195.479 1328.36ZM1932.63 1373.39C1946.73 1380.33 1953.04 1393.6 1949.5 1408.86C1949.02 1410.92 1948.77 1412.61 1948.94 1412.61C1949.11 1412.61 1952.33 1411.06 1956.09 1409.17C1959.84 1407.28 1966.29 1405.06 1970.42 1404.23C1980.43 1402.21 2008.13 1398.39 2009.83 1398.79C2010.83 1399.02 2009.76 1402.34 2005.88 1411.11C2001.82 1420.27 2000.02 1423.29 1998.24 1423.87C1996.96 1424.29 1986.69 1426.19 1975.42 1428.09C1944.61 1433.29 1943.73 1433.67 1938.02 1444.55C1935.93 1448.51 1934.44 1451.96 1934.69 1452.21C1934.94 1452.46 1944.75 1456.95 1956.5 1462.19C1968.25 1467.43 1977.99 1471.85 1978.15 1472.01C1978.4 1472.26 1969.64 1492.67 1968.99 1493.35C1968.8 1493.55 1894.66 1460.57 1870.17 1449.39C1866.45 1447.7 1863.42 1445.9 1863.42 1445.39C1863.42 1444.02 1883.02 1400.26 1887.61 1391.39C1893.8 1379.44 1899.98 1373.22 1908.41 1370.49C1909.79 1370.05 1914.3 1369.78 1918.44 1369.89C1924.66 1370.07 1927.11 1370.68 1932.63 1373.39ZM1020.02 1394.68C900.637 1399.5 787.161 1427.75 682.467 1478.72C671.22 1484.19 661.854 1488.84 661.653 1489.04C661.451 1489.24 662.833 1492.49 664.724 1496.26C681.687 1530.08 691.415 1573.03 691.415 1614.11C691.415 1655.02 681.629 1698.29 664.791 1731.83C662.934 1735.53 661.415 1738.73 661.415 1738.94C661.415 1739.15 667.875 1742.52 675.77 1746.43C868.687 1842.04 1093.76 1860.3 1301.11 1797.18C1332.95 1787.49 1369.29 1773.95 1397.92 1761.11C1412.32 1754.64 1439.88 1741.39 1442.25 1739.79C1443.31 1739.07 1442.88 1737.48 1440.13 1732C1423.14 1698.14 1413.42 1655.21 1413.42 1614.11C1413.42 1573.03 1423.14 1530.08 1440.11 1496.26C1442 1492.49 1443.37 1489.23 1443.17 1489.02C1441.87 1487.73 1397.09 1466.6 1383.42 1460.83C1286.8 1420.09 1187.98 1398.57 1079.39 1394.63C1049.59 1393.55 1048.05 1393.55 1020.02 1394.68ZM1911.92 1394.57C1910.82 1395.02 1908.69 1396.7 1907.19 1398.28C1904.12 1401.53 1890.09 1431.73 1891.2 1432.7C1892.08 1433.48 1914.42 1443.42 1916.19 1443.82C1917.44 1444.1 1922.45 1433.92 1928.5 1418.83C1933.54 1406.25 1931.97 1399.58 1922.99 1395.5C1918.63 1393.52 1915.13 1393.23 1911.92 1394.57ZM1084.92 1420.63C1181.95 1424.73 1273.79 1444.35 1360.78 1479.56C1376.7 1486 1407.98 1499.84 1409.05 1500.91C1409.28 1501.13 1407.88 1505.45 1405.96 1510.5C1387.05 1560.05 1382.4 1620.55 1393.39 1673.96C1396.1 1687.17 1401.58 1706.26 1405.87 1717.5C1407.85 1722.67 1409.34 1727 1409.19 1727.13C1406.9 1729.11 1375.82 1742.83 1354.88 1751.11C1277.09 1781.86 1193.12 1800.58 1105.42 1806.74C1068.28 1809.35 1009.16 1808.18 967.915 1804.02C886.959 1795.86 804.682 1774.73 730.011 1742.92C717.614 1737.64 696.41 1727.94 695.684 1727.21C695.492 1727.02 696.705 1723.41 698.378 1719.2C705.227 1701.96 711.781 1675.81 715.071 1652.61C717.766 1633.6 717.533 1590.95 714.633 1572.53C710.887 1548.73 705.76 1528.54 698.897 1510.56C696.982 1505.54 695.415 1501.3 695.415 1501.14C695.415 1500.98 702.363 1497.66 710.856 1493.76C825.389 1441.19 957.979 1415.27 1084.92 1420.63ZM1874.17 1465.83C1875.4 1466.43 1876.41 1467.19 1876.41 1467.52C1876.4 1467.84 1869.65 1479.99 1861.41 1494.51C1853.16 1509.04 1846.42 1521.19 1846.42 1521.51C1846.42 1521.84 1851.36 1524.89 1857.39 1528.29L1868.37 1534.47L1882.5 1509.54C1890.27 1495.83 1897.04 1484.61 1897.55 1484.61C1899.25 1484.61 1913.39 1493.09 1913.4 1494.11C1913.4 1494.66 1907.14 1506.13 1899.49 1519.6C1891.84 1533.08 1885.65 1544.17 1885.75 1544.26C1886.56 1545.02 1912.79 1559.57 1912.98 1559.37C1913.12 1559.23 1920.09 1546.96 1928.47 1532.11C1936.85 1517.26 1944.04 1504.73 1944.45 1504.27C1944.86 1503.81 1948.87 1505.55 1953.37 1508.14C1959.6 1511.73 1961.39 1513.24 1960.91 1514.48C1959.91 1517.12 1920.26 1586.99 1918.98 1588.37C1918.06 1589.38 1907.64 1583.89 1868.86 1561.99C1841.94 1546.78 1819.37 1533.83 1818.7 1533.22C1817.77 1532.37 1822.37 1523.48 1838.53 1494.91L1859.56 1457.71L1865.74 1461.22C1869.14 1463.14 1872.93 1465.22 1874.17 1465.83ZM272.364 1509.03C278.105 1517.66 278.255 1518.05 276.96 1521.03C276.223 1522.72 267.713 1540.96 258.048 1561.55C248.384 1582.15 240.639 1599.16 240.838 1599.36C241.22 1599.75 251.427 1593.18 283.766 1571.76C294.684 1564.53 303.954 1558.61 304.366 1558.61C305.727 1558.61 316.6 1575.82 315.749 1576.63C313.974 1578.31 220.474 1639.61 219.717 1639.58C219.276 1639.57 216.109 1635.31 212.68 1630.11L206.445 1620.67L224.933 1580.97C235.102 1559.14 243.234 1541.09 243.005 1540.86C242.776 1540.63 228.862 1549.48 212.086 1560.53C195.309 1571.57 181.208 1580.61 180.749 1580.6C180.29 1580.6 177.391 1576.64 174.306 1571.81L168.697 1563.01L187.806 1550.38C243.012 1513.89 264.989 1499.64 265.672 1499.86C266.088 1500 269.099 1504.13 272.364 1509.03ZM742.638 1540.36L742.915 1555.11H767.915H792.915L793.415 1627.11L793.915 1699.11L811.165 1699.38L828.415 1699.65V1627.65V1555.64L853.665 1555.37L878.915 1555.11L879.192 1540.36L879.468 1525.61H810.915H742.362L742.638 1540.36ZM902.415 1612.51V1699.61H939.843C960.428 1699.61 980.79 1699.14 985.093 1698.56C1010.7 1695.13 1026.92 1683.54 1037.49 1661.11C1043.96 1647.36 1045.53 1639.62 1046.13 1618.41C1046.55 1603.5 1046.31 1597.63 1044.94 1589.44C1039.4 1556.32 1021.11 1534.3 993.886 1527.98C988.253 1526.67 978.803 1526.27 944.665 1525.88L902.415 1525.41V1612.51ZM1064.64 1540.36L1064.92 1555.11H1090.17H1115.42L1115.42 1627.36V1699.61H1132.91H1150.4L1150.66 1627.48L1150.92 1555.35L1175.92 1555.23L1200.92 1555.11L1201.19 1540.36L1201.47 1525.61H1132.92H1064.36L1064.64 1540.36ZM1223.42 1576.36C1223.44 1657.87 1225.11 1669.44 1239.02 1683.95C1252.36 1697.87 1272.56 1703.83 1300.98 1702.24C1334.15 1700.38 1353.22 1686.36 1359.07 1659.52C1360.43 1653.27 1360.76 1642.19 1361.13 1588.86L1361.57 1525.61H1344.05H1326.53L1326.22 1588.36L1325.92 1651.11L1323.61 1656.11C1319.29 1665.49 1313.47 1669.67 1301.93 1671.68C1288.01 1674.1 1275.69 1671.03 1267.89 1663.18C1258.78 1654.01 1259.06 1656.36 1258.64 1586.36L1258.28 1525.61H1240.85H1223.42L1223.42 1576.36ZM1829.92 1562.4C1838.72 1575.43 1854.19 1598.34 1864.31 1613.29L1882.71 1640.48L1877.04 1648.29C1873.93 1652.59 1870.54 1657.2 1869.52 1658.53L1867.65 1660.95L1836.28 1651.63C1762.69 1629.76 1750.73 1626.06 1750.63 1625.11C1750.49 1623.7 1763.7 1605.65 1764.89 1605.63C1765.42 1605.62 1784.71 1611.48 1807.75 1618.66C1830.79 1625.85 1849.79 1631.56 1849.99 1631.37C1850.18 1631.17 1838.69 1614.69 1824.46 1594.73L1798.58 1558.44L1805.75 1548.57C1809.69 1543.14 1813.14 1538.69 1813.42 1538.69C1813.69 1538.69 1821.12 1549.36 1829.92 1562.4ZM983.943 1557.33C997.584 1561.9 1005.33 1571.59 1009.09 1588.78C1011.34 1599.07 1011.27 1627.21 1008.97 1638.11C1004.54 1659.09 995.751 1667.64 976.578 1669.66C971.813 1670.16 961.053 1670.58 952.665 1670.59L937.415 1670.61L937.413 1612.86L937.412 1555.11L959.163 1555.71C971.127 1556.04 982.278 1556.77 983.943 1557.33ZM349.857 1618.61C365.011 1638.13 377.265 1654.56 377.087 1655.11C376.723 1656.24 363.558 1666.63 362.56 1666.57C362.205 1666.55 357.423 1660.7 351.933 1653.57C346.442 1646.44 341.705 1640.61 341.406 1640.61C341.106 1640.61 324.041 1653.66 303.484 1669.61C282.926 1685.56 265.799 1698.61 265.422 1698.61C264.282 1698.61 251.229 1681.66 251.584 1680.64C251.886 1679.78 318.946 1627.32 324.165 1623.87C325.403 1623.05 326.415 1621.95 326.415 1621.43C326.415 1620.92 321.855 1614.64 316.281 1607.48C310.417 1599.96 306.519 1594.1 307.031 1593.59C309.515 1591.12 321.009 1582.66 321.609 1582.87C321.991 1583 334.703 1599.08 349.857 1618.61ZM1762.42 1640.74C1813.35 1683.79 1834.42 1701.81 1834.42 1702.3C1834.42 1703.11 1820.43 1719.61 1819.74 1719.61C1819.43 1719.61 1813.44 1714.77 1806.44 1708.86C1799.44 1702.95 1779.92 1686.47 1763.06 1672.25C1746.2 1658.03 1732.15 1645.98 1731.83 1645.47C1731.27 1644.56 1745 1627.59 1746.27 1627.62C1746.63 1627.63 1753.89 1633.53 1762.42 1640.74ZM1763.25 1696.66L1804.36 1737.2L1795.99 1745.54L1787.61 1753.87L1745.26 1744.23C1721.97 1738.92 1702.47 1734.61 1701.92 1734.63C1701.37 1734.66 1713.07 1746.56 1727.92 1761.07L1754.92 1787.46L1747.43 1795.04C1743.32 1799.21 1739.64 1802.5 1739.25 1802.36C1738.86 1802.22 1720.03 1783.92 1697.41 1761.7L1656.28 1721.29L1664.07 1713.45C1668.36 1709.14 1672.55 1705.62 1673.39 1705.63C1674.23 1705.64 1694.04 1710.08 1717.42 1715.5C1740.79 1720.91 1760.04 1725.24 1760.19 1725.12C1760.35 1724.99 1748.28 1712.78 1733.38 1697.99L1706.28 1671.1L1713.48 1663.31C1717.44 1659.03 1721.01 1655.66 1721.41 1655.82C1721.82 1655.98 1740.64 1674.35 1763.25 1696.66ZM428.974 1699.83C455.786 1724.01 459.554 1729.46 460.236 1745.05C460.578 1752.88 460.267 1755.2 457.948 1762.11C452.937 1777.04 437.296 1796.37 423.437 1804.75C413.406 1810.81 405.758 1812.92 395.558 1812.42C380.889 1811.71 376.804 1809.21 348.175 1783.5L330.354 1767.5L334.135 1763.12C336.214 1760.71 353.665 1741.21 372.915 1719.78L407.915 1680.83L410.915 1683.54C412.565 1685.03 420.692 1692.36 428.974 1699.83ZM389.415 1736.76C377.04 1750.56 365.631 1763.39 364.061 1765.27L361.208 1768.68L367.956 1774.89C387.507 1792.89 395.179 1795.09 408.579 1786.5C413.918 1783.08 426.508 1770.24 431.169 1763.47C438.531 1752.76 439.932 1742.58 435.16 1734.44C432.858 1730.51 413.967 1711.56 412.425 1711.63C412.144 1711.64 401.79 1722.95 389.415 1736.76ZM1675.63 1759.27C1688.44 1776.42 1700.72 1793.74 1702.92 1797.77C1706.79 1804.87 1706.92 1805.41 1706.92 1814.61C1706.92 1822.98 1706.58 1824.78 1704.13 1829.79C1699.38 1839.45 1684.73 1852.37 1671.79 1858.3C1667.42 1860.3 1663.83 1861.1 1657.78 1861.42C1643.65 1862.16 1636.08 1858.22 1624.2 1843.91C1615.11 1832.96 1578.41 1784.08 1578.47 1783C1578.53 1781.88 1594.79 1769.61 1596.2 1769.61C1596.77 1769.61 1606.13 1781.42 1617 1795.86C1648.55 1837.76 1649.37 1838.59 1659.2 1838.6C1671.22 1838.61 1684.42 1826.83 1684.4 1816.11C1684.39 1811.54 1678.55 1802.5 1657 1773.74C1644.5 1757.07 1634.06 1742.85 1633.8 1742.16C1633.32 1740.92 1650.17 1727.44 1651.63 1727.89C1652.03 1728.01 1662.83 1742.13 1675.63 1759.27ZM518.978 1776.69C523.893 1780.03 528.303 1783.14 528.776 1783.6C529.803 1784.59 503.304 1905.59 502.058 1905.6C501.587 1905.6 496.862 1902.61 491.558 1898.94C486.254 1895.28 481.827 1892.23 481.72 1892.17C481.613 1892.1 483.047 1886.01 484.908 1878.63C486.769 1871.25 488.132 1864.96 487.937 1864.64C487.742 1864.33 479.046 1858.28 468.611 1851.21L449.64 1838.36L439.278 1845.8C433.578 1849.88 428.402 1853.54 427.775 1853.91C427.149 1854.28 422.056 1851.48 416.457 1847.68L406.279 1840.78L420.097 1831.21C473.5 1794.25 508.07 1770.69 508.978 1770.65C509.562 1770.63 514.062 1773.34 518.978 1776.69ZM485.919 1812.32C476.572 1819.13 468.548 1825.07 468.09 1825.53C467.442 1826.18 491.336 1843.61 492.872 1843.61C493.385 1843.61 503.702 1800.54 503.269 1800.21C503.074 1800.06 495.267 1805.51 485.919 1812.32ZM571.793 1814.43C572.015 1814.8 568.426 1834.23 563.818 1857.61C559.209 1880.98 555.546 1900.69 555.677 1901.41C555.808 1902.13 565.815 1893.88 577.915 1883.08C590.015 1872.29 604.97 1858.95 611.149 1853.44L622.383 1843.43L632.575 1849.27C638.18 1852.48 642.78 1855.55 642.796 1856.1C642.812 1856.65 636.72 1862.27 629.257 1868.6C621.795 1874.93 601.027 1892.59 583.107 1907.86C565.186 1923.12 550.239 1935.61 549.892 1935.61C548.252 1935.61 528.415 1923.28 528.419 1922.27C528.423 1921.05 548.993 1807.73 549.902 1803.92C550.4 1801.83 550.899 1802 560.906 1807.74C566.672 1811.05 571.571 1814.06 571.793 1814.43ZM1555.92 1866.71C1582.32 1887.66 1604.28 1905.14 1604.72 1905.56C1605.47 1906.27 1585.42 1918.66 1583.69 1918.56C1583.27 1918.54 1578.42 1914.72 1572.92 1910.08C1567.42 1905.44 1562.4 1901.63 1561.77 1901.62C1560.87 1901.61 1522.79 1922.9 1521.62 1924.07C1521.45 1924.24 1522.4 1930.5 1523.73 1937.98C1525.48 1947.84 1525.84 1951.82 1525.03 1952.44C1522.15 1954.66 1505.16 1963.68 1504.71 1963.23C1503.94 1962.46 1486.32 1844.4 1486.64 1842.15C1486.82 1840.85 1490.26 1838.26 1496.92 1834.42C1502.42 1831.25 1507.14 1828.65 1507.42 1828.64C1507.69 1828.63 1529.52 1845.76 1555.92 1866.71ZM1443.93 1887.69C1438.16 1903.32 1433.44 1916.56 1433.45 1917.11C1433.45 1917.66 1448.35 1927.75 1466.56 1939.55C1484.76 1951.34 1500.52 1961.69 1501.58 1962.55C1503.39 1964.02 1502.74 1964.44 1490.4 1969.86C1483.19 1973.02 1476.85 1975.61 1476.31 1975.61C1475.77 1975.61 1464.01 1967.49 1450.18 1957.56C1432.3 1944.72 1424.84 1939.89 1424.32 1940.81C1423.93 1941.52 1421.73 1947.19 1419.44 1953.41L1415.29 1964.7L1422.42 1980.75C1426.34 1989.58 1429.41 1996.9 1429.23 1997.02C1427.93 1997.89 1409.39 2005.61 1408.61 2005.61C1407.5 2005.61 1362.15 1904.14 1362.01 1901.34C1361.94 1900.04 1364.53 1898.39 1371.79 1895.11C1377.22 1892.65 1381.94 1890.82 1382.29 1891.03C1382.63 1891.25 1387.4 1901.58 1392.88 1914C1398.37 1926.41 1403.14 1936.24 1403.48 1935.84C1403.83 1935.44 1408.93 1920.93 1414.81 1903.61C1420.69 1886.29 1425.82 1871.8 1426.21 1871.42C1427.14 1870.5 1453.79 1858.65 1454.15 1859C1454.29 1859.15 1449.7 1872.06 1443.93 1887.69ZM1510.42 1859.46C1510.42 1859.93 1511.99 1869.49 1513.91 1880.71C1515.84 1891.93 1517.41 1901.48 1517.41 1901.93C1517.41 1902.38 1518 1902.61 1518.72 1902.43C1520.99 1901.87 1544.42 1888.26 1544.42 1887.5C1544.42 1887.11 1536.77 1880.44 1527.42 1872.69C1518.07 1864.95 1510.42 1858.99 1510.42 1859.46ZM657.917 1864.61C663.325 1866.81 667.922 1868.78 668.131 1868.99C668.341 1869.2 660.631 1889.07 650.998 1913.14C641.366 1937.21 633.663 1957.2 633.88 1957.55C634.098 1957.9 646.007 1962.87 660.345 1968.58C675.647 1974.68 686.415 1979.5 686.415 1980.26C686.415 1981.4 680.665 1996.68 679.969 1997.38C679.657 1997.7 605.348 1967.87 604.611 1967.14C604.345 1966.87 607.517 1958.21 611.66 1947.88C615.802 1937.56 625.369 1913.7 632.918 1894.86C640.468 1876.02 646.969 1860.61 647.364 1860.61C647.76 1860.61 652.509 1862.41 657.917 1864.61ZM1360.99 1936.36C1366.89 1954.37 1374.98 1979.1 1378.95 1991.32L1386.17 2013.52L1375.23 2017.17C1369.21 2019.17 1364.14 2020.66 1363.95 2020.46C1363.58 2020.07 1328.25 1912.61 1328.05 1911.23C1327.91 1910.33 1345.61 1903.83 1348.58 1903.69C1349.9 1903.62 1352.49 1910.45 1360.99 1936.36ZM775.142 1909.16C784.985 1912.26 786.419 1912.99 786.443 1914.91C786.458 1916.12 788.216 1944.11 790.35 1977.11C792.484 2010.11 794.08 2037.26 793.897 2037.45C793.714 2037.64 788.401 2036.09 782.091 2034.02C770.629 2030.24 770.616 2030.24 770.027 2026.67C769.702 2024.71 769.425 2018.83 769.411 2013.61C769.396 2008.38 769.023 2003.54 768.582 2002.84C767.844 2001.68 727.274 1987.56 724.942 1987.65C724.377 1987.67 720.141 1992.57 715.528 1998.53L707.141 2009.37L695.296 2005.41L683.451 2001.44L690.984 1992.28C695.128 1987.23 712.782 1965.69 730.216 1944.39C747.651 1923.1 762.354 1905.66 762.892 1905.64C763.429 1905.62 768.941 1907.21 775.142 1909.16ZM1327.59 1970.61C1335.18 2000.58 1341.4 2025.84 1341.41 2026.74C1341.41 2028 1338.82 2029.02 1330.32 2031.13L1319.23 2033.88L1309.57 2024.45C1268.75 1984.55 1256.18 1972.51 1255.78 1972.91C1255.52 1973.17 1259.42 1989.45 1264.43 2009.1C1269.44 2028.74 1273.4 2044.96 1273.23 2045.13C1272.19 2046.17 1252.88 2050.35 1252.44 2049.63C1251.29 2047.72 1224.13 1938.56 1224.67 1938.02C1225.33 1937.35 1243.25 1932.66 1245.23 1932.63C1245.95 1932.62 1261.02 1946.75 1278.72 1964.03C1296.42 1981.32 1311 1995.36 1311.12 1995.24C1311.24 1995.11 1307.11 1978.4 1301.93 1958.09C1296.76 1937.78 1292.69 1921 1292.9 1920.79C1293.6 1920.08 1310.91 1915.77 1312.35 1915.94C1313.38 1916.06 1317.67 1931.46 1327.59 1970.61ZM829.568 1925.05C838.009 1926.94 856.165 1931.01 869.915 1934.1C901.404 1941.15 902.417 1941.43 902.407 1942.9C902.396 1944.67 898.755 1959.6 898.199 1960.16C897.938 1960.42 890.453 1958.98 881.565 1956.96C872.677 1954.94 865.265 1953.47 865.094 1953.7C864.922 1953.92 860.164 1974.81 854.52 2000.11C848.875 2025.41 843.955 2046.42 843.586 2046.8C842.474 2047.94 821.415 2042.6 821.415 2041.17C821.415 2040.47 825.915 2019.83 831.415 1995.31C836.915 1970.78 841.415 1950.1 841.415 1949.35C841.415 1948.4 836.482 1946.86 825.276 1944.32C816.399 1942.31 808.986 1940.51 808.803 1940.33C808.619 1940.15 808.874 1938.45 809.369 1936.55C809.864 1934.66 810.783 1930.52 811.413 1927.36C812.042 1924.2 812.931 1921.61 813.389 1921.61C813.846 1921.61 821.127 1923.16 829.568 1925.05ZM751.665 1952.68C744.377 1961.96 738.415 1969.92 738.415 1970.39C738.415 1970.85 744.975 1973.29 752.992 1975.81L767.569 1980.4L766.854 1959.75C766.461 1948.4 765.863 1938.37 765.527 1937.46C765.081 1936.27 761.326 1940.39 751.665 1952.68ZM1222.42 1939.11C1222.42 1939.39 1215.86 1952.72 1207.85 1968.73C1199.84 1984.74 1193.52 1998.35 1193.8 1998.97C1194.08 1999.6 1204.42 2012.03 1216.79 2026.61C1230.76 2043.07 1238.83 2053.35 1238.09 2053.74C1236.23 2054.73 1213.8 2056.97 1212.14 2056.33C1211.32 2056.02 1204.9 2048.86 1197.89 2040.43C1190.88 2032 1184.34 2024.25 1183.36 2023.21C1181.63 2021.38 1181.24 2021.97 1171.07 2042.31L1160.56 2063.3L1147.24 2064.87C1139.91 2065.73 1133.7 2066.22 1133.43 2065.95C1133.16 2065.69 1140.27 2051.13 1149.22 2033.59L1165.5 2001.72L1144.36 1976.47C1126.68 1955.35 1123.53 1951.11 1125.07 1950.56C1126.09 1950.19 1132.07 1949.33 1138.37 1948.64L1149.83 1947.39L1152.37 1950.29C1153.77 1951.88 1159.83 1958.98 1165.83 1966.06L1176.74 1978.94L1185.95 1960.52L1195.16 1942.11L1207.54 1940.49C1223.06 1938.45 1222.42 1938.51 1222.42 1939.11ZM983.415 1950.71C1007.89 1952.42 1028.08 1953.98 1028.29 1954.17C1028.49 1954.36 1028.33 1958.87 1027.94 1964.18L1027.21 1973.84L1021.56 1973.25C1018.46 1972.92 1010.89 1972.36 1004.74 1971.99L993.557 1971.33L993.021 1974.72C992.727 1976.58 991.548 1992.28 990.402 2009.61C989.256 2026.93 987.895 2046.28 987.377 2052.61C986.859 2058.93 986.431 2064.92 986.425 2065.91C986.416 2067.55 985.648 2067.66 977.665 2067.11C972.853 2066.78 967.552 2066.31 965.886 2066.06L962.858 2065.6L966.169 2017.97C967.989 1991.77 969.285 1970.14 969.048 1969.91C968.811 1969.67 961.146 1968.98 952.016 1968.38L935.415 1967.28L935.422 1964.19C935.439 1956.91 936.778 1947.61 937.81 1947.6C938.418 1947.59 958.94 1948.99 983.415 1950.71ZM1119.65 1960.86C1119.91 1965.95 1119.92 1970.33 1119.69 1970.61C1119.45 1970.88 1106.58 1971.4 1091.08 1971.75C1075.59 1972.1 1061.68 1972.44 1060.17 1972.5C1057.44 1972.61 1057.42 1972.68 1057.42 1979.46C1057.42 1983.23 1057.69 1988.97 1058.03 1992.23L1058.65 1998.14L1062.28 1997.9C1064.28 1997.78 1077.28 1997.5 1091.17 1997.3L1116.42 1996.92V2006.61V2016.29L1099.76 2016.95C1090.59 2017.31 1077.47 2017.61 1070.6 2017.61H1058.11L1058.81 2033.32C1059.2 2041.97 1059.61 2049.12 1059.72 2049.22C1059.83 2049.32 1074.09 2049.06 1091.42 2048.64C1108.74 2048.22 1123.25 2048.06 1123.67 2048.3C1124.08 2048.53 1124.42 2052.92 1124.42 2058.06V2067.38L1101.67 2068C1089.15 2068.34 1069.38 2068.88 1057.73 2069.21L1036.54 2069.8L1036.05 2066.45C1035.3 2061.39 1033.37 1954.32 1034.02 1953.67C1034.58 1953.11 1068.52 1952.17 1101.54 1951.8L1119.17 1951.61L1119.65 1960.86Z" fill="white"/>
</svg>
