<svg width="40" height="40" viewBox="0 0 40 40" fill="none" xmlns="http://www.w3.org/2000/svg">
    <path d="M0 3.74494C0 1.67497 1.67747 0 3.74994 0H6.24989C8.31736 0 9.99733 1.67497 9.99733 3.74494V36.1994C9.99733 38.2668 8.31736 39.9418 6.24739 39.9418H3.74744C1.67747 39.9418 0 38.2668 0 36.1994V3.74494ZM3.74994 2.49496C3.41842 2.49496 3.10048 2.62665 2.86607 2.86107C2.63165 3.09548 2.49996 3.41342 2.49996 3.74494V36.1994C2.50062 36.5305 2.63261 36.8478 2.86695 37.0816C3.10129 37.3155 3.41885 37.4469 3.74994 37.4469H6.24989C6.58097 37.4462 6.89827 37.3142 7.13215 37.0799C7.36602 36.8455 7.49737 36.528 7.49737 36.1969V3.74744C7.49737 3.41592 7.36568 3.09798 7.13126 2.86357C6.89684 2.62915 6.57891 2.49746 6.24739 2.49746H3.74744L3.74994 2.49496ZM12.4948 3.74494C12.4948 1.67497 14.1748 0 16.2447 0H18.7447C20.8146 0 22.4921 1.67497 22.4921 3.74494V36.1994C22.4921 38.2668 20.8146 39.9418 18.7422 39.9418H16.2422C14.1748 39.9418 12.4948 38.2668 12.4948 36.1994V3.74494ZM16.2447 2.49496C15.9132 2.49496 15.5953 2.62665 15.3609 2.86107C15.1264 3.09548 14.9947 3.41342 14.9947 3.74494V36.1994C14.9954 36.5305 15.1274 36.8478 15.3617 37.0816C15.5961 37.3155 15.9136 37.4469 16.2447 37.4469H18.7447C19.0762 37.4469 19.3941 37.3152 19.6285 37.0807C19.863 36.8463 19.9947 36.5284 19.9947 36.1969V3.74744C19.9947 3.41592 19.863 3.09798 19.6285 2.86357C19.3941 2.62915 19.0762 2.49746 18.7447 2.49746H16.2447V2.49496ZM34.2944 10.3923C34.1802 9.89744 33.9666 9.43091 33.6667 9.02104C33.3667 8.61118 32.9867 8.26652 32.5495 8.00796C32.1124 7.74941 31.6272 7.58235 31.1236 7.51693C30.6199 7.45151 30.1082 7.48908 29.6195 7.62737L27.757 8.15236C26.8476 8.4096 26.0691 9.00116 25.5777 9.80838C25.0862 10.6156 24.9181 11.5788 25.1071 12.5048L30.1145 37.0044C30.2168 37.5009 30.4187 37.9715 30.708 38.3878C30.9973 38.8041 31.3681 39.1574 31.7978 39.4263C32.2275 39.6953 32.7073 39.8743 33.2082 39.9526C33.7091 40.0309 34.2206 40.0068 34.7119 39.8818L37.1744 39.2568C39.1493 38.7568 40.3593 36.7719 39.9043 34.7894L34.2944 10.3898V10.3923ZM30.2995 10.0298C30.4624 9.98345 30.633 9.97066 30.801 9.99224C30.969 10.0138 31.1308 10.0693 31.2767 10.1553C31.4226 10.2414 31.5495 10.3562 31.6497 10.4927C31.7498 10.6293 31.8212 10.7848 31.8595 10.9498L37.4669 35.3494C37.5388 35.667 37.484 36.0002 37.3141 36.278C37.1441 36.5558 36.8724 36.7563 36.5569 36.8369L34.0944 37.4619C33.9308 37.5035 33.7604 37.5116 33.5935 37.4856C33.4266 37.4597 33.2668 37.4001 33.1235 37.3106C32.9803 37.2211 32.8567 37.1036 32.7602 36.965C32.6637 36.8264 32.5962 36.6697 32.5619 36.5044L27.5545 12.0048C27.4921 11.6964 27.5483 11.3758 27.7119 11.107C27.8755 10.8383 28.1344 10.6411 28.437 10.5548L30.2995 10.0298Z"
          fill="#37363C"/>
</svg>
