<svg width="40" height="40" viewBox="0 0 40 40" fill="none" xmlns="http://www.w3.org/2000/svg">
    <path d="M35 2.63028C35.663 2.63028 36.2989 2.89896 36.7678 3.37722C37.2366 3.85548 37.5 4.50413 37.5 5.18049V25.5821C37.5 26.2585 37.2366 26.9071 36.7678 27.3854C36.2989 27.8636 35.663 28.1323 35 28.1323H11.035C9.70903 28.1326 8.43746 28.6702 7.5 29.6267L2.5 34.7271V5.18049C2.5 4.50413 2.76339 3.85548 3.23223 3.37722C3.70107 2.89896 4.33696 2.63028 5 2.63028H35ZM5 0.0800781C3.67392 0.0800781 2.40215 0.617441 1.46447 1.57395C0.526784 2.53047 0 3.82777 0 5.18049L0 37.8052C5.25372e-05 38.0576 0.0734815 38.3042 0.210993 38.5139C0.348505 38.7236 0.543917 38.887 0.772498 38.9834C1.00108 39.0798 1.25255 39.1048 1.49509 39.0553C1.73763 39.0059 1.96033 38.8841 2.135 38.7055L9.2675 31.4297C9.73623 30.9514 10.372 30.6827 11.035 30.6825H35C36.3261 30.6825 37.5979 30.1452 38.5355 29.1887C39.4732 28.2321 40 26.9348 40 25.5821V5.18049C40 3.82777 39.4732 2.53047 38.5355 1.57395C37.5979 0.617441 36.3261 0.0800781 35 0.0800781L5 0.0800781Z"
          fill="#37363C"/>
</svg>
