<svg width="40" height="32" viewBox="0 0 40 32" fill="none" xmlns="http://www.w3.org/2000/svg">
    <path d="M38.5714 0H1.42857C0.638393 0 0 0.638393 0 1.42857V30C0 30.7902 0.638393 31.4286 1.42857 31.4286H38.5714C39.3616 31.4286 40 30.7902 40 30V1.42857C40 0.638393 39.3616 0 38.5714 0ZM36.7857 4.94643V28.2143H3.21429V4.94643L1.98214 3.98661L3.73661 1.73214L5.64732 3.21875H34.3571L36.2679 1.73214L38.0223 3.98661L36.7857 4.94643ZM34.3571 3.21429L20 14.375L5.64286 3.21429L3.73214 1.72768L1.97768 3.98214L3.20982 4.94197L18.4598 16.7991C18.8984 17.1398 19.4379 17.3248 19.9933 17.3248C20.5487 17.3248 21.0882 17.1398 21.5268 16.7991L36.7857 4.94643L38.0179 3.98661L36.2634 1.73214L34.3571 3.21429Z"
          fill="#37363C"/>
</svg>
