<svg width="737" height="628" viewBox="0 0 737 628" fill="none" xmlns="http://www.w3.org/2000/svg">
    <path d="M600.567 252.913C603.239 251.623 608.939 249.042 610.364 249.04C611.057 248.742 612.621 248.444 613.335 249.631C616.309 252.795 622.377 260.313 622.858 265.064C623.157 265.955 623.397 268.034 621.972 269.224C620.39 270.612 616.453 273.745 613.366 275.174L612.772 275.472C613.766 278.639 615.636 286.161 615.167 290.914C617.823 292.004 607.064 303.823 610.989 305.31C612.576 304.864 614.806 304.387 617.85 303.873C614.148 305.365 612.041 305.708 610.989 305.31C601.368 308.013 615.393 309.549 615.191 310.774C614.503 315.527 624.343 314.308 621.732 316.45C621.04 317.045 618.883 318.117 615.793 317.645C613.714 317.351 609.436 316.702 608.96 316.465L608.366 316.169C606.687 319.537 602.379 326.869 598.58 329.25C599.87 331.624 586.101 329.607 586.103 331.745C586.005 332.637 573.304 329.934 589.649 337.281C585.593 340.157 587.676 351.302 584.35 351.543C583.756 351.742 582.33 351.724 581.378 350.062C580.327 348.883 574.928 340.883 571.261 335.131L571.271 343.208C571.353 343.608 571.362 343.836 571.272 343.836L571.271 343.208C570.706 340.461 566.688 329.634 567.811 329.287C567.972 329.848 569.391 332.197 571.261 335.131L571.221 301.957L505.58 302.036C504.983 299.066 503.984 292.105 504.455 288.065C501.88 287.177 496.412 285.057 495.459 283.633C495.063 283.336 494.329 282.386 494.565 280.96C494.758 276.406 496.211 266.345 500.483 262.538C501.77 261.943 505.828 261.284 511.771 263.416C513.846 259.948 518.946 252.536 522.746 250.631C521.554 248.157 519.172 242.794 519.17 241.13C518.773 240.339 518.454 238.517 520.354 237.565C524.211 234.59 532.64 228.699 535.491 228.933C536.283 228.536 538.282 228.276 539.948 230.413C541.435 231.995 544.648 235.753 545.601 238.128L561.636 234.544C563.019 232.068 565.963 226.995 566.675 226.519C567.17 225.924 568.396 224.735 569.346 224.734C574.496 225.42 585.448 227.506 588.065 230.354C589.056 230.848 590.268 234.094 587.19 243.127C590.757 245.4 598.248 250.599 599.677 253.211L600.567 252.913Z"
          fill="#62C1C5"/>
    <path d="M618.467 322.69C617.073 322.99 610.957 321.671 608.073 320.974L607.14 320.872C606.295 323.727 600.071 330.391 597.065 333.366C601.982 341.545 601.484 344.974 600.62 345.666C598.664 349.002 588.399 353.355 583.511 355.115C582.582 355.314 581.132 354.411 580.523 353.934C579.726 353.619 575.777 349.283 573.902 347.154L557.472 347.04C557.042 349.563 554.696 353.915 553.577 355.775C552.4 358.215 550.391 358.384 549.533 358.163C546.795 358.995 537.312 355.017 532.913 352.925C530.855 352.395 530.782 350.547 531.003 349.69C530.653 348.064 531.849 342.318 532.49 339.648C528.374 338.589 521.823 332.422 519.063 329.471C513.704 332.81 509.598 333.024 508.215 332.714C503.235 329.895 499.688 320.369 498.538 315.958C498.006 314.614 498.523 313.53 498.847 313.157C499.477 311.563 504.293 308.341 506.623 306.929C505.31 303.079 504.468 291 504.425 287.971L569.027 279.239C586 282.957 612.559 277.137 614.082 280.514C615.605 283.891 615.538 293.041 615.236 296.346L615.879 296.512C619.199 297.256 623.709 299.487 625.549 300.51C627.192 301.372 627.397 303.454 627.293 304.388C627.827 309.134 623.484 317.764 621.246 321.485C620.799 322.796 619.207 322.835 618.467 322.69Z"
          fill="#62C1C5"/>
    <path d="M527.054 257.681C531.505 253.233 543.719 244.35 556.957 244.399" stroke="white" stroke-width="0.626894"/>
    <circle cx="561.018" cy="294.336" r="25.2466" transform="rotate(-20.8266 561.018 294.336)" fill="white"/>
    <circle cx="561.018" cy="294.337" r="35.6259" transform="rotate(-20.8266 561.018 294.337)" stroke="white"
            stroke-width="0.626894"/>
    <path d="M609.717 278.67C612.247 286.712 614.459 306.675 603.074 322.191C600.438 325.842 594.02 333.644 589.441 335.64C584.862 337.636 586.978 336.683 588.608 335.957"
          stroke="white" stroke-width="0.626894"/>
    <path d="M644.03 115.372C636.925 107.182 624.008 104.633 618.437 104.383L612.416 112.663C612.416 112.663 607.906 132.315 616 138.5C621.799 142.932 634.546 140.815 634.546 140.815C634.546 140.815 748.69 150.631 735.563 133.89C722.435 117.149 710.622 118.584 706.357 121.394C702.382 123.683 697.876 120.441 696.119 118.534C672.152 92.399 656.325 102.124 651.407 110.254C651.166 116.637 646.389 116.326 644.03 115.372Z"
          fill="#C9E7E7"/>
    <path d="M612.914 78.274C617.909 77.8411 628.463 77.1889 630.716 78.0429C631.989 77.9886 634.639 78.4562 635.054 80.7607C637.85 87.5464 642.918 103.067 640.823 110.861C640.758 112.447 639.889 115.875 636.924 116.899C633.59 118.14 625.489 120.724 619.754 121.127L618.637 121.241C618.304 126.84 616.739 139.846 613.141 147.072C616.682 150.389 592.586 162.594 597.892 167.3C600.667 167.55 604.477 168.135 609.592 169.153C602.849 169.284 599.315 168.562 597.892 167.3C581.07 165.789 602.302 176.643 601.246 178.455C597.305 185.55 613.579 189.538 608.168 191.352C606.717 191.876 602.666 192.273 598.069 189.671C594.961 187.957 588.593 184.362 587.985 183.702L587.224 182.877C582.548 187.188 571.338 196.181 563.907 197.659C564.517 202.185 543.98 190.725 542.699 194.104C542.009 195.453 523.57 183.552 544.974 204.978C536.839 207.084 533.433 225.94 528.034 224.323C526.976 224.28 524.735 223.394 524.229 220.197C523.278 217.703 519.556 201.823 517.221 190.534L512.383 203.298C512.273 203.979 512.15 204.345 512.007 204.291L512.383 203.298C513.141 198.62 513.3 179.103 515.283 179.229C515.2 180.213 516.03 184.776 517.221 190.534L537.091 138.109L433.359 98.792C434.199 93.7424 436.805 82.1464 439.976 76.0476C436.441 73.0976 429.078 66.4641 428.43 63.6418C427.982 62.9353 427.393 60.9944 428.623 58.8837C431.663 51.8052 440.004 36.7866 449.04 33.3404C451.43 33.1726 458.236 34.5713 466.343 41.5089C471.704 37.2782 484.213 28.635 491.36 27.9081C490.965 23.285 490.424 13.3817 491.42 10.7532C491.269 9.26432 491.859 6.19571 495.433 5.83229C503.313 3.45126 520.166 -0.789934 524.53 1.29345C526.019 1.142 529.334 1.93307 530.681 6.30885C532.079 9.70119 534.896 17.5671 534.974 21.8921L562.455 25.8664C566.128 22.7851 573.827 16.5416 575.238 16.2175C576.376 15.5753 579.028 14.4331 580.53 15.0024C588.251 19.1813 604.298 29.0569 606.721 35.1285C607.989 36.5038 607.952 42.3592 597.663 54.778C601.931 60.5114 610.64 73.2244 611.328 78.2088L612.914 78.274Z"
          fill="#62C1C5"/>
    <path d="M599.261 199.247C596.88 198.882 588.011 193.125 583.874 190.291L582.461 189.568C579.411 193.57 565.577 200.357 559.04 203.25C561.893 219.124 559.046 224.24 557.265 224.814C552.17 228.91 533.341 229.618 524.563 229.46C522.975 229.217 521.228 226.918 520.553 225.8C519.483 224.824 515.85 215.601 514.167 211.112L488.284 201.059C486.088 204.786 479.768 210.251 476.883 212.517C473.557 215.664 470.282 214.723 469.06 213.859C464.236 213.527 451.647 201.547 445.956 195.599C443.023 193.525 444.018 190.563 444.882 189.341C445.307 186.562 450.648 178.205 453.265 174.374C447.4 170.226 440.758 156.549 438.17 150.229C427.7 152.283 421.086 150.154 419.087 148.833C412.914 141.389 413.036 124.21 413.87 116.551C413.837 114.109 415.304 112.708 416.041 112.313C417.993 110.174 427.538 107.978 432.066 107.148C432.304 100.278 438.233 80.6922 439.984 75.8821L547.276 100.905C571.851 116.978 617.3 123.742 617.677 129.991C618.053 136.24 612.45 150.653 609.987 155.693L610.903 156.341C615.699 159.512 621.482 165.746 623.774 168.466C625.852 170.815 624.924 174.228 624.2 175.64C622.192 183.458 610.147 194.48 604.375 199.013C602.881 200.816 600.343 199.92 599.261 199.247Z"
          fill="#62C1C5"/>
    <path d="M493.929 41.6317C503.633 37.2814 528.263 30.5886 549.145 38.62" stroke="white" stroke-width="0.626894"/>
    <circle cx="525.553" cy="119.938" r="42.6667" fill="white"/>
    <circle cx="525.553" cy="119.939" r="60.4238" stroke="white" stroke-width="0.626894"/>
    <path d="M611.89 124.455C611.054 138.678 602.554 171.539 575.247 189.208C568.889 193.391 554.064 201.858 545.631 202.259C537.198 202.661 541.114 202.427 544.126 202.259"
          stroke="white" stroke-width="0.626894"/>
    <path d="M366.934 83.7975C373.76 95.0414 372.455 124.624 370.95 138.009H244.455C274.975 88.6163 338.824 81.2877 366.934 83.7975Z"
          fill="#18898D"/>
    <path d="M334.809 138.508L371.452 96.3438" stroke="white" stroke-width="0.626894"/>
    <path d="M273.454 138.699L269.927 111.404" stroke="white" stroke-width="0.626894"/>
    <path d="M110.442 171.399C191.99 166.33 222.81 214.341 215.793 222.753C221.313 227.27 216.255 248.967 219.73 265.652L212.728 298.199L213.335 302.516C213.335 308.514 226.907 352.83 212.068 354.558C102.141 296.328 86.3473 222.093 110.442 171.399Z"
          fill="#E5D247"/>
    <path d="M212.837 291.105L118.466 170.632L111.436 170.631L115.952 172.137L212.335 294.619L212.837 291.105Z"
          fill="white"/>
    <path d="M167.152 234.883L174.18 180.671" stroke="white" stroke-width="0.626894"/>
    <path d="M124.485 273.035L198.647 275.356" stroke="white" stroke-width="0.626894"/>
    <path d="M187.462 507.192C176.98 499.25 169.488 475.64 167.053 464.828L151 470.56L163.833 512.052C167.831 519.791 167.93 528.936 167.48 532.541C166.639 533.418 168.133 570.057 168.985 588.267L179.084 588.267L187.392 534.267C188.681 528.18 187.975 513.681 187.462 507.192Z"
          fill="#0A3C5F"/>
    <path d="M158.638 512.035C157.25 500.24 152.322 476.277 153.665 465.275H136.619L134.751 508.666C135.914 517.299 132.932 525.945 131.296 529.188C130.209 529.731 119.294 564.739 113.973 582.175L123.483 585.571L149.467 537.51C152.728 532.211 156.94 518.319 158.638 512.035Z"
          fill="#0A3C5F"/>
    <path d="M122.395 585.122C120.04 584.263 115.271 582.545 115.03 582.545L113.484 588.837C113.751 591.426 117.715 591.038 119.663 590.848L119.683 590.846L122.395 585.122Z"
          fill="#E5B68C"/>
    <path d="M222.369 46.6543C246.463 54.6857 265.538 91.8308 272.063 109.399C266.843 111.407 251.148 129.645 243.953 138.513H212.33V209.792C204.7 198.548 183.049 185.028 173.177 179.674C152.295 100.163 197.271 57.8648 222.369 46.6543Z"
          fill="#222B54"/>
    <path d="M234.416 138.513L223.875 47.6582L222.369 46.6543L221.867 48.1602L231.906 138.513H234.416Z" fill="#72A4A7"/>
    <path d="M188.235 77.2734L228.894 104.881" stroke="#72A4A7" stroke-width="0.626894"/>
    <path d="M168.373 155.008L214.096 184.667" stroke="#72A4A7" stroke-width="0.626894"/>
    <path d="M135.53 192.22C157.951 193.224 203.495 185.695 206.306 147.545C202.96 106.385 215.743 28.1792 293.648 44.6435"
          stroke="#72A4A7" stroke-width="0.940341" stroke-dasharray="3.13 3.13"/>
    <path d="M50.6257 242.914L76.2366 222.533" stroke="#65BCC3" stroke-width="0.940341" stroke-dasharray="3.13 3.13"/>
    <path d="M323.068 52.4658L379.805 47.2109L320.022 58.7868L316.747 50.1811L323.068 52.4658Z" fill="#A3D2D4"/>
    <path d="M379.804 47.9715L323.829 52.998L316.975 50.5609L304.79 46.22L312.711 38.0712L370.822 46.6462L316.366 35.9388L329.16 32.8164L345.915 34.2634L379.804 47.9715Z"
          fill="#BBE2E2"/>
    <path d="M367.945 46.183L316.453 35.5723V38.7212L367.945 46.183Z" fill="#D0E5E5"/>
    <path d="M114.448 247.936L224.377 584.751H230.903L120.471 247.936H114.448Z" fill="#65C1BA"/>
    <path d="M172.173 248.438L282.102 585.253H288.628L178.196 248.438H172.173Z" fill="#65C1BA"/>
    <path d="M269.553 540.578H214.338" stroke="#65C1BA" stroke-width="1.25379"/>
    <path d="M259.514 506.445H204.298" stroke="#65C1BA" stroke-width="1.25379"/>
    <path d="M248.471 472.312H193.256" stroke="#65C1BA" stroke-width="1.25379"/>
    <path d="M234.416 438.18H179.201" stroke="#65C1BA" stroke-width="1.25379"/>
    <path d="M223.373 404.047H168.157" stroke="#65C1BA" stroke-width="1.25379"/>
    <path d="M215.342 370.916H160.126" stroke="#65C1BA" stroke-width="1.25379"/>
    <path d="M204.298 337.785H149.082" stroke="#65C1BA" stroke-width="1.25379"/>
    <path d="M192.252 305.66H137.036" stroke="#65C1BA" stroke-width="1.25379"/>
    <path d="M181.208 272.529H125.992" stroke="#65C1BA" stroke-width="1.25379"/>
    <path d="M174.181 248.441L64.2513 585.257H57.7258L168.157 248.441H174.181Z" fill="#0E3D5F"/>
    <path d="M116.455 248.943L6.52598 585.759H0.000488281L110.432 248.943H116.455Z" fill="#0E3D5F"/>
    <path d="M19.0748 541.084H74.2905" stroke="#0E3D5F" stroke-width="1.25379"/>
    <path d="M29.1143 506.951H84.33" stroke="#0E3D5F" stroke-width="1.25379"/>
    <path d="M40.157 472.818H95.3727" stroke="#0E3D5F" stroke-width="1.25379"/>
    <path d="M54.212 438.686H109.428" stroke="#0E3D5F" stroke-width="1.25379"/>
    <path d="M65.2555 404.553H120.471" stroke="#0E3D5F" stroke-width="1.25379"/>
    <path d="M73.2867 371.422H128.502" stroke="#0E3D5F" stroke-width="1.25379"/>
    <path d="M84.3303 338.291H139.546" stroke="#0E3D5F" stroke-width="1.25379"/>
    <path d="M96.3767 306.166H151.592" stroke="#0E3D5F" stroke-width="1.25379"/>
    <path d="M107.42 273.035H162.636" stroke="#0E3D5F" stroke-width="1.25379"/>
    <path d="M118.965 166.245V163.233L110.487 160.226V141.258C109.684 139.25 107.159 139.258 106.112 139.82C104.506 141.025 104.237 144.445 105.914 144.66V165.743C107.119 168.152 111.436 169.089 113.444 169.257C117.459 169.658 118.798 167.416 118.965 166.245Z"
          fill="#E5A383"/>
    <path d="M119.401 151.522C116.991 154.333 114.683 152.877 113.846 151.705C111.598 151.584 106.844 150.891 105.807 149.088L103.834 140.182C105.225 139.506 108.084 138.142 108.4 138.097C108.715 138.052 112.228 135.761 113.945 134.621L123.412 134.759C124.215 136.767 124.487 145.664 124.487 149.68C122.077 149.278 120.07 150.852 119.401 151.522Z"
          fill="#E5B690"/>
    <path d="M113.946 151.688C114.749 152.893 116.957 152.859 117.961 152.691C119.969 149.88 123.303 149.336 124.474 149.67C123.671 150.072 123.315 154.03 123.483 155.704C123.884 156.507 124.988 157.377 125.49 157.711C126.695 162.53 124.654 164.07 123.483 164.237C121.073 164.237 113.778 161.56 110.432 160.221V141.147C109.628 139.54 107.754 139.474 106.918 139.641C105.312 140.042 104.91 142.151 104.91 143.155C104.91 143.958 105.579 144.493 105.914 144.66V154.7H104.408C104.007 152.29 102.902 140.31 102.4 134.621C101.196 129.802 106.249 127.594 108.926 127.092C114.949 129.501 123.817 128.43 127.498 127.594C129.105 130.003 127.833 132.948 126.997 134.119C125.792 135.324 117.794 134.956 113.946 134.621V151.688Z"
          fill="#222B54"/>
    <path d="M140.549 170.262C136.533 165.443 136.534 159.721 137.036 157.713L130.008 157.211C129.607 158.416 130.51 164.573 131.012 167.25C131.815 170.061 134.526 172.772 136.534 173.274C139.345 173.675 140.382 171.433 140.549 170.262Z"
          fill="#65B8BE"/>
    <path d="M137.036 157.713L133.522 157.211C133.12 163.234 137.554 170.764 139.06 172.772C140.064 172.27 140.566 170.931 140.566 170.262C139.06 168.756 136.031 162.733 137.036 157.713Z"
          fill="#62C1C5"/>
    <path d="M154.102 139.139C148.48 143.556 133.096 147.668 126.738 149.173V157.71C141.998 156.907 151.631 161.926 154.55 163.312L154.102 139.139Z"
          fill="#A3D2D4"/>
    <ellipse cx="154.604" cy="151.186" rx="4.01569" ry="12.0471" fill="#65B8BE"/>
    <path d="M151.09 147.17C151.926 147.505 154.704 148.375 155.105 149.178V152.19C154.817 152.766 151.491 155.201 151.09 155.201C150.588 155.703 150.588 151.186 150.588 151.186C150.588 151.186 150.427 146.904 151.09 147.17Z"
          fill="#E5A611"/>
    <path d="M123.233 151.184C124.036 149.979 125.91 149.343 126.746 149.176V157.709C124.738 157.709 123.567 156.705 123.233 156.203V151.184Z"
          fill="#E5A611"/>
    <path d="M136.877 162.068H134.869V164.578H137.379L136.877 162.068Z" fill="#E5A611"/>
    <path d="M82.3976 360.578V355.592H74.8945L74.8369 360.548C77.4614 363.043 80.9901 361.553 82.3976 360.578Z"
          fill="#E5B094"/>
    <path d="M97.4093 366.829C90.3931 366.615 84.5207 362.495 82.4615 360.461C79.7593 362.276 76.2084 361.217 74.7708 360.461C72.7029 361.348 72.5616 364.289 72.7495 365.648V371.024H78.6812V369.128C82.1012 368.862 86.8665 370.281 88.8217 371.024H100.269C100.025 368.156 98.2609 367.032 97.4093 366.829Z"
          fill="#212855"/>
    <path d="M123.12 360.768V355.579L115.617 355.338L115.56 360.737C118.184 363.232 121.713 361.742 123.12 360.768Z"
          fill="#E5B094"/>
    <path d="M138.132 367.02C131.116 366.807 125.243 362.686 123.184 360.652C120.482 362.468 116.931 361.409 115.494 360.652C113.426 361.54 113.284 364.48 113.472 365.839V371.215H119.404V369.319C122.824 369.054 127.589 370.473 129.544 371.215H140.992C140.748 368.347 138.984 367.224 138.132 367.02Z"
          fill="#212855"/>
    <path d="M125.769 355.59L125.483 237.016H86.0164C89.8858 249.407 78.665 321.468 72.6886 355.59H84.2854L107.151 284.341L113.954 355.59H125.769Z"
          fill="#18898D"/>
    <path d="M111.143 266.296C112.645 262.736 114.608 244.822 115.395 236.797H86.2262C90.5764 258.555 78.6531 325.515 72.6886 355.788H84.2854L100.386 305.46C104.079 296.723 109.096 275.711 111.143 266.296Z"
          fill="#18898D"/>
    <path d="M94.8853 240.715L89.0786 242.463L91.8326 249.089C92.2037 250.441 94.55 252.126 95.6767 252.8C95.6767 252.8 102.238 253.276 103.911 252.585C105.226 252.042 105.309 251.375 105.088 250.679L94.8853 240.715Z"
          fill="#E5A383"/>
    <path d="M125.993 174.274C122.78 169.054 119.969 166.745 118.965 166.243C114.95 172.668 108.257 168.251 105.412 165.239C101.396 164.436 96.042 167.247 93.8669 168.753C85.8355 175.981 77.135 190.839 73.7887 197.365C70.9777 203.388 71.9481 208.575 72.7847 210.416C74.391 217.644 84.1625 234.844 88.8475 242.541L97.3808 240.031L96.3769 237.02H125.491V208.91L141.553 220.957C148.782 226.98 152.931 220.12 154.102 215.937C156.11 203.087 150.923 184.146 148.079 176.282H138.542C140.148 179.093 139.88 191.508 139.546 197.365C133.522 192.947 128 180.131 125.993 174.274Z"
          fill="#D8E5E5"/>
    <path d="M103.906 183.812C99.8905 187.159 91.6584 194.755 90.8552 198.369C90.0186 199.708 88.4398 203.489 89.6445 207.907L97.2986 240.059"
          stroke="#A8D0D2" stroke-width="0.313447"/>
    <path d="M125.615 181.303V237.02" stroke="#A8D0D2" stroke-width="0.313447"/>
    <path d="M146.814 176.234H138.747L135.558 172.893C137.173 173.333 138.297 173.099 139.134 172.722L139.675 172.329L140.079 171.796C140.176 171.62 140.283 171.396 140.357 171.235C140.357 171.235 140.537 170.726 140.537 170.314C140.357 170.016 140.409 170.073 140.318 169.969L136.031 169.756C134.425 168.953 134.024 165.239 134.023 164.234C135.028 164.235 139.043 164.234 139.043 164.234C142.657 165.038 145.81 172.72 146.814 176.234Z"
          fill="#E5A383"/>
    <path d="M212.33 138.51V573.208C214.739 584.452 226.05 586.594 231.405 586.259H531.075C541.918 585.456 544.963 576.889 545.13 572.706V138.51H212.33Z"
          fill="#1F2C53"/>
    <path d="M520.033 183.686H239.938V528.031H520.033V183.686Z" fill="#62C1C5"/>
    <circle cx="373.46" cy="565.178" r="13.7415" stroke="white" stroke-width="0.626894"/>
    <circle cx="373.459" cy="565.176" r="12.0471" fill="#62C1C5"/>
    <rect x="359.133" y="149.219" width="37.3021" height="7.96086" rx="3.98043" fill="#62C1C5"/>
    <rect x="239.937" y="183.688" width="280.094" height="25.0981" fill="#00666B"/>
    <rect x="249.977" y="190.717" width="94.3687" height="11.0431" fill="#D1E5E5"/>
    <rect x="484.895" y="191.719" width="27.1059" height="11.0431" fill="#D1E5E5"/>
    <rect x="252.988" y="192.723" width="4.01569" height="8.03138" fill="#72A5A7"/>
    <circle cx="449.756" cy="196.738" r="5.01961" fill="#E5E5E5"/>
    <circle cx="465.82" cy="196.738" r="5.01961" fill="#E5D446"/>
    <path d="M496.942 338.293L269.554 347.83L264.032 495.407H503.97L496.942 338.293Z" fill="#18898D"/>
    <rect x="300.173" y="396.518" width="184.722" height="15.0588" fill="#E5E5E5"/>
    <path d="M484.393 365.397C419.807 364.895 290.134 363.891 288.126 363.891L294.652 384.973L484.393 383.969V365.397Z"
          fill="#E5E5E5"/>
    <path d="M355.891 280.565L254.495 336.283L253.993 321.726L358.903 265.506L378.479 289.099L461.303 240.91L455.781 234.385L492.926 225.35L474.354 257.475L468.832 249.946L374.965 304.157L355.891 280.565Z"
          fill="#D1E5E5"/>
    <rect x="326.275" y="424.627" width="70.2746" height="13.051" fill="#E5E5E5"/>
    <path d="M567.718 217.322L567.216 212.807H561.193L562.197 215.818L567.718 217.322Z" fill="#E5AC8B"/>
    <path d="M582.777 227.863C572.738 225.454 569.224 219.832 568.722 217.322C567.116 217.322 563.368 215.984 561.695 215.314C560.088 216.519 558.348 219.832 557.679 221.338L561.695 224.852L563.702 223.848L569.224 229.871H582.777C583.178 229.47 582.944 228.365 582.777 227.863Z"
          fill="#06626F"/>
    <path d="M530.073 215.322L532.582 209.793L526.557 208.288L523.545 213.809L530.073 215.322Z" fill="#E5AC8B"/>
    <path d="M544.126 225.352C534.087 222.942 530.573 217.32 530.071 214.811C528.465 214.811 524.717 213.472 523.044 212.803C521.437 214.007 519.697 217.32 519.028 218.826L523.044 222.34L525.051 221.336L530.573 227.36H544.126C544.528 226.958 544.293 225.854 544.126 225.352Z"
          fill="#06626F"/>
    <path d="M530.982 116.428H494.432C491.621 130.884 500.623 136.841 505.475 138.012L545.632 139.518L524.55 207.785L535.091 210.796L548.644 178.671L559.185 212.804H568.723L559.185 152.569L567.217 133.996C568.421 129.981 566.38 126.969 565.209 125.965C561.595 123.556 541.189 118.603 530.982 116.428Z"
          fill="#0B3B60"/>
    <path d="M567.398 126.406L580.035 89.2638L578.05 88.6767L565.979 124.336L535.623 117.516L535.014 120.002L564.891 126.299L565.414 125.819L567.398 126.406Z"
          fill="#1C8A8B"/>
    <path d="M545.13 109.902H541.616L541.115 115.926H545.13C545.933 117.13 547.807 118.101 548.644 118.435C549.849 119.239 551.823 119.105 552.66 118.937C554.266 116.528 555.337 116.93 555.671 117.432C555.671 121.447 557.01 122.117 557.679 121.949V115.424C558.081 114.621 557.512 114.085 557.177 113.918L550.15 109.902C548.142 109.099 545.967 109.568 545.13 109.902Z"
          fill="#E5B690"/>
    <path d="M542.118 108.899C533.284 102.875 529.067 91.6648 527.059 86.3105L528.063 103.879L542.118 108.899Z"
          fill="#BDD7D3"/>
    <path d="M528.063 103.88L525.553 60.7111L510.997 53.1816L485.898 84.3032C482.284 87.1142 483.389 92.8366 484.393 95.3464C484.393 96.9526 492.089 102.374 495.938 104.884L494.432 116.429H531.075L541.114 118.939L542.118 108.899L528.063 103.88Z"
          fill="#C7E5E5"/>
    <path d="M525.554 49.1642C525.554 50.7705 524.215 56.8609 523.546 59.7054L513.005 54.1838C513.005 52.9791 515.849 43.9773 517.021 39.627C517.422 42.4379 522.877 47.1564 525.554 49.1642Z"
          fill="#E5A281"/>
    <path d="M522.541 28.585C518.928 28.9868 518.351 33.6053 518.518 35.6131C515.707 34.0069 514.51 35.111 514.008 36.1149C513.606 38.9259 515.674 39.4613 517.012 39.6286C518.217 46.0537 525.211 49.3332 528.557 50.1698C532.171 50.9729 533.744 49.5005 534.079 48.6639C536.087 44.2467 534.581 33.7724 533.577 29.0874C530.364 30.2922 524.884 29.0869 522.541 28.585Z"
          fill="#E5B690"/>
    <path d="M539.107 25.0704C538.605 26.5763 535.593 28.5841 533.585 29.0861C531.785 30.2188 525.808 29.558 523.044 29.0861C519.028 28.283 518.359 33.1018 518.526 35.6116C514.912 34.0053 514.176 35.7789 514.009 36.6155C514.009 39.4265 516.016 39.1253 517.02 39.6273C517.422 42.0367 516.518 41.9698 516.016 41.6351C512.001 38.4226 509.658 30.592 508.989 27.0783C507.784 22.2594 511.164 21.0547 513.004 21.0547C516.217 21.8579 520.032 21.3894 521.538 21.0547C527.16 18.6453 534.254 18.043 537.098 18.043C540.712 18.8461 539.943 23.0626 539.107 25.0704Z"
          fill="#222B55"/>
    <path d="M496.44 103.377C504.304 107.225 522.141 115.524 530.574 115.926" stroke="#C0D5D3" stroke-opacity="0.8"
          stroke-width="0.313447"/>
    <path d="M509.993 78.7793C506.813 81.9584 502.464 83.2969 502.464 87.8146C502.966 92.3322 506.378 93.2358 509.993 94.8421L528.568 103.877"
          stroke="#C0D5D3" stroke-opacity="0.8" stroke-width="0.313447"/>
    <circle cx="252.312" cy="478.175" r="99.5378" fill="#E5D247"/>
    <path d="M255.821 477.458V378.725C329.906 382.634 353.271 449.069 353.271 477.458H255.821Z" fill="#E5A50D"/>
    <path d="M255.825 577.659L255.825 477.332H352.709C347.558 557.987 286.142 577.806 255.825 577.659Z" fill="#18898D"/>
    <path d="M255.821 577.648V477.332L198.63 561.967C222.719 577.33 246.837 578.781 255.821 577.648Z" fill="#62C1C5"/>
    <path d="M185.273 353.484C190.697 361.254 181.262 363.929 175.866 364.295H163.588L163.538 367.485L161.492 366.47C157.827 366.567 159.577 369.691 160.9 371.259C160.265 371.797 158.315 371.483 157.419 371.259C155.953 370.331 154.894 366.922 154.548 365.334C152.837 362.744 153.835 359.205 154.548 357.76C156.698 355.805 160.697 356.171 162.428 356.599C165.457 357.87 167.884 357.414 168.719 357.027C170.821 354.29 174.034 353.036 175.377 352.751C179.922 351.089 183.868 352.547 185.273 353.484Z"
          fill="#202C52"/>
    <path d="M169.095 395.069C169.305 394.227 169.124 386.719 168.58 383.561C166.538 383.308 162.039 380.59 160.039 379.301L158.158 390.409L169.095 395.069Z"
          fill="#E59E87"/>
    <path d="M176.728 381.609C177.797 376.335 176.782 367.902 176.142 364.346H163.572V367.443L161.813 366.526C159.989 366.09 159.284 367.19 159.284 367.95C159.145 369.12 160.26 370.676 160.809 371.289C160.1 371.656 158.908 371.531 158.223 371.424C157.588 373.561 158.226 376.421 158.616 377.603C160.552 381.509 167.018 383.404 170.009 383.863C174.512 384.379 176.366 383.001 176.728 381.609Z"
          fill="#E5B690"/>
    <path d="M156.658 388.859L170.085 395.006L172.922 418.235C169.655 422.438 163.432 432.803 160.381 440.107C165.43 443.22 180.161 449.741 199.942 450.842V456.65C188.988 457.241 169.775 457.689 155.334 455.566C154.667 458.503 153.655 464.379 153.584 465.296H136.583C136.236 460.632 135.129 450.337 135.963 446.95C134.186 444.059 133.359 439.918 136.157 434.897C140.303 423.947 148.989 401.549 150.57 399.559L156.658 388.859Z"
          fill="#18898D"/>
    <path d="M210.62 442.371L200.201 451.016V456.377C201.952 456.377 207.726 454.338 210.394 453.319C213.535 447.279 211.853 443.504 210.62 442.371Z"
          fill="#E5B593"/>
    <path d="M164.448 413.666L157.743 431.726C156.789 434.11 156.063 438.554 159.64 439.984L170.438 445.226"
          stroke="#758EA8" stroke-width="0.313447"/>
    <path d="M177.531 457.054C164.751 456.1 144.661 455.807 137.079 448.368C135.589 446.788 132.816 442.776 135.391 436.911L142.901 417.957"
          stroke="#758EA8" stroke-width="0.313447"/>
    <path d="M133.97 601.372C123.865 599.334 120.228 593.496 119.673 590.832C117.103 591.375 114.37 589.452 113.324 588.422C109.97 590.078 108.53 593.251 108.229 594.631L112.263 598.771L114.173 597.338L120.33 604.078H135.137C135.349 602.635 134.447 601.673 133.97 601.372Z"
          fill="#1F2C55"/>
    <path d="M176.372 594.405L176.526 588.277H169.739L169.48 594.675C171.062 596.45 174.806 595.206 176.372 594.405Z"
          fill="#E5B694"/>
    <path d="M193.272 601.119C186.63 600.714 179.238 596.474 176.372 594.405C174.847 595.367 170.907 595.216 169.32 594.201C168.36 594.7 167.566 596.452 167.535 597.476V603.887H173.301V602.18L181.649 604.117H194.564C195.154 602.383 193.949 601.396 193.272 601.119Z"
          fill="#1F2C55"/>
    <path d="M297.7 433.522C297.897 432.868 297.524 428.225 297.36 426.371C296.346 426.993 291.879 427.756 289.726 427.674L290.06 428.871H286.231C285.544 429.951 285.445 434.394 285.472 436.344C287.337 434.413 294.401 433.658 297.7 433.522Z"
          fill="#E5A27D"/>
    <path d="M301.643 422.632C301.321 416.008 295.566 406.991 292.729 403.311C290.338 404.406 290.065 405.4 288.532 405.668C286.903 406.802 289.432 409.713 290.084 411.074C292.2 414.294 291.542 416.802 290.832 417.76L288.958 416.077C286.612 414.513 285.158 415.425 284.736 416.077C283.816 418.745 285.738 420.36 286.735 420.666L289.729 428.104C290.557 428.104 296.506 426.945 298.94 426.37C301.608 425.496 301.854 423.514 301.643 422.632Z"
          fill="#E5B495"/>
    <path d="M310.61 418.464C310.944 420.867 309.568 428.958 308.845 432.519L319.05 431.442C319.684 427.737 319.302 419.521 319.038 416.003L316.868 400.064L310.139 402.543L310.61 418.464Z"
          fill="#E5B690"/>
    <path d="M295.22 396.159C298.058 400.845 291.878 404.828 288.433 406.234C288.092 408.724 290.309 410.544 291.076 412.216C291.764 414.445 291.602 417.134 290.765 417.938C288.455 415.166 286.142 415.231 285.194 416.247C283.604 418.278 285.925 420.275 287.053 420.908L290.105 428.91C275.057 430.23 271.625 417.745 271.79 411.338C271.724 403.418 278.638 399.128 282.103 397.973C286.854 398.237 289.857 395.774 290.765 394.509C292.63 393.915 294.512 395.361 295.22 396.159Z"
          fill="#103955"/>
    <path d="M328.26 446.018L317.9 431.535L325.23 429.738C330.044 428.934 330.239 425.312 330.589 422.877C330.745 419.878 330.319 411.43 329.791 407.269C329.187 402.509 328.254 398.467 327.438 397.091L324.366 390.801C323.136 388.996 324.238 387.425 324.942 386.864H331.327C331.673 386.826 333.167 387.745 333.872 388.209C336.291 389.668 335.744 392.754 335.168 394.114C334.63 395.074 334.733 398.187 334.852 399.623L337.009 411.624C337.82 414.194 338.775 428.251 339.151 434.959C339.376 438.34 337.441 440.275 336.445 440.82L328.26 446.018Z"
          fill="#E5B690"/>
    <path d="M329.14 446.1L318.146 431.357C317.871 431.357 300.021 433.326 291.129 434.31C280.922 435.684 276.312 445.893 275.283 450.825V498.349H311.473L308.301 454.396C316.297 453.276 325.525 448.399 329.14 446.1Z"
          fill="#CCE5E5"/>
    <path d="M311.17 622.798L311.361 616.738H304.685L305.228 622.418C306.162 623.495 309.557 623.246 311.17 622.798Z"
          fill="#E5B791"/>
    <path d="M311.155 498.348H275.353C274.994 507.607 277.85 523.515 279.323 530.311C282.209 538.623 279.724 549.804 278.121 554.355L257.597 616.977H268.761L296.154 560.967C297.872 559.181 301.106 546.983 302.509 541.107C306.15 543.629 306.545 553.91 306.287 558.735L302.595 616.977H313.859L321.729 581.718C323.576 577.436 324.528 552.86 324.773 541.107C324.017 525.156 315.379 505.955 311.155 498.348Z"
          fill="#0A3C5F"/>
    <path d="M302.211 541.107C292.725 535.65 280.481 510.371 275.544 498.414C275.544 503.809 277.734 519.798 278.828 527.119C282.052 540.313 280.172 549.781 278.828 552.866L257.933 617.011H268.502L296.142 561.075C297.515 559.522 300.76 547.116 302.211 541.107Z"
          fill="#08395B"/>
    <path d="M265.301 622.635L267.493 617.004L260.236 617.011L259.358 622.282C260.293 623.283 263.687 623.052 265.301 622.635Z"
          fill="#E5B791"/>
    <path d="M279.885 622.288H265.412C263.467 623.427 260.485 622.763 259.238 622.288C257.248 623.494 257.477 626.069 257.841 627.205H285.361C285.786 623.204 281.888 622.26 279.885 622.288Z"
          fill="#12395A"/>
    <path d="M325.754 622.471H311.281C309.337 623.611 306.355 622.946 305.107 622.471C303.117 623.678 303.346 626.253 303.71 627.389H331.23C331.655 623.388 327.757 622.443 325.754 622.471Z"
          fill="#12395A"/>
    <rect x="312.673" y="622.328" width="1.99322" height="2.54002" fill="#E9E9E9"/>
    <rect x="266.804" y="622.146" width="1.99322" height="2.54002" fill="#E9E9E9"/>
    <rect x="316.499" y="622.328" width="1.99322" height="2.54002" fill="#E9E9E9"/>
    <rect x="270.63" y="622.146" width="1.99322" height="2.54002" fill="#E9E9E9"/>
    <path d="M339.277 374.938L300.413 400.726L302.841 405.21L346.162 389.541L339.277 374.938Z" fill="#0A3C61"/>
    <path d="M297.564 403.705L300.852 401.498L302.475 404.518L298.936 406.239C297.403 406.577 296.608 404.541 297.564 403.705Z"
          fill="#242B55"/>
    <ellipse cx="342.725" cy="382.238" rx="3.09729" ry="8.06987" transform="rotate(-25.5458 342.725 382.238)"
             fill="#F5F5F5"/>
    <path d="M314.736 394.732C312.589 395.901 308.92 395.743 308.73 394.998C307.881 392.87 312.911 390.445 314.391 389.896C316.644 389.067 317.278 390.117 317.314 390.746C317.016 392.83 315.471 394.271 314.736 394.732Z"
          fill="#E5B690"/>
    <path d="M495.847 559.406H482.458C481.113 565.735 487.815 604.37 491.335 622.065L495.847 618.703V559.406Z"
          fill="#E5B690"/>
    <path d="M467.17 423.525L450.597 403.986L440.901 414.437C440.988 416.513 455.212 437.141 462.313 447.195L466.612 483.635L496.68 483.94L495.411 470.311C494.404 465.528 496.628 454.808 497.866 450.046L511.639 459.029L516.595 447.195L498.231 427.768L467.17 423.525Z"
          fill="#B0D9C7"/>
    <path d="M488.239 383.259C483.07 382.646 473.673 386.914 469.62 389.125C468.736 392.933 470.329 397.967 471.235 400.007C472.851 400.942 473.191 408.679 472.681 409.104C472.273 409.444 471.207 413.156 470.725 414.97C467.869 420.071 471.916 425.824 474.296 428.062C481.845 431.123 483.393 436.422 483.223 438.689L483.648 445.321C484.6 450.966 494.813 451.47 499.801 451.017C504.698 448.976 504.562 441.098 503.882 437.414C501.025 432.653 501.898 426.645 502.691 424.237C507.588 418.728 504.732 412.816 502.691 410.549C497.59 405.312 497.732 396.805 498.441 393.206C497.624 385.996 491.299 383.57 488.239 383.259Z"
          fill="#222B54"/>
    <path d="M473.015 409.199C474.176 404.082 469.877 395.225 469.705 394.752C466.471 399.499 465.749 409.6 465.792 414.058C465.861 416.603 468.541 417.5 469.816 417.629C470.939 415.364 472.026 410.861 473.015 409.199Z"
          fill="#E5BB90"/>
    <path d="M422.08 354.208L416.392 343.707C414.413 342.662 416.143 348.342 417.255 351.312C414.12 353.187 414.41 357.001 414.947 358.674L422.785 368.358L441.292 414.044L450.327 404.281L449.812 403.533L426.723 364.711C427.283 361.755 425.504 356.477 424.544 354.208C421.402 345.214 421.592 350.46 422.08 354.208Z"
          fill="#E5BB90"/>
    <path d="M516.53 447.38L516.52 447.371L511.652 458.932C514.529 461.449 512.548 465.032 511.088 466.407L496.86 483.766C499.024 487.326 502.329 494.441 503.346 498.194C506.555 494.901 504.883 489.314 503.346 487.039C502.389 485.8 503.145 485.051 503.642 484.832L522.6 469.997C530.806 465.416 528.117 458.984 525.746 456.341C525.143 454.832 519.268 449.749 516.53 447.38Z"
          fill="#E5B690"/>
    <path d="M496.953 483.668H466.616C462.172 490.947 462.026 508.062 462.509 515.71L465.764 542.648C465.764 542.648 465.771 553.829 466.466 559.42H496.372C494.85 540.291 500.102 523.774 502.918 517.906C508.211 505.096 501.147 489.743 496.953 483.668Z"
          fill="#0A3C5F"/>
    <path d="M480.707 559.406H467.319C465.973 565.735 472.675 604.096 476.195 621.791L480.707 619.363V559.406Z"
          fill="#E5B690"/>
    <path d="M489.618 627.42H475.492C477.187 625.365 482.277 624.852 484.61 624.852C487.332 624.852 493.578 619.887 496.36 617.404C499.339 618.843 498.543 621.985 497.773 623.376L497.13 627.42H495.333V625.43C495.589 622.913 491.63 625.708 489.618 627.42Z"
          fill="#1F2758"/>
    <path d="M474.309 627.426H460.183C461.878 625.371 466.968 624.858 469.301 624.858C472.024 624.858 478.269 619.893 481.051 617.41C484.031 618.848 483.235 621.99 482.464 623.382L481.822 627.426H480.024V625.436C480.281 622.919 476.321 625.714 474.309 627.426Z"
          fill="#1C2559"/>
    <path d="M570.574 505.545H641.345" stroke="#222B54" stroke-width="6.26894"/>
    <path d="M612.094 595.502L598.161 505.335" stroke="#222B54" stroke-width="3.13447"/>
    <path d="M626.337 596.972L639.155 506.64" stroke="#222B54" stroke-width="3.13447"/>
    <path d="M683.241 595.502L669.308 505.335" stroke="#222B54" stroke-width="3.13447"/>
    <path d="M572.921 374.479H662.403" stroke="#222B54" stroke-width="6.26894"/>
    <path d="M659.081 446.182C658.925 467.585 646.309 492.769 640.708 502.867L638.868 509.095L668.85 506.183L677.447 501.658L659.081 446.182Z"
          fill="#222B54"/>
    <circle cx="571.944" cy="374.478" r="4.29837" fill="#222B54"/>
    <rect x="576.038" y="439.541" width="11.1365" height="37.2912" fill="#62C1C5"/>
    <rect x="592.484" y="421.762" width="12.3654" height="55.0704" fill="#E5A60F"/>
    <rect x="611.332" y="431.951" width="12.0888" height="44.8831" fill="#18898D"/>
    <rect x="628.019" y="404.783" width="13.3267" height="72.0495" fill="#E5D146"/>
    <path d="M607.134 511.513C581.727 514.788 563.09 548.795 563.662 560.343L563.331 569.738C582.263 556.44 615.87 548.906 623.195 527.962C625.29 514.955 612.279 510.484 607.134 511.513Z"
          fill="#222B54"/>
    <path d="M566.551 488.108C599.597 505.285 575.004 552.689 568.286 569.555L554.028 569.555C540.762 538.3 518.542 514.441 531.075 496.349C539.054 481.866 559.091 483.339 566.551 488.108Z"
          fill="#006768"/>
    <path d="M527.705 529.674C552.676 533.927 557.775 558.086 557.204 569.634H542.969C521.154 562.637 513.528 547.396 512.442 540.65C512.304 529.399 522.56 528.645 527.705 529.674Z"
          fill="#158B8D"/>
    <path d="M561.438 570.467C566.357 550.807 569.634 505.914 542.971 487.193" stroke="#F2F2F2"
          stroke-width="0.940341"/>
    <path d="M574.072 553.748C581.804 542.094 602.39 518.707 619.2 516.959" stroke="#00666B" stroke-width="0.940341"/>
    <path d="M553.474 569.91C547.366 559.488 530.948 537.803 514.138 534.441" stroke="#006369" stroke-width="0.940341"/>
    <rect x="540.302" y="574.562" width="37.5973" height="30.055" fill="#EBBF25"/>
    <rect x="534.843" y="569.574" width="47.4461" height="4.9876" rx="2.4938" fill="#FFE072"/>
    <path d="M651.992 412.599L661.852 396.553C663.533 397.557 667.345 396.971 669.041 396.553L669.851 396.163L671.891 395.299H673.851L677.997 424.934C676.489 436.883 678.833 440.705 679.881 442.034C680.605 442.577 683.851 447.738 685.384 450.251C689.877 457.036 688.979 468.801 687.422 474.27C684.319 486.557 689.609 515.031 692.642 527.731H660.049L658.875 465.253C659.019 460.413 657.871 451.168 657.278 447.15L654.258 434.689L647.838 437.962L643.811 424.934L650.482 417.445C650.029 416.237 651.3 413.711 651.992 412.599Z"
          fill="#18898D"/>
    <path d="M647.676 437.368L643.971 425.406C641.581 426.763 618.427 424.101 607.475 422.503L604.026 418.505C600.428 413.308 601.594 418.139 602.627 421.204L595.581 416.306C592.662 413.787 592.332 416.023 592.532 417.456L594.527 421.928C596.945 426.662 603.678 426.829 606.742 426.321L637.499 436.252C640.485 437.236 645.468 437.577 647.676 437.368Z"
          fill="#E5B592"/>
    <path d="M654.398 382.928C653.768 381.709 654.136 373.243 654.398 369.162C658.322 371.37 664.034 369.535 666.325 368.615C670.088 365.966 674.62 368.816 675.167 370.495C678.186 371.876 674.055 375.655 672.641 376.929C671.918 377.41 670.56 382.191 670.266 384.768C664.592 387.5 659.915 387.587 658.287 387.29C656.227 387.037 654.836 384.277 654.398 382.928Z"
          fill="#E5B592"/>
    <path d="M662.403 396.801L662.404 387.229L670.446 384.752C670.372 385.119 669.797 393.05 669.532 396.393C668.309 398.032 663.288 397.107 662.403 396.801Z"
          fill="#E5A283"/>
    <path d="M653.199 367.862C656.518 371.891 663.945 369.976 667.244 368.514C671.617 366.767 671.644 369.656 671.436 371.112C672.284 370.338 673.633 370.624 674.109 371.347C675.609 374.443 673.446 375.746 672.086 376.335C670.232 381.549 669.576 392.605 669.479 397.481C667.973 401.188 672.714 413.702 675.273 419.495C676.895 425.347 679.859 426.278 681.138 426.013C686.005 424.275 685.676 418.24 684.904 415.44C681.312 412.254 684.421 407.643 686.425 405.736C690.48 399.537 687.777 394.029 685.918 392.049C681.515 388.689 685.145 383.649 687.511 381.549C691.103 376.161 686.014 371.724 683.021 370.179C678.85 368.789 679.207 363.565 679.907 361.127C680.602 356.261 677.783 354.561 676.286 354.32C671.768 352.871 666.582 355.647 664.555 357.216C662.817 359.302 660.355 357.844 659.341 356.854C655.691 355.232 652.558 357.53 651.447 358.882C647.913 362.532 651.143 366.389 653.199 367.862Z"
          fill="#222B52"/>
    <path d="M665.928 410.699C664.612 419.857 662.037 438.173 662.269 438.173C662.501 438.173 668.755 442.704 671.853 444.969L678.533 423.246"
          stroke="#272727" stroke-opacity="0.5" stroke-width="0.626894"/>
    <path d="M655.922 439.541L651.275 421.302C650.675 418.747 649.671 415.778 653.25 410.615L661.904 396.559"
          stroke="#6ABDC1" stroke-width="0.626894"/>
    <path d="M671.631 445.095L662.241 438.57C661.933 440.718 658.888 445.312 657.404 447.34L642.237 466.158L635.817 469.053C633.25 472.225 634.748 472.262 635.817 471.885C637.479 470.274 639.363 470.374 640.097 470.626C640.5 472.992 636.824 477.066 634.936 478.807C633.073 481.123 634.748 481.87 635.817 481.954C640.449 480.947 644.251 476.374 645.572 474.213V469.053L646.496 468.252L667.531 451.424C669.68 450.063 671.16 446.638 671.631 445.095Z"
          fill="#E5B78E"/>
    <path d="M693.27 548.446C694.656 542.044 689.833 532.029 687.248 527.822H670.459L678.137 541.896L695.147 582.419C698.934 589.119 693.222 595.199 689.893 597.401C695.844 597.609 700.808 591.313 702.221 587.934L693.27 548.446Z"
          fill="#DFAA80"/>
    <path d="M675.44 550.364C677.957 544.316 679.665 532.2 677.881 527.596L663.743 527.595L664.286 547.482L664.901 584.909C665.219 593.227 660.706 597.133 657.034 598.699C662.85 599.976 668.482 594.875 670.48 591.807L675.44 550.364Z"
          fill="#E5B690"/>
    <path d="M650.669 602.725C652.164 598.831 655.642 598.401 657.194 598.673C663.361 599.768 668.761 594.078 670.691 591.096C672.669 593.2 671.795 596.358 671.111 597.673V602.725H668.586V598.094L663.377 602.909L650.669 602.725Z"
          fill="#006D74"/>
    <path d="M684.584 602.84C683.942 600.179 687.577 598.07 689.474 597.349C694.893 597.349 700.23 590.775 702.22 587.488C705.139 588.418 704.933 592.285 704.465 594.102V599.313H701.579V594.784L694.965 602.84H684.584Z"
          fill="#006D74"/>
    <path d="M658.445 251.37C664.329 255.934 665.651 265.146 664.329 269.895L663.349 273.418H689.294C689.294 273.418 688.496 269.895 688.136 268.753C684.674 257.79 695.656 251.37 699.718 246.768C714.378 230.16 708.347 210.861 704.72 207.684C692.603 187.871 654.296 190.381 645.395 211.832C639.077 227.058 651.789 244.587 658.445 251.37Z"
          fill="#E5A60F"/>
    <path d="M674.435 273.174V228.054C674.114 224.699 665.928 223.171 663.276 229.51C662.737 231.963 664.02 236.82 673.464 236.626C677.534 235.979 685.755 234.443 686.079 233.472C687.345 232.206 689.297 229.025 686.968 226.438C684.92 225.305 680.726 224.481 680.338 230.238L679.772 273.174"
          stroke="#E5D86C" stroke-width="1.56724"/>
    <path d="M663.172 273.174H689.428V282.521C689.428 285.983 686.622 288.79 683.16 288.79H669.441C665.978 288.79 663.172 285.983 663.172 282.521V273.174Z"
          fill="#61C1C5"/>
    <path d="M681.551 292.789H672.045L670.069 288.836H683.245L681.551 292.789Z" fill="#91D0C7"/>
    <rect x="676.248" y="165.355" width="2.10769" height="19.6226" rx="1.05384" fill="#E5DF71"/>
    <rect x="723.928" y="175.184" width="2.10769" height="19.8347" rx="1.05384" transform="rotate(45 723.928 175.184)"
          fill="#E5DF71"/>
    <rect width="2.10769" height="19.8347" rx="1.05384"
          transform="matrix(-0.707107 0.707107 0.707107 0.707107 638.709 174.434)" fill="#E5DF71"/>
</svg>
